<?xml version="1.0" encoding="UTF-8" standalone="no"?><svg xmlns="http://www.w3.org/2000/svg" xmlns:xlink="http://www.w3.org/1999/xlink" fill="#ffd65a" height="1106" preserveAspectRatio="xMidYMid meet" version="1" viewBox="-21.2 -7.1 981.7 1106.0" width="981.7" zoomAndPan="magnify"><g><g fill-rule="evenodd" id="change1_1"><path d="m703.79833,500.11276c-18.74401,16.70661-25.67114,30.1534-28.93097,57.86193l-2.44487,22.41131-17.92905,2.03739c-21.59635,2.44487-47.67497,18.74401-59.08437,36.67306-6.92713,11.00192-8.14957,18.33653-6.51965,44.00767,1.62991,38.71045,10.59444,55.00958,35.45062,68.04889,23.22627,12.22435,54.19463,10.18696,85.97794-4.48226,11.81687-6.11218,22.00383-10.18696,22.00383-9.77948,10.59444,23.63375,33.82071,39.5254,58.26941,39.5254,15.48418,0,19.96644-2.44487,39.5254-20.7814,12.22435-11.4094,23.22627-24.4487,24.4487-28.52349,2.03739-5.7047,6.51965-7.74209,18.74401-7.74209,17.11409,0,35.45062-7.33461,44.41514-18.33653,8.96452-11.00192.81496-12.22435-16.70661-2.44487-16.29914,9.372-17.11409,9.372-32.19079,2.44487-18.74401-8.55705-28.52349-6.11218-28.52349,6.92713-.40748,12.22435-6.92713,20.37392-24.4487,31.37584-20.7814,12.22435-33.82071,11.00192-52.56471-5.7047-17.92905-16.29914-26.07862-17.11409-57.45445-6.11218-46.45254,16.29914-72.93863,6.51965-83.94055-30.96836-5.29722-18.74401-5.7047-24.85618-1.62991-34.63566,10.59444-24.85618,41.97027-37.48801,68.04889-27.30105,23.63375,9.372,25.67114,6.92713,25.67114-31.78331,0-55.41706,13.85427-70.90124,50.52732-57.04698,19.96644,7.74209,28.52349,15.48418,34.63566,32.19079,8.96452,22.81879,24.04123,7.74209,19.15148-19.15148-4.88974-25.67114-44.82262-51.34228-79.45829-51.34228-17.11409,0-22.81879,2.03739-35.04314,12.63183Z"/><path d="m883.08883,516.81937c-25.67114,13.85427-39.5254,40.74784-24.04123,46.86002,3.25983,1.22244,15.48418-2.85235,26.4861-8.96452,25.67114-13.85427,36.67306-11.81687,46.04506,9.77948,6.51965,13.44679,6.51965,18.33653,2.44487,31.78331-2.85235,8.55705-7.74209,19.55896-11.00192,24.85618-12.22435,19.96644,7.33461,23.63375,25.67114,4.48226,11.00192-11.4094,11.81687-14.66922,11.81687-43.60019,0-35.04314-6.92713-51.74976-26.4861-63.56663-13.03931-7.33461-38.71045-8.55705-50.9348-1.62991Z"/><path d="m742.50878,634.17315c-3.25983,5.7047-2.85235,11.81687,1.62991,22.41131,5.29722,12.22435,8.14957,14.26174,19.96644,14.26174,15.48418,0,29.74592-12.22435,25.67114-22.41131-2.03739-5.29722-4.07478-5.7047-11.00192-2.03739-11.81687,6.51965-19.96644,2.03739-19.96644-10.18696s-10.18696-13.85427-16.29914-2.03739Z"/><path d="m159.82124,8.76799c-29.33844,15.48418-24.4487,33.82071,5.7047,20.37392,23.22627-10.59444,41.5628-10.59444,63.56663,0,20.37392,9.77948,24.4487,22.00383,19.96644,60.3068-2.44487,22.41131-2.03739,23.63375,7.74209,28.11601,5.7047,2.44487,10.18696,6.51965,10.18696,8.96452,0,5.29722,10.59444,5.29722,26.89357-.81496,17.52157-6.11218,30.96836,2.44487,37.48801,24.4487,6.11218,19.96644,6.11218,32.59827.40748,49.30489-5.7047,16.70661-23.22627,25.26366-55.82454,28.11601-17.52157,1.22244-26.89357,4.07478-28.11601,7.74209-6.92713,17.92905,39.11793,18.33653,72.12368.81496,28.11601-14.66922,37.08053-29.74592,37.89549-61.93672.81496-51.74976-30.1534-80.68072-71.30872-66.0115-2.85235.81496-8.55705-.81496-12.63183-3.66731-6.11218-4.48226-6.51965-7.33461-2.44487-15.48418,6.92713-15.48418-2.03739-52.15723-15.89166-65.19654C229.09257-1.01149,189.97464-7.12366,159.82124,8.76799Z"/><path d="m357.85574,23.02974c-5.7047,15.48418,16.70661,28.93097,26.89357,16.29914,2.85235-3.25983,4.07478-9.77948,2.44487-14.66922-3.25983-10.18696-25.26366-11.4094-29.33844-1.62991Z"/><path d="m51.83947,41.36627C20.87111,56.85045,2.1271,88.22628,2.1271,124.89934c0,8.96452,2.44487,20.37392,5.29722,25.67114,6.11218,12.63183,29.33844,26.4861,38.30297,23.22627,5.7047-2.44487,4.48226-4.88974-6.11218-15.89166-21.18888-21.59635-15.48418-54.19463,13.85427-79.86577,19.15148-17.11409,39.5254-20.37392,60.3068-8.96452,9.372,4.48226,18.74401,8.55705,21.18888,8.55705,8.55705,0,9.372-11.00192,1.62991-23.63375-13.44679-21.59635-54.19463-27.70853-84.75551-12.63183Z"/><path d="m127.22297,137.53117c-1.62991,1.22244-2.85235,10.18696-2.85235,19.55896,0,13.85427,2.44487,19.15148,15.48418,31.78331,19.96644,19.15148,35.45062,22.41131,57.04698,11.4094,28.93097-14.66922,28.52349-24.85618-.81496-16.70661-28.93097,7.74209-46.45254-4.48226-53.37967-37.89549-2.03739-10.18696-9.372-14.26174-15.48418-8.14957Z"/><path d="m225.01778,168.907c-1.22244,3.25983.40748,8.14957,3.66731,11.00192,4.48226,3.66731,7.33461,3.25983,13.85427-2.44487,4.48226-4.07478,8.14957-8.96452,8.14957-11.00192,0-5.7047-23.63375-3.66731-25.67114,2.44487Z"/><path d="m20.87111,189.6884c-9.77948,9.77948-12.22435,31.37584-5.29722,48.08245,8.96452,21.18888,23.63375,29.33844,54.19463,29.33844,23.63375,0,26.07862.81496,32.19079,11.4094,8.55705,14.26174,26.89357,23.63375,47.26749,24.04123,12.63183,0,21.59635-3.66731,38.71045-15.0767,28.52349-19.96644,42.78523-38.71045,28.93097-38.71045-3.25983,0-19.96644,7.33461-37.08053,16.29914-22.00383,11.4094-34.63566,15.89166-40.74784,13.85427-12.22435-3.66731-31.37584-17.92905-29.33844-21.59635,1.22244-1.62991.40748-4.88974-1.22244-7.74209-2.03739-3.25983-6.51965-3.66731-17.11409-.40748-11.81687,3.66731-17.11409,3.25983-30.1534-2.85235-20.37392-9.77948-27.30105-22.81879-24.04123-45.63758,2.03739-13.85427,1.22244-17.11409-3.66731-17.11409-3.66731,0-8.96452,2.85235-12.63183,6.11218Z"/><path d="m221.66269,695.44252c-17.92905,5.7047-50.52732,30.96836-61.93672,48.08245-8.55705,12.63183-9.372,17.92905-8.14957,45.63758,1.22244,26.07862,2.85235,33.00575,10.18696,40.74784,7.33461,6.92713,10.18696,8.14957,14.26174,4.07478,3.66731-3.66731,3.66731-6.92713,0-15.0767-2.85235-5.7047-4.88974-22.00383-4.88974-35.45062,0-24.4487.40748-25.67114,19.55896-44.00767,38.71045-37.48801,83.53307-37.48801,100.64716-.40748,5.7047,13.03931,6.51965,22.00383,4.88974,40.74784-3.25983,28.93097,1.22244,32.59827,25.26366,19.55896,15.48418-8.55705,16.29914-8.55705,30.56088-1.62991,11.81687,5.29722,14.66922,8.96452,14.66922,18.74401,0,13.03931-17.52157,37.08053-26.89357,37.08053-11.00192,0-10.18696,11.00192,2.03739,23.22627,25.26366,25.67114,19.96644,64.78906-11.4094,82.31064-19.55896,10.59444-17.52157,19.55896,3.25983,14.66922,36.67306-8.14957,54.19463-47.26749,39.11793-89.23777-5.29722-15.0767-4.88974-17.11409,2.85235-28.11601,10.18696-14.26174,14.26174-46.86002,7.33461-59.49185-6.92713-13.03931-28.52349-24.85618-45.63758-24.85618-14.26174,0-15.48418-.81496-15.48418-11.81687,0-18.74401-20.37392-53.37967-36.67306-61.93672-15.48418-8.55705-42.78523-9.372-63.56663-2.85235Z"/><path d="m59.48629,798.12707c-61.93672,22.81879-80.68072,120.6136-31.37584,162.58388,6.92713,5.7047,19.15148,11.81687,26.89357,13.44679l13.85427,2.44487-7.74209,14.66922c-13.03931,25.26366-14.26174,50.9348-4.48226,70.90124,11.4094,23.22627,25.67114,33.00575,51.74976,35.04314,20.7814,1.62991,22.00383,1.22244,39.11793-16.29914,10.18696-10.18696,22.41131-27.70853,27.70853-41.15532,9.372-22.81879,13.44679-26.89357,18.33653-19.55896,3.25983,5.7047,36.26558,9.77948,52.97219,6.92713,19.55896-3.66731,37.89549-20.7814,49.30489-45.2301,17.92905-37.89549,10.59444-46.45254-12.22435-14.26174-25.67114,35.8581-50.52732,44.41514-81.90316,28.52349-8.96452-4.48226-16.29914-8.14957-16.70661-8.14957s-9.372,13.85427-19.96644,30.56088c-33.00575,53.37967-50.11984,64.38159-72.53115,46.86002-21.59635-17.11409-16.29914-63.15915,9.77948-81.90316,11.4094-8.14957,15.0767-17.52157,8.55705-21.59635-2.03739-1.22244-13.44679-2.85235-25.26366-4.07478-26.89357-2.44487-39.93288-11.4094-52.56471-36.26558-11.4094-22.81879-9.372-47.26749,4.88974-68.45637,14.66922-21.59635,28.93097-29.74592,52.56471-29.74592,19.55896,0,22.00383,1.22244,36.26558,17.92905,24.4487,28.52349,35.45062,15.0767,17.11409-21.18888-10.59444-21.59635-54.19463-32.59827-84.34803-22.00383Z"/><path d="m242.44409,857.61892c-2.85235,4.88974.81496,12.22435,6.51965,12.22435,2.03739,0,3.66731-3.66731,3.66731-8.14957,0-8.55705-6.11218-11.00192-10.18696-4.07478Z"/><path d="m209.43834,890.62467l-10.18696,16.70661-20.37392-2.85235c-18.33653-2.44487-19.96644-2.03739-19.96644,5.29722,0,18.74401,37.08053,28.11601,55.82454,15.0767,15.48418-11.00192,22.81879-50.9348,9.372-50.9348-2.03739,0-8.55705,7.33461-14.66922,16.70661Z"/></g></g></svg>