<?xml version="1.0" encoding="UTF-8" standalone="no"?><svg xmlns="http://www.w3.org/2000/svg" xmlns:xlink="http://www.w3.org/1999/xlink" fill="#fabfb7" height="235.5" preserveAspectRatio="xMidYMid meet" version="1" viewBox="61.3 32.7 176.5 235.5" width="176.5" zoomAndPan="magnify"><g id="change1_1"><path d="M181.6,33.2c-0.1,0.2-0.2,0.3-0.3,0.5c-0.1-0.1-0.1-0.2-0.2-0.2c-0.1-0.1-0.9-0.2-2.3-0.1c-1.4,0.1-2.3,0.1-2.4-0.1 c-0.2-0.2-0.4-0.2-0.9-0.2c-0.4,0-1,0.1-1.6,0.2c-0.6,0.1-0.9,0.1-1.1,0c-0.1-0.2-0.5-0.2-1.2-0.2s-1.1,0.1-1.3,0.2 c-0.2,0.1-0.4,0.2-0.6,0.2s-0.6,0.2-1.1,0.7c-0.4,0.5-0.8,0.7-1,0.7c-0.1,0-0.3,0-0.4,0c0,0.1,0,0.1,0,0.2c0,0.2-0.4,0.3-1.1,0.4 s-1.1,0.2-1.1,0.4c0,0.1,0,0.2,0,0.2c-0.3,0-0.6,0-1,0c-0.6,0-1,0.1-1.2,0.4c-0.1,0.3-0.3,0.4-0.6,0.4s-0.6,0.2-1,0.6 c-0.4,0.4-0.6,0.7-0.6,0.9c0,0.2-0.1,0.4-0.3,0.7c-0.2,0.3-0.3,0.8-0.4,1.6c-0.1,0.9-0.2,1.6-0.5,2.2c-0.3,0.6-0.4,1.2-0.4,1.9 c0,0.7-0.1,1-0.4,1.1c-0.3,0.1-0.3,0.5-0.2,1.3c0.1,0.8,0.1,1.3-0.1,1.5c-0.1,0.1-0.1,0.3-0.2,0.4c0.1,0,0.1,0,0.2-0.1 c0.1,0,0.2,0,0.2-0.1c0,0.2-0.1,0.4-0.1,0.5c-0.1,0.3,0,0.6,0.1,0.7c0.1,0.1,0.1,0.4,0,0.8s-0.1,0.7,0,0.8c0.1,0,0.1,0.1,0.2,0.1 c-0.1,0.1-0.2,0.2-0.3,0.3c-0.2,0.2-0.3,0.4-0.3,0.7s0.1,0.5,0.2,0.7c0.1,0.1,0.1,0.2,0.2,0.3c-0.1,0-0.1,0-0.2,0 c-0.2,0-0.3,0.2-0.5,0.5c-0.1,0.3-0.2,0.7-0.1,1c0,0.2,0.1,0.3,0.1,0.5c-0.1,0-0.1,0-0.2,0c-0.2,0-0.3,0.1-0.4,0.3 c-0.1,0.2-0.2,0.6-0.2,1.1c0,0.3,0,0.5,0,0.8c0.1,0,0.1,0,0.2,0c0,0,0.1,0,0.1,0c0,0.1,0,0.3,0,0.4c0,0.3,0.1,0.4,0.1,0.4 c0.1,0,0.1,0.1,0.2,0.1c-0.1,0-0.1,0-0.2,0.1c-0.1,0-0.2,0.4-0.3,1c-0.1,0.7-0.1,1.1,0.1,1.4s0.3,0.6,0.3,1.1s0.1,0.8,0.2,0.9 c0.2,0.1,0.2,0.2,0.2,0.3c0,0.1,0,0.1,0,0.2c-0.1,0-0.1-0.1-0.2-0.1c-0.1,0-0.1-0.1-0.2-0.1c0,0.3,0,0.5,0,0.8 c0,0.5,0.1,0.8,0.1,0.9c0.1,0,0.1,0.1,0.2,0.1c-0.1,0.2-0.2,0.4-0.3,0.6c-0.2,0.4-0.3,0.8-0.2,1.3c0.1,0.4,0,0.9-0.2,1.3 c-0.3,0.4-0.4,0.7-0.4,0.8c0,0.1,0,0.2,0,0.2c0.1,0,0.1,0,0.2,0c0.1,0,0.2,0,0.2,0c-0.1,0.1-0.1,0.3-0.2,0.4 c-0.1,0.3-0.2,0.6-0.1,1.1s0.1,0.8,0.2,0.8c0.1,0,0.1,0.4,0,1.2c-0.1,0.4-0.1,0.8-0.2,1.1c0.1,0,0.1,0,0.2,0c0.1,0,0.2,0.1,0.3,0.4 c0.1,0.3,0.1,0.5-0.1,0.7c-0.1,0.2-0.2,0.5-0.1,1s0,0.9-0.2,1.1c-0.1,0.3-0.3,0.8-0.3,1.8c-0.1,0.9-0.2,1.5-0.3,1.7 c-0.2,0.1-0.2,0.6-0.2,1.5c0.1,0.8,0,1.4-0.1,1.6s-0.2,0.6-0.2,1.2c0,0.6,0.1,1,0.3,1.1c0.2,0.2,0.3,0.5,0.4,1s0.1,0.9,0,1.1 s-0.1,0.4-0.2,0.4c-0.1,0-0.1,0-0.2,0c0,0.2,0,0.3,0,0.5c0,0.2,0,0.4,0,0.5c0.1,0,0.2,0,0.2,0s0.1,0,0.2,0 c-0.1,0.3-0.1,0.5-0.2,0.8c-0.2,0.5-0.1,0.8,0.1,1.1c0.2,0.2,0.3,0.9,0.2,2.3c-0.1,1.3,0,2,0.1,2c0.1,0,0.1,0,0.1,0.1 c-0.1,0.2-0.3,0.4-0.4,0.6c-0.3,0.4-0.3,0.7-0.2,0.8c0,0.1,0.1,0.1,0.1,0.2c-0.1,0-0.1,0-0.1,0c-0.1,0-0.2,0.3-0.4,0.8 c-0.2,0.5-0.2,0.9,0,1.1c0.1,0.3,0.3,0.4,0.4,0.4c0.1,0,0.1,0,0.2,0c0,0,0,0.1,0,0.2c0,0.1-0.1,0.2-0.4,0.2c-0.3,0-0.3,0.4-0.2,1.1 c0.1,0.7,0.2,1.1,0.3,1.1c0,0,0.1,0,0.1,0.1c-0.1,0.1-0.1,0.1-0.1,0.2c-0.1,0.1-0.1,0.4,0.1,1.1c0.1,0.6,0.2,1.1,0.2,1.5 c0,0.4-0.1,0.6-0.2,0.8c-0.2,0.1-0.2,0.4-0.1,1c0,0.3,0.1,0.6,0.1,0.9c-0.1,0-0.1,0-0.1,0c-0.1,0-0.1,0-0.2,0c0,0.1,0,0.3,0,0.4 c0,0.3-0.1,0.5-0.2,0.7c-0.2,0.2-0.2,0.5-0.2,0.9c0.1,0.4,0,0.7-0.1,0.8c-0.2,0.1-0.2,0.9-0.1,2.3c0.1,1.4,0.2,2.2,0.4,2.5 c0.1,0.3,0.1,0.5,0,0.7c-0.2,0.2-0.2,0.8-0.2,1.7c0.1,1,0.1,1.5,0.2,1.5c0.1,0,0.1,0.1,0.1,0.1c-0.1,0.1-0.1,0.3-0.2,0.4 c-0.2,0.3-0.2,0.5-0.2,0.9c0,0.2,0,0.3,0,0.5c0.1,0,0.1,0,0.2,0c0.1,0,0.1,0,0.2,0c0,0.1,0,0.1,0,0.2c0,0.1-0.1,0.2-0.2,0.4 c-0.2,0.2-0.2,0.4-0.2,0.7c0,0.2,0.1,0.3,0.1,0.4c0,0-0.1,0-0.1,0s-0.1,0-0.1,0c0,0.1,0.1,0.3,0.1,0.4c0.1,0.3,0.1,0.4-0.1,0.5 c-0.2,0.1-0.2,0.3-0.1,0.6c0.1,0.3,0.1,0.6,0,0.8c-0.1,0.2-0.2,0.3-0.4,0.3c-0.1,0-0.2,0-0.2,0c0,0.2,0,0.4,0,0.7 c0,0.4,0.1,0.8,0.4,0.9c0.3,0.1,0.4,0.3,0.4,0.4c0,0,0,0.1,0,0.1c-0.1,0-0.1,0-0.2,0s-0.2,0-0.2,0c0.1,0.4,0.1,0.8,0.2,1.2 c0.1,0.8,0,1.2-0.2,1.3c-0.2,0-0.3,0.4-0.3,1.1c0,0.7-0.1,1.1-0.2,1.2c-0.2,0.1-0.2,0.4-0.2,1.1c0,0.6,0.1,0.9,0.2,1 c0.1,0.1,0.3,0.3,0.4,0.8c0.1,0.4,0.2,0.7,0.4,0.7c0.1,0,0.1,0,0.2,0c-0.1,0.1-0.1,0.2-0.2,0.3c-0.2,0.2-0.2,0.5-0.2,0.9 c0,0.4,0.1,0.7,0.2,0.8c0.1,0.1,0.2,0.4,0.2,0.8c0,0.5-0.1,0.8-0.2,0.9c-0.2,0.1-0.2,0.5-0.2,1.1c0,0.6,0.1,0.9,0.2,1 c0.1,0.1,0.1,0.3,0,0.8c-0.1,0.5-0.1,0.7,0,0.8c0.1,0.1,0.1,0.2,0.1,0.5s0.1,0.5,0.2,0.6c0.1,0.1,0.2,0.3,0.2,0.7 c0,0.4-0.2,0.8-0.6,1.3c-0.4,0.5-0.6,1.4-0.5,2.7s0.2,2,0.4,2.2c0.2,0.1,0.3,0.6,0.3,1.3s-0.1,1.1-0.3,1.1s-0.3,0.3-0.3,0.8 s0.1,0.8,0.2,0.9c0.1,0.2,0.2,0.8,0.1,1.9c0,1.1,0,1.7,0.1,1.7c0.1,0.1,0.1,0.3,0.1,0.7c0,0.4,0.1,0.7,0.2,0.8 c0.1,0.1,0.2,0.3,0.1,0.5c-0.1,0.2,0,0.4,0.1,0.5c0.1,0.1,0.1,0.3-0.1,0.7c-0.2,0.4-0.3,0.8-0.3,1.2c0,0.4-0.1,0.7-0.1,0.8 c-0.1,0-0.1,0-0.2,0.1c0.1,0.1,0.1,0.2,0.2,0.3c0.1,0.2,0,0.4-0.2,0.5s-0.4,0.5-0.4,1s0.1,0.8,0.2,0.9c0.1,0.1,0.1,0.1,0.2,0.1 c-0.1,0.1-0.1,0.2-0.2,0.2c-0.2,0.1-0.2,0.5-0.2,1s0.1,0.8,0.2,0.8c0.1,0.1,0.1,0.4,0.1,1.1c0,0.6-0.1,1-0.1,1 c-0.1,0.1-0.2,0.3-0.2,0.7c-0.1,0.4-0.1,0.8,0,1.1c0.1,0.4,0.1,0.5,0.2,0.5c0.1,0,0.1,0,0.1,0c0,0.3,0,0.5,0,0.8 c0,0.5,0.1,0.8,0.2,1c0.1,0.2,0.1,0.6,0,1.3c-0.2,0.6-0.4,1.2-0.6,1.6s-0.3,0.6-0.2,0.8c0.1,0.1,0.1,0.4,0.1,1.1 c0,0.6,0.1,0.9,0.1,1c0.1,0.1,0.1,0.3,0.1,0.6c0,0.2-0.1,0.4-0.1,0.5c0.1,0,0.3,0,0.4,0s0.3,0,0.4,0c0,0.1-0.1,0.2-0.1,0.2 s-0.1,0.1-0.1,0.2c0.1,0,0.1,0,0.2,0.1c0.2,0.1,0.3,0.3,0.3,0.7c0,0.2,0.1,0.4,0.1,0.6c0.1-0.1,0.2-0.1,0.3-0.2 c0.2-0.2,0.6,0,1.1,0.5s0.8,0.9,0.8,1.1s0.3,0.3,0.6,0.4c0.3,0.1,0.5,0.2,0.6,0.4s0.2,0.3,0.5,0.4c0.3,0.1,0.5,0.3,0.8,0.6 c0.2,0.4,0.6,0.6,1.2,0.7c0.6,0.1,0.9,0.2,0.9,0.4c0,0.2,0.1,0.3,0.3,0.4c0.2,0.1,0.8,0.1,1.9,0.1c1.1,0,1.6-0.1,1.7-0.2 c0-0.1,0.1-0.1,0.1-0.2c0.1,0.1,0.1,0.2,0.1,0.2c0.1,0.1,0.4,0.3,1,0.3c0.3,0,0.6,0.1,0.8,0.1c0,0.1-0.1,0.1-0.1,0.1 c0,0.1-0.1,0.1-0.1,0.2c0.1,0,0.1-0.1,0.1-0.1c0.1,0,0.1-0.1,0.2-0.1c0,0.1,0,0.1,0.1,0.2c0.1,0.1,0.6,0.1,1.7,0.1 c0.6,0,1.1,0,1.7,0c0,0.1,0,0.2,0,0.2s0,0.1,0,0.2c0.2,0,0.4,0,0.6,0c0.4,0,0.7,0.1,0.8,0.3c0.1,0.2,0.4,0.3,0.8,0.2 c0.2-0.1,0.4-0.1,0.6-0.2c0,0.1-0.1,0.2-0.1,0.3s-0.1,0.2-0.1,0.3c0.3,0.1,0.5,0.3,0.8,0.4c0.5,0.3,1.1,0.3,1.8,0.2 c0.7-0.1,1.1-0.2,1.1-0.3c0.1-0.1,0.5-0.2,1.3-0.2s1.4,0.1,1.8,0.4c0.4,0.3,0.6,0.3,0.8,0.2c0.1-0.2,0.2-0.2,0.4-0.2 c0.1,0,0.4,0.2,0.7,0.5c0.3,0.4,0.6,0.5,0.9,0.4c0.1,0,0.3-0.1,0.4-0.1c0,0.1,0.1,0.2,0.1,0.3c0.1,0.2,0.3,0.3,0.8,0.3 s0.7-0.1,0.8-0.2c0.1-0.1,0.4-0.1,1,0c0.6,0.1,1,0.1,1.1,0c0.1-0.1,0.1-0.1,0.2-0.1c0.1,0.1,0.1,0.3,0.2,0.4c0.1,0.3,0.4,0.4,1,0.5 c0.6,0.1,0.9,0.2,1.1,0.4c0.2,0.2,0.6,0.3,1.3,0.3c0.7,0.1,1.1,0,1.2-0.1c0.1-0.2,0.3-0.3,0.8-0.3c0.4-0.1,1,0.2,1.8,0.7 c0.8,0.5,1.5,0.8,2,0.8s0.9,0,0.9,0.1c0,0.1,0.1,0.1,0.1,0.1c0,0,0.1-0.1,0.1-0.1c0.1-0.1,0.5-0.1,1.1-0.1c0.3,0,0.6,0,1,0 c0,0,0,0.1,0,0.1s0,0.1,0,0.1c0.3,0,0.6,0,0.9,0c0.6,0,1,0.1,1.2,0.2s0.4,0.2,0.5,0.2c0.1,0,0.1,0,0.2,0c0-0.1,0-0.2,0-0.2 s0-0.1,0-0.2c0.1,0,0.1,0,0.2,0c0,0,0.1,0,0.1,0c0,0.1,0,0.2,0,0.2s0,0.1,0,0.2c0.3,0,0.5,0,0.8,0c0.5,0,0.9-0.1,1.1-0.2 s0.4-0.2,0.8-0.1c0.3,0.1,0.7,0,1.1-0.3s1-0.5,1.7-0.7c0.7-0.1,1.2-0.4,1.6-0.9c0.3-0.4,0.5-0.8,0.5-0.9c0-0.1,0-0.1,0-0.2 c0.1,0,0.3,0,0.4,0s0.3,0,0.4,0c0-0.1,0-0.1,0-0.2c0-0.1,0.1-0.2,0.3-0.2s0.3-0.3,0.4-0.6c0.1-0.3,0.2-0.6,0.5-0.6 c0.3-0.1,0.6-0.3,0.8-0.6s0.4-0.9,0.5-1.7c0-0.8,0.2-1.3,0.4-1.4c0.2-0.2,0.3-0.4,0.3-0.6c0-0.1,0-0.3,0-0.4c0.1,0,0.1,0,0.2,0 c0.1,0,0.2-0.8,0.2-2.4c0.1-1.6,0.1-2.4,0.2-2.5s0.1-0.2,0.1-0.4s0.1-0.5,0.4-0.8s0.4-0.7,0.4-1.3c0-0.3,0-0.6,0-0.9 c0.1,0,0.1,0,0.2,0s0.1,0,0.1,0c0-0.2,0-0.4,0-0.6c0-0.4,0.1-0.6,0.2-0.7c0.1-0.1,0.1-0.2,0-0.5c-0.1-0.3-0.1-0.5,0.1-0.6 c0.1-0.1,0.3-0.6,0.4-1.4c0.1-0.9,0.2-1.3,0.3-1.4c0,0,0.1-0.1,0.1-0.1c-0.1-0.1-0.1-0.1-0.1-0.2c-0.1-0.1-0.1-0.1-0.2-0.2 c0.1,0,0.2,0,0.2,0c0.1,0,0.3-0.2,0.5-0.5c0.2-0.3,0.3-0.8,0.3-1.3s-0.1-0.8-0.1-1c-0.1-0.1-0.1-0.1-0.2-0.2c0.1,0,0.2-0.1,0.3-0.1 c0.2-0.1,0.3-0.3,0.3-0.8s0.1-0.8,0.2-0.9c0.2-0.1,0.2-0.6,0.2-1.4c-0.1-0.8,0.1-1.3,0.3-1.4c0.3-0.2,0.4-0.4,0.4-0.6 s0-0.6-0.2-1.1c-0.1-0.2-0.1-0.4-0.2-0.7c0.1,0,0.1,0,0.2,0c0.1,0,0.2,0,0.2,0c0-0.3,0-0.6,0-1c0-0.7,0.1-1.1,0.3-1.4 s0.3-0.8,0.3-1.4c0-0.3,0-0.6,0-0.9c0,0,0.1,0,0.1,0s0.1,0,0.1,0c0-0.1-0.1-0.1-0.1-0.2c-0.1-0.1,0-0.4,0.2-0.7 c0.3-0.3,0.4-0.7,0.4-1.3c0-0.3,0-0.6,0-0.8c0.1,0,0.3,0.1,0.4,0.1c0.1,0,0.3,0.1,0.4,0.1c-0.1,0-0.2-0.1-0.2-0.1 c-0.1-0.1-0.2-0.3-0.2-0.6c0-0.3,0.1-0.5,0.2-0.6c0.1-0.1,0.2-0.6,0.2-1.4s0-1.3,0.1-1.4c0.1,0,0.1,0,0.1-0.1 c0-0.1-0.1-0.2-0.1-0.3c-0.1-0.2-0.1-0.4-0.1-0.6c0-0.1,0-0.2,0-0.3c0,0,0.1,0,0.1,0s0.1,0,0.1,0c0-0.2-0.1-0.4-0.1-0.7 c-0.1-0.4-0.1-0.8,0.1-1c0.2-0.2,0.2-0.4,0.2-0.5c0-0.1-0.1-0.1-0.1-0.2c0.1,0,0.2,0,0.2,0c0.1,0,0.3-0.2,0.5-0.5 c0.2-0.3,0.3-0.7,0.2-1.1c-0.1-0.4-0.1-0.7,0.1-0.9s0.3-0.5,0.3-0.9c0-0.4,0.1-0.6,0.2-0.8c0.1-0.1,0.2-0.3,0.2-0.6 s0.1-0.6,0.3-0.8s0.3-0.4,0.4-0.8s0.1-0.8,0-1.6s-0.2-1.2-0.4-1.4s-0.3-0.5-0.4-0.8c-0.1-0.4,0-0.6,0.1-0.8c0.2-0.2,0.2-0.5,0.1-1 c-0.1-0.3-0.1-0.5-0.2-0.8c0.1,0,0.3,0.1,0.4,0.1c0.3,0.1,0.5-0.1,0.8-0.5c0.3-0.4,0.5-0.9,0.5-1.7c0.1-0.7,0-1.3-0.2-1.7 c-0.1-0.4-0.1-0.9,0.1-1.3c0.2-0.4,0.3-0.7,0.2-1s0-0.4,0.1-0.4c0.1,0,0.1-0.1,0.2-0.1c-0.1-0.1-0.1-0.2-0.2-0.3 c-0.1-0.2-0.1-0.5,0-1c0.1-0.4,0.1-0.7,0-0.8c-0.1-0.1-0.2-0.3-0.2-0.8s0.3-1.4,1.1-2.7c0.8-1.3,1.1-2.2,1.2-2.7s0-1-0.2-1.6 c-0.2-0.5-0.3-1.1-0.2-1.6c0-0.6,0.3-1,0.6-1.4c0.4-0.4,0.5-0.8,0.5-1.1c0-0.3,0.1-0.5,0.4-0.6s0.4-0.5,0.4-1.1s0-1,0.1-1 c0.1-0.1,0.1-0.2,0.1-0.5s0-0.4-0.1-0.4c-0.1-0.1-0.1-0.6-0.1-1.5c0-1,0.1-1.5,0.2-1.5c0.2-0.1,0.3-0.4,0.3-1 c0.1-0.6,0.1-0.9,0.2-1c0.1,0,0.1-0.8,0-2.3c-0.1-0.8-0.1-1.5-0.2-2.3c0.1,0,0.3,0,0.4,0c0.3,0,0.4-0.3,0.6-0.8 c0.1-0.6,0.1-1.2,0-1.8c-0.2-0.7-0.2-1-0.1-1.1c0.1,0,0.1-0.4,0.1-1s0.1-0.9,0.1-1c0.1-0.1,0.2-0.6,0.2-1.7c0-1,0.1-1.6,0.2-1.7 c0.2-0.1,0.2-0.3,0.2-0.5c0-0.1,0-0.3,0-0.4c0.1,0,0.1,0,0.1,0c0.1,0,0.2-0.5,0.4-1.6c0.2-1.1,0.2-2.3,0.2-3.9c0-0.8,0-1.6,0-2.3 c0.1,0,0.1,0,0.1,0c0.1,0,0.1,0,0.2,0c-0.1-0.1-0.1-0.2-0.2-0.2c0-0.1-0.1-0.1-0.1-0.2c0.1,0,0.1,0,0.2-0.1c0.1,0,0.1-0.1,0.2-0.1 c0-0.1-0.1-0.1-0.1-0.2c-0.1-0.2,0-0.3,0.1-0.4c0.2-0.1,0.2-0.3,0.2-0.6s0.1-0.8,0.4-1.4c0.3-0.6,0.4-1.1,0.3-1.4 c-0.1-0.3,0-0.7,0.2-1.1s0.3-0.8,0.2-1.3c-0.1-0.3-0.1-0.5-0.1-0.8c0.1,0.1,0.2,0.1,0.3,0.2c0.1,0,0.2,0.1,0.3,0.2 c0.1-0.1,0.1-0.3,0.2-0.4c0.1-0.3,0.1-0.6,0.1-1.1s0.1-0.9,0.4-1.3c0.3-0.5,0.4-0.8,0.3-1.1c-0.1-0.3-0.1-0.4,0.1-0.6 s0.3-0.5,0.3-1.1c0.1-0.5,0-0.9-0.1-1.2c-0.1-0.3-0.1-0.5,0.1-0.8c0.1-0.3,0.1-0.6,0-1.1c-0.1-0.2-0.2-0.4-0.2-0.7 c0.1,0,0.3,0,0.4,0s0.3,0,0.4,0c0-0.3,0-0.7,0-1c0-0.6-0.1-1.1-0.3-1.5c-0.1-0.2-0.2-0.4-0.3-0.5c0,0,0.1,0,0.1,0 c0.1,0,0.2-0.2,0.4-0.7c0.1-0.4,0.2-0.8,0.1-1.2c0-0.4-0.1-0.5-0.2-0.5c-0.1,0-0.1,0-0.2,0c0-0.1,0-0.3,0-0.4s0-0.3,0-0.4 c0.1,0,0.1,0,0.2,0s0.1,0,0.1,0c-0.1-0.1-0.1-0.3-0.1-0.4c-0.1-0.3-0.1-0.4,0-0.5c0.1,0,0.1-0.5,0.1-1.2s0.1-1.2,0.2-1.3 c0.1-0.1,0.2-0.4,0.2-0.8c0-0.4-0.1-0.7-0.2-0.9c-0.2-0.2-0.2-0.5-0.1-0.9c0-0.2,0.1-0.4,0.1-0.6c-0.1,0-0.1,0-0.1,0 c-0.1,0-0.2-0.3-0.3-0.9c-0.1-0.6-0.3-1-0.5-1.1c-0.3-0.1-0.4-0.2-0.4-0.3c0,0,0-0.1,0-0.1c0.1,0,0.3,0,0.4,0s0.3,0,0.4,0 c0-0.1,0-0.2,0-0.2c0-0.1,0-0.3-0.1-0.3s-0.2-0.3-0.2-0.8c0-0.5-0.2-0.8-0.4-1c-0.2-0.3-0.3-0.7-0.1-1.2c0.1-0.3,0.1-0.5,0.1-0.8 c-0.1,0-0.1,0-0.2,0c-0.2,0-0.3-0.3-0.4-0.9c-0.1-0.6-0.3-1-0.7-1.1c-0.4-0.1-0.5-0.3-0.5-0.5s-0.3-0.7-0.8-1.2 c-0.5-0.5-0.9-0.8-1.1-0.9c-0.2,0-0.3-0.3-0.4-0.6c-0.1-0.3-0.4-0.6-1-0.7c-0.6-0.1-0.9-0.3-0.9-0.5s-0.3-0.3-0.6-0.4 c-0.4,0-0.6-0.1-0.6-0.2c-0.1-0.1-0.4-0.1-0.9,0c-0.6,0.1-1,0-1.2-0.2s-0.5-0.3-0.8-0.3s-0.6-0.2-0.8-0.6c-0.3-0.4-0.5-0.6-0.8-0.5 s-0.6-0.1-1-0.5c-0.4-0.3-0.8-0.4-1.2-0.2c-0.4,0.2-0.7,0.2-0.9,0c-0.2-0.2-0.6-0.3-1.1-0.2s-0.9,0.1-0.9-0.1 c0-0.1-0.3-0.2-0.7-0.2c-0.4,0-0.7-0.1-0.8-0.3c-0.1-0.2-0.3-0.3-0.5-0.2c-0.1,0-0.3,0.1-0.4,0.2c-0.1-0.1-0.1-0.3-0.1-0.4 c-0.1-0.3-0.3-0.4-0.6-0.4s-0.5-0.1-0.5-0.2s-0.2-0.1-0.5,0c-0.3,0.1-0.5,0.1-0.5,0s-0.4-0.2-1.1-0.2c-0.6,0-1,0-1.1-0.1 c0-0.1-0.3-0.2-0.8-0.2c-0.4,0-0.8,0.1-1,0.3c-0.1,0.1-0.2,0.2-0.3,0.3c0-0.1,0.1-0.2,0.1-0.3c0-0.1,0.1-0.2,0.1-0.3 c-0.1,0-0.3,0-0.4-0.1c-0.3,0-0.8,0.1-1.6,0.3c-0.4,0.1-0.9,0.3-1.3,0.4c0-0.1-0.1-0.2-0.1-0.3c0-0.2-0.3-0.3-0.9-0.3 s-0.9-0.1-1-0.2c0-0.1-0.1-0.2-0.1-0.2c-0.1,0.1-0.1,0.1-0.2,0.2c-0.1,0-0.1,0.1-0.2,0.2c0-0.1,0-0.1,0-0.2c0-0.1-0.2-0.3-0.6-0.5 c-0.4-0.2-0.8-0.2-1.2,0s-0.7,0.2-0.9,0c-0.2-0.2-0.5-0.3-1-0.2s-0.7,0.1-0.8,0.3s-0.3,0.3-0.8,0.5c-0.5,0.1-1.1,0.2-1.7,0.1 c-0.6,0-1.1-0.2-1.3-0.4s-0.6-0.4-1-0.3c-0.4,0.1-0.6,0-0.8-0.1c-0.1-0.1-0.3-0.1-0.5,0.1c-0.1,0.1-0.3,0.2-0.4,0.3 c-0.1-0.1-0.1-0.3-0.2-0.4c-0.1-0.3-0.6-0.4-1.6-0.4s-1.6,0.1-1.7,0.2c-0.1,0.1-0.3,0.2-0.5,0.2c-0.1,0-0.3,0-0.4,0 c0.1-0.1,0.1-0.1,0.2-0.2c0.1-0.1,0.1-0.2,0.2-0.2c-0.4,0-0.8,0-1.1,0c-0.8,0-1.1,0-1.2-0.1c-0.1-0.1-0.3-0.1-0.7,0 c-0.4,0.1-0.7,0-0.8-0.2s-0.8-0.4-1.8-0.4c-0.5,0-1.1,0-1.6,0c0,0.1,0,0.2,0,0.2s0,0.1,0,0.2c-0.1,0-0.1,0-0.1,0 c-0.1,0-0.3-0.1-0.5-0.4c-0.2-0.3-0.5-0.4-0.9-0.4S181.8,32.9,181.6,33.2z M117.5,51.7c-0.4,0.2-0.7,0.3-0.9,0.1 c-0.2-0.1-0.4,0-0.6,0.2c-0.2,0.3-0.7,0.4-1.6,0.5c-0.8,0.1-1.3,0.2-1.3,0.3c-0.1,0.1-0.5,0.2-1.3,0.4c-0.8,0.1-1.3,0.3-1.5,0.4 c-0.2,0.2-1.2,0.3-3,0.3c-1.8,0-2.9,0.3-3.4,0.7c-0.4,0.4-1,0.6-1.7,0.5c-0.7,0-1.1,0-1.2,0.2c-0.1,0.2-0.3,0.2-0.5,0.2 s-0.4,0.1-0.5,0.4s-0.3,0.4-0.5,0.5s-0.5,0.1-0.8,0c-0.3-0.1-0.7,0-1.1,0.4s-0.9,0.5-1.7,0.4c-0.7-0.1-1.3,0-1.9,0.2 c-0.5,0.3-1,0.3-1.3,0.2c-0.2-0.1-0.3-0.2-0.5-0.2c0,0.1,0.1,0.1,0.1,0.2s0,0.2,0.1,0.2c-0.1,0-0.2,0-0.3,0c-0.2,0-0.6,0.2-1.1,0.5 s-0.8,0.4-1,0.3c-0.2-0.1-0.4,0-0.8,0.4c-0.3,0.4-0.6,0.5-0.8,0.4c-0.1,0-0.2-0.1-0.3-0.1c0,0-0.1,0.1-0.1,0.1 c0,0.1-0.3,0.2-0.7,0.2s-0.7-0.1-0.8-0.3c-0.1-0.2-0.6-0.3-1.3-0.2c-0.8,0.1-1.2,0.3-1.4,0.5c-0.2,0.2-0.4,0.3-0.7,0.3 c-0.1,0-0.3,0-0.4,0c0,0.1,0,0.2,0,0.2c0,0.1,0,0.1,0,0.2c-0.2,0-0.3,0-0.4,0c-0.3,0-0.5,0.1-0.6,0.4c-0.1,0.3-0.4,0.4-0.8,0.4 s-0.8,0.1-1,0.3c-0.2,0.2-1,0.2-2.3,0c-0.7-0.1-1.3-0.2-2-0.3c0,0,0,0.1,0,0.2c0,0.1-0.3,0.3-0.8,0.5c-0.5,0.3-1,0.3-1.3,0.2 c-0.3-0.1-0.6-0.1-0.8,0.1c-0.1,0.1-0.2,0.2-0.2,0.3c-0.1,0-0.1-0.1-0.2-0.1c-0.1-0.1-0.4,0-0.9,0.1c-0.5,0.2-0.9,0.3-1.1,0.2 s-0.7,0-1.2,0.4c-0.6,0.3-1,0.5-1.2,0.5s-0.5,0.1-0.8,0.4s-0.5,0.3-0.8,0.3c-0.3,0-0.5,0-0.5,0.2s-0.2,0.2-0.3,0.2 c-0.1,0-0.4,0.2-0.9,0.7c-0.5,0.4-0.7,0.8-0.7,0.9c0,0.1,0,0.2,0,0.2c-0.1,0-0.1,0-0.2,0c-0.2,0-0.3,0.2-0.4,0.6s-0.4,0.8-0.8,1.1 c-0.5,0.3-0.7,1-0.8,2c0,1-0.1,1.6-0.2,1.8c0,0.1-0.1,0.2-0.2,0.2c0.1,0,0.2,0,0.2,0c0.1,0,0.1,0,0.2,0c0,0.2,0,0.4,0,0.6 c0,0.4,0.1,0.7,0.3,0.8s0.3,0.9,0.3,2.4c0,1.4,0.1,2.5,0.4,3.1s0.3,1,0.2,1.1c-0.1,0.2-0.1,0.3,0,0.5c0.1,0.2,0.2,0.3,0.4,0.3 c0.1,0,0.1,0,0.2,0c-0.1,0.3-0.1,0.5-0.2,0.8c-0.2,0.5-0.2,0.8-0.1,0.8s0.2,0.4,0.2,1.2s0.1,1.2,0.2,1.4c0.2,0.1,0.3,0.6,0.5,1.4 c0.2,0.8,0.3,1.6,0.3,2.3c0,0.4,0,0.8,0,1.1c0,0-0.1,0-0.2,0c0,0-0.1,0-0.1,0c0,0.1,0,0.2,0,0.3s0,0.2,0,0.3c0,0,0.1,0,0.1,0 c0.1,0,0.2,0.3,0.4,0.8c0.2,0.5,0.4,0.8,0.6,1c0.3,0.2,0.3,0.4,0.2,0.6c-0.1,0.2-0.1,0.4-0.1,0.7c0.1,0.3,0,0.4-0.1,0.5 c-0.1,0-0.2,0.4-0.2,1.1c0,0.3,0,0.7,0,1c0.1,0,0.2,0,0.2,0c0.1,0,0.2,0,0.2,0c0,0.1-0.1,0.3-0.1,0.4c0,0.3,0,0.4,0.2,0.5 s0.3,0.3,0.4,0.8c0.2,0.4,0.2,1,0.2,1.9s0.1,1.4,0.4,1.8c0.3,0.3,0.5,0.7,0.5,1c0,0.3,0.1,0.5,0.2,0.6s0.2,0.3,0.2,0.5 c0,0.1-0.1,0.3-0.1,0.4c0.1,0,0.2,0,0.2,0c0.1,0,0.2,0,0.2,0c-0.1,0.1-0.2,0.2-0.2,0.2c-0.1,0.2-0.1,0.5,0.2,1 c0.3,0.5,0.4,1.5,0.2,3s-0.2,2.3,0,2.5c0.2,0.2,0.3,0.8,0.3,2c0.1,1.2,0.2,1.8,0.3,1.9s0.3,0.4,0.3,1c0,0.6,0.1,0.8,0.2,0.9 c0.1,0,0.1,0.3,0,0.8c-0.1,0.4-0.1,0.7,0,0.8c0.1,0,0.2,0.4,0.3,1.1c0.1,0.7,0.2,1.1,0.4,1.3c0.2,0.1,0.2,0.3,0.2,0.5 c0,0.2,0.1,0.4,0.3,0.7s0.5,0.7,0.8,1.2c0.3,0.6,0.4,0.9,0.4,1.1c0,0.2-0.1,0.5-0.4,0.8c-0.3,0.3-0.4,0.8-0.4,1.4 c0,0.6,0,0.9,0.2,1c0.1,0.1,0.2,0.4,0.2,1.1c0,0.7,0.2,1.2,0.4,1.4c0.2,0.2,0.4,0.3,0.5,0.1c0.1,0,0.1-0.1,0.2-0.1 c0,0.1-0.1,0.2-0.1,0.3c0,0.2,0,0.3,0.2,0.4s0.2,0.5,0.2,1.3c0,0.4,0,0.8,0,1.1c0.1,0,0.1,0,0.2,0c0.1,0,0.1,0,0.2,0 c-0.1,0.1-0.1,0.3-0.2,0.4c-0.1,0.3,0,0.6,0.2,0.9c0.3,0.3,0.4,0.8,0.4,1.5c0,0.6,0.1,1,0.2,1.1c0.1,0,0.2,0.4,0.2,1 c0,0.7,0.1,1,0.2,1.1s0.1,0.6,0,1.6s-0.1,1.7,0.1,2c0.2,0.3,0.3,0.6,0.5,0.7c0.2,0.1,0.3,0.3,0.4,0.8c0.1,0.4,0.3,0.8,0.6,1.2 c0.3,0.4,0.5,0.9,0.5,1.5c-0.1,0.6,0,1.1,0.1,1.4c0.2,0.3,0.2,0.6,0.2,0.9c0,0.1,0,0.3,0,0.4c-0.1,0-0.1,0-0.2,0 c-0.1,0-0.1,0-0.2,0c0,0.1,0,0.3,0,0.4c0,0.3,0.1,0.5,0.2,0.5c0.1,0,0.1,0.4,0.1,1.1c0,0.7,0,1.3,0,1.6c0.1,0.4,0.2,0.7,0.4,0.9 c0.2,0.2,0.3,0.6,0.2,1.1s0,1,0.4,1.6c0.3,0.6,0.5,1,0.5,1.3s0.2,0.7,0.6,1.3s0.6,1.2,0.6,2c0,0.8,0.1,1.3,0.3,1.6 c0.2,0.3,0.3,0.7,0.2,1.3c-0.1,0.3-0.1,0.7-0.2,1c0,0,0.1,0,0.2,0c0.1,0,0.2,0.1,0.2,0.3c0,0.2,0,0.5-0.2,0.9 c-0.2,0.4-0.3,0.9-0.2,1.4c0.1,0.5,0.2,1,0.5,1.4c0.3,0.4,0.4,0.8,0.4,1s0.2,0.5,0.5,0.8c0.3,0.3,0.5,0.5,0.4,0.7 c-0.1,0.2,0.1,0.5,0.3,1.1s0.4,1,0.4,1.3c0,0.3,0.2,0.7,0.5,1.1c0.4,0.4,0.6,0.7,0.8,0.7c0.1,0,0.2,0,0.2,0c0,0.2,0,0.4,0,0.5 c0,0.3-0.1,0.6-0.2,0.6c-0.1,0.1-0.2,0.4-0.2,1.1c0,0.7,0.1,1.2,0.2,1.4s0.1,0.4,0,0.5c-0.1,0.1-0.1,0.2-0.2,0.2 c0.1,0.1,0.3,0.1,0.4,0.2c0.3,0.1,0.3,0.5,0.2,1.2c-0.1,0.3-0.2,0.6-0.2,1c0,0,0.1,0,0.1,0c0.1,0,0.2,0.4,0.4,1.1 c0.2,0.8,0.3,1.2,0.5,1.4c0.2,0.1,0.3,0.3,0.2,0.4c-0.1,0.1-0.1,0.2-0.2,0.2c0.1,0,0.1,0,0.2,0c0.1,0,0.2,0.2,0.4,0.5 c0.2,0.4,0.2,0.6,0.1,0.8c-0.1,0.2,0,0.4,0.2,0.5c0.2,0.1,0.3,0.3,0.2,0.6c0,0.3,0,0.4,0.2,0.5c0.2,0.1,0.3,0.5,0.3,1.2 c0,0.7,0.3,1.2,0.6,1.5s0.7,0.8,1,1.4c0.3,0.6,0.4,1,0.3,1.2s0,0.4,0.2,0.6c0.3,0.2,0.4,0.4,0.4,0.5c0,0.1,0.1,0.3,0.4,0.4 c0.3,0.1,0.6,0.4,1.1,1.1c0.4,0.6,0.9,1,1.3,1.1c0.4,0.1,0.7,0.3,0.8,0.6c0.1,0.3,0.4,0.4,0.8,0.4c0.4,0,0.8,0.1,1.1,0.2 c0.3,0.1,0.8,0.2,1.3,0.1s1-0.2,1.3-0.4s0.4-0.4,0.5-0.4c0,0,0.1,0,0.2,0c0,0.1,0,0.1,0,0.2c0,0.1,0,0.1,0,0.2c0.1,0,0.1,0,0.2,0 c0.2,0,0.3-0.1,0.4-0.4s0.3-0.4,0.5-0.5c0.3-0.1,0.4-0.3,0.4-0.5c0-0.1,0-0.3,0-0.4c0.5,0.1,1,0.1,1.6,0.2c1.1,0.1,1.7,0.1,1.9-0.2 c0.3-0.2,0.7-0.3,1.4-0.3s1.3-0.2,1.7-0.6c0.5-0.4,0.9-0.6,1.3-0.6s0.6,0,0.7-0.1c0-0.1,0.4-0.2,1-0.2c0.6,0,0.9,0,1,0.2 c0,0.1,0.1,0.1,0.1,0.2c0.2-0.1,0.4-0.3,0.5-0.4c0.3-0.3,0.8-0.4,1.5-0.4s1,0,1.1-0.1c0-0.1,0.3-0.1,0.6-0.1c0.2,0,0.3,0,0.5,0 c0-0.1,0-0.1,0-0.2s0-0.1,0-0.1c0,0.1,0.1,0.1,0.2,0.1c0,0.1,0.1,0.1,0.1,0.2c0.1-0.1,0.1-0.1,0.2-0.2c0.1-0.1,0.5-0.1,1.1-0.1 s1.1-0.1,1.3-0.2c0.3-0.1,0.5-0.2,0.8-0.1c0.3,0.1,0.6,0,0.8-0.2c0.3-0.1,0.6-0.2,0.9-0.2c0.2,0,0.3,0,0.5,0c0-0.1,0-0.1,0-0.2 c0,0,0-0.1,0-0.1c0.4,0.1,0.8,0.1,1.3,0.1c0.4,0.1,0.8,0.1,1.3,0.2c0-0.1,0-0.1,0-0.2c0,0,0-0.1,0-0.1c0.2,0,0.4,0,0.5,0 c0.3,0,0.6-0.1,0.7-0.2c0.1-0.1,0.7-0.4,1.7-0.8c1-0.3,1.7-0.7,2.2-1c0.5-0.4,0.7-0.7,0.8-0.9c0.1-0.3,0.3-0.4,0.5-0.4 c0.1,0,0.3,0,0.4,0c0-0.1,0-0.1,0-0.1c0-0.1,0.1-0.2,0.4-0.3s0.5-0.5,0.8-1.1s0.5-1.1,0.7-1.3c0.1-0.1,0.2-0.2,0.3-0.3 c0.1,0.1,0.1,0.1,0.2,0.2c0.1,0.1,0.2,0.2,0.2,0.2c0-0.1-0.1-0.3-0.1-0.4c-0.1-0.3,0-0.5,0.1-0.6c0.1-0.1,0.2-0.3,0.2-0.5 s0.1-0.6,0.4-1.1s0.4-0.9,0.4-1.3c0-0.4,0.1-0.7,0.3-1c0.2-0.3,0.3-0.5,0.3-0.7s0.1-0.4,0.4-0.6c0.3-0.2,0.4-0.4,0.4-0.7 s0.1-0.6,0.4-0.9c0.3-0.3,0.4-0.7,0.4-1c0-0.4-0.1-0.6-0.2-0.6c-0.2-0.1-0.2-0.4-0.2-1c0-0.6-0.1-0.9-0.1-1c-0.1,0-0.1-0.1-0.2-0.1 c0.1-0.1,0.1-0.1,0.2-0.2c0.1-0.1,0.1-0.2,0-0.4c-0.1-0.1-0.2-0.5-0.2-1s0.1-0.9,0.2-1.1s0.2-0.5,0.2-0.8c0-0.1,0-0.3,0-0.4 c-0.1,0-0.1,0-0.2,0s-0.1,0-0.1,0c0.1-0.6,0.1-1.2,0.1-1.8c0.1-1.2,0.2-1.8,0.3-1.9c0.1,0,0.1-0.1,0.1-0.1c0-0.1-0.1-0.2-0.1-0.3 c-0.1-0.2-0.1-0.4,0.1-0.7c0.2-0.3,0.3-0.4,0.2-0.6c-0.1-0.1-0.1-0.1-0.2-0.2c0.1,0,0.1,0,0.2,0c0.1,0,0.2-0.5,0.2-1.6 c0.1-1.1,0-1.7-0.1-2s-0.2-0.5-0.2-0.8c0-0.1,0-0.3,0-0.4c0.1,0,0.1,0,0.2,0s0.1,0,0.1,0c-0.1-0.1-0.1-0.1-0.1-0.2 s-0.1-0.2-0.2-0.2c0.1,0,0.1-0.1,0.2-0.1c0.1-0.1,0.1-0.5,0.1-1.4c0-0.9,0.1-1.4,0.2-1.4c0.1,0,0.1-0.4,0-1c-0.1-0.6-0.1-0.9,0.1-1 c0.1,0,0.1-0.1,0.2-0.1c-0.1,0-0.1,0-0.2,0s-0.2,0-0.2,0c0-0.7,0.1-1.4,0.1-2.1c0.1-1.4,0-2.4-0.3-3.1s-0.3-1.1-0.2-1.2 c0.2-0.1,0.2-0.2,0.2-0.4c0-0.1-0.1-0.2-0.1-0.2c0.1,0,0.1,0,0.2,0s0.1,0,0.1,0c-0.1-0.1-0.1-0.1-0.1-0.2c-0.1-0.1-0.1-0.2-0.2-0.2 c0.1,0,0.2,0,0.2,0s0.1,0,0.2,0c0-0.8-0.1-1.6-0.1-2.4c0-1.6,0-2.5,0.2-2.6c0.1-0.2,0.2-0.3,0.1-0.5c-0.1-0.1-0.1-0.4,0-0.7 c0.1-0.3,0.1-1,0.1-2.1s0-1.7-0.1-1.7c-0.1,0-0.1-0.4-0.1-1c0.1-0.6,0-0.9-0.1-1c-0.1-0.1-0.2-1-0.2-2.8s0.1-2.8,0.2-2.9 c0.1-0.1,0.2-0.3,0.1-0.6c-0.1-0.3-0.1-0.6,0.1-0.8c0.2-0.3,0.3-0.8,0.2-1.6c-0.1-0.8-0.2-1.4-0.4-1.7c-0.2-0.3-0.2-0.9-0.2-1.9 c0.1-1.1,0-1.8-0.1-2.1c-0.1-0.4-0.2-0.6-0.2-0.8c0-0.1,0-0.2,0-0.2c0.1,0,0.1,0,0.2,0s0.1,0,0.1,0c-0.1-0.2-0.1-0.4-0.1-0.6 c-0.1-0.4-0.1-0.7,0.1-0.8s0.2-0.3,0.1-0.4c0-0.2-0.1-0.3-0.2-0.3c-0.1,0-0.1,0-0.2,0c0-0.2,0-0.3,0-0.4c0-0.3,0.2-0.7,0.5-1.2 c0.3-0.5,0.6-1.2,0.8-2.1c0.1-0.9,0.1-1.6,0-2c-0.2-0.4-0.3-0.8-0.5-0.9c-0.2-0.2-0.3-0.6-0.3-1.4s-0.1-1.5-0.4-2.1s-0.3-1-0.2-1.1 s0.1-0.3,0-0.8s-0.1-0.7,0.1-0.8c0.2-0.2,0.3-0.8,0.4-1.8c0.1-1,0.2-1.7,0.5-1.9c0.1-0.1,0.3-0.2,0.4-0.3c-0.1,0-0.2,0-0.2,0 s-0.1,0-0.2,0c0.1-0.1,0.1-0.1,0.2-0.2c0.1-0.1,0.1-0.6,0-1.6c-0.1-0.9-0.3-1.5-0.4-1.8c-0.2-0.3-0.3-0.8-0.2-1.6 c0.1-0.8,0.1-1.3,0.3-1.5c0.1-0.2,0.2-0.6,0.2-1.3c0-0.7,0-1-0.1-1.1s-0.1-0.3,0-0.8s0-1-0.4-1.7s-0.5-1.2-0.5-1.5s0.1-0.6,0.3-0.8 c0.2-0.2,0.3-0.4,0.4-0.8c0.1-0.4,0.1-0.6,0.2-0.7c0.1,0,0.1-0.4,0.1-1.2s0-1.2-0.1-1.2c-0.1,0-0.1-0.2,0-0.5 c0.1-0.3,0.1-0.5,0-0.7s-0.2-0.2-0.4-0.2c-0.1,0-0.1,0.1-0.2,0.1c0.1-0.1,0.1-0.1,0.2-0.2c0.1-0.1,0.1-0.4,0.1-0.8 c0-0.2,0-0.4,0-0.7c-0.1,0-0.1,0-0.2,0.1c-0.1,0-0.2,0.1-0.2,0.1c0.1-0.1,0.2-0.3,0.3-0.4c0.2-0.3,0.3-0.6,0.3-1 c0-0.4,0-0.6,0.1-0.7c0.1-0.1,0.1-0.3,0.1-0.6c0-0.4,0-0.6-0.1-0.6c-0.1,0-0.1-0.3,0-0.6s0.1-0.5-0.1-0.6c-0.2-0.1-0.2-0.2-0.2-0.4 c0.1-0.3,0-0.5-0.3-0.8c-0.3-0.3-0.4-0.7-0.4-1.3c0-0.3,0-0.5,0-0.8c0.1,0,0.1,0,0.2,0s0.2,0,0.2,0c0-0.1,0-0.1,0-0.2 c0-0.1,0-0.3-0.1-0.8c-0.1-0.4-0.1-0.6-0.2-0.7c-0.1-0.1-0.2-0.5-0.2-1.4c0-0.8,0-1.3,0.2-1.5c0.1-0.1,0.1-0.1,0.2-0.2 c0,0-0.1-0.1-0.1-0.2c-0.1-0.1-0.1-0.2-0.1-0.4c0-0.1,0-0.1,0-0.2c0,0,0.1,0,0.1,0s0.1,0,0.1,0c0-0.4-0.1-0.8-0.1-1.1 c-0.1-0.8,0-1.5,0.4-2.3s0.5-1.1,0.4-1.2c-0.1-0.1-0.2-0.6-0.4-1.7c-0.1-1-0.4-1.7-0.8-2c-0.4-0.3-0.5-0.7-0.5-1.1 c0-0.4-0.1-0.8-0.4-1.1c-0.3-0.3-0.4-0.6-0.4-1c0-0.2,0-0.3,0-0.5c-0.1,0-0.1,0-0.2,0c-0.1,0-0.2-0.2-0.3-0.5 c-0.1-0.4-0.3-0.6-0.5-0.8s-0.4-0.4-0.4-0.6c-0.1-0.2-0.2-0.3-0.4-0.4c-0.2-0.1-0.4-0.2-0.5-0.5c-0.1-0.3-0.6-0.5-1.4-0.6 c-0.9-0.1-1.4-0.3-1.6-0.6c-0.2-0.3-0.7-0.4-1.3-0.4s-1.1,0-1.1-0.2c-0.1-0.1-0.2-0.1-0.4-0.1s-0.4,0-0.5,0.1c0,0.1-0.3,0.1-0.8,0 c-0.4-0.1-0.7-0.1-0.8,0c-0.1,0.1-0.1,0.1-0.2,0.2c0,0-0.1-0.1-0.1-0.2c-0.1-0.1-0.3-0.1-0.7-0.1c-0.2,0-0.4,0-0.6,0 c0,0,0-0.1,0-0.2s0-0.1,0-0.1c-0.4,0-0.8,0-1.1,0C118.5,51.4,117.9,51.5,117.5,51.7z M165.9,205.6c-0.1,0.1-0.2,0.1-0.4,0.1 s-0.5,0-0.8,0.1c-0.3,0.2-0.4,0.3-0.4,0.4c0,0.1,0,0.1,0,0.2c-0.3-0.1-0.5-0.1-0.8-0.2c-0.5-0.1-1,0-1.4,0.4 c-0.4,0.4-0.8,0.5-1.1,0.4c-0.3-0.1-0.7,0.1-1.2,0.5c-0.5,0.4-0.8,0.7-1,0.7c-0.2,0-0.3,0.1-0.4,0.4c-0.1,0.3-0.3,0.4-0.5,0.4 c-0.2,0-0.4,0.2-0.8,0.7c-0.3,0.4-0.4,0.8-0.3,1c0,0.1,0.1,0.2,0.1,0.3c-0.1,0-0.3-0.1-0.4-0.1c-0.3,0-0.4,0-0.6,0.2 c-0.1,0.2-0.2,0.4-0.1,0.5c0,0.1,0.1,0.2,0.1,0.2c-0.1,0-0.1,0-0.2,0c-0.1,0-0.2,0-0.2,0c0,0.4,0.1,0.9,0.1,1.3 c0.1,0.9-0.1,1.6-0.5,2.2c-0.4,0.6-0.6,1.3-0.5,1.9c0.1,0.7,0,1.3-0.1,1.7c-0.1,0.2-0.1,0.4-0.2,0.7c0.1,0,0.2,0,0.2,0s0.1,0,0.2,0 c0,0.1,0,0.3,0,0.4s0,0.3,0,0.4c-0.1,0-0.2,0-0.2,0s-0.1,0-0.2,0c0,0.1,0,0.1,0,0.1s0,0.1,0,0.2c0.1,0,0.1,0,0.2,0 c0.1,0,0.2,0.4,0.2,1.3c0.1,0.9,0,1.4-0.1,1.8c-0.1,0.3-0.3,0.5-0.4,0.5c-0.1,0-0.1,0-0.1,0c0.1,0.1,0.1,0.2,0.2,0.3 c0.2,0.2,0.1,0.6-0.2,1.3c-0.3,0.7-0.4,1.3-0.4,1.9c0,0.6,0.2,0.9,0.4,1c0.1,0,0.2,0.1,0.3,0.1c0,0.1-0.1,0.2-0.1,0.2 c-0.1,0.1-0.1,0.5-0.1,1c0,0.3,0,0.5,0,0.8c0.1,0,0.1,0,0.2,0s0.2,0,0.2,0c0,0.2,0,0.3,0,0.5c0,0.3-0.2,0.9-0.6,1.9 c-0.4,0.9-0.6,1.6-0.4,2.1s0,0.9-0.2,1.3c-0.3,0.4-0.4,0.9-0.4,1.6s0.1,1.2,0.4,1.4s0.4,1,0.4,2.2c0,1.2,0.1,1.9,0.2,2.2 s0.1,0.5-0.1,0.8s-0.4,0.5-0.4,0.7c0,0.1,0,0.2,0,0.3c-0.1,0-0.1,0-0.2,0c-0.1,0-0.2,0.5-0.2,1.4c-0.1,0.9,0,1.5,0.1,1.6 s0.2,0.4,0.1,0.8c-0.1,0.2-0.1,0.4-0.1,0.6c0.1,0,0.1,0,0.1,0s0.1,0,0.2,0c0,0.1-0.1,0.3-0.1,0.4c0,0.3,0,0.4,0.2,0.4 c0.1,0.1,0.3,0.3,0.3,0.8c0,0.4,0.1,0.7,0.2,0.8c0.1,0.1,0.2,0.3,0.2,0.7c0,0.4,0.1,0.7,0.3,0.9c0.2,0.2,0.4,0.3,0.7,0.3 c0.1,0,0.3,0,0.4,0c0,0.1,0,0.1,0,0.1s0,0.1,0,0.2c-0.1,0-0.2,0-0.3,0c-0.1,0-0.2,0-0.3,0c0,0.1,0,0.2,0,0.3c0,0.2,0.1,0.4,0.4,0.7 s0.4,0.4,0.4,0.6c0,0.2,0.4,0.4,1.2,0.8c0.8,0.4,1.4,0.6,1.9,0.6c0.4,0.1,0.7,0.2,0.8,0.4c0.1,0.2,0.4,0.3,0.9,0.4 c0.5,0.1,1,0.2,1.4,0.4c0.4,0.2,0.7,0.3,0.8,0.1c0.1-0.1,0.4-0.1,0.8-0.1c0.4,0,0.8,0.1,1,0.4s0.4,0.4,0.7,0.5 c0.3,0.1,0.5,0.1,0.8,0c0.3-0.1,0.6,0,1,0.3c0.4,0.3,0.8,0.4,1.2,0.3c0.4-0.1,0.6-0.2,0.6-0.3c0-0.1,0-0.1,0-0.1c0.1,0,0.3,0,0.4,0 c0.3,0,0.4,0,0.5,0.1c0,0.1,0.5,0.1,1.3,0s1.3-0.1,1.4,0.1c0.1,0.2,0.4,0.3,0.7,0.4c0.3,0,0.4,0.1,0.4,0.2c0,0,0,0.1,0,0.1 c0.3-0.1,0.6-0.1,0.9-0.2c0.6-0.1,0.9-0.1,1.1,0s0.3,0.2,0.7,0.2c0.2,0,0.3,0,0.5,0c0,0,0,0.1,0,0.1c0,0.1,0,0.1,0,0.1 c0.1-0.1,0.1-0.2,0.2-0.3c0.1-0.2,0.4-0.3,0.9-0.1s0.9,0.1,1.1-0.1c0.1-0.1,0.3-0.1,0.4-0.2c0,0.1,0,0.2,0,0.2c0,0.1,0,0.1,0,0.2 c0.2,0,0.4,0,0.7,0c0.4,0,0.7-0.1,0.8-0.2s0.3-0.2,0.8-0.2s0.8,0,0.8-0.1s0.3-0.1,0.8-0.1s1,0.1,1.6,0.4c0.5,0.3,1.1,0.4,1.7,0.4 c0.6,0,0.9-0.1,1-0.2s0.7-0.2,1.9-0.1s1.9,0,2.1-0.1c0.1-0.1,0.6-0.2,1.5-0.2c0.8,0,1.4,0,1.6,0.1s0.4,0.1,0.4,0s0.2-0.1,0.3-0.1 c0.1,0,0.1,0,0.2,0.1c0-0.1,0-0.1,0.1-0.2c0-0.1,0.1-0.1,0.1-0.2c0.1,0,0.1,0,0.1,0.1c0.1,0,0.1,0.1,0.2,0.1c0-0.1-0.1-0.1-0.1-0.2 c0-0.1-0.1-0.1-0.1-0.2c0.1,0,0.2,0,0.2,0s0.1,0,0.2,0c0,0.1,0,0.1,0,0.1c0,0.1,0,0.1,0,0.2c0.3,0,0.5,0,0.8,0s0.5,0,0.8,0 c0-0.1-0.1-0.2-0.1-0.2c0-0.1,0-0.1-0.1-0.2c0.2,0,0.4,0,0.7,0.1c0.4,0,0.7,0,0.8-0.2c0.1-0.1,0.2-0.3,0.5-0.4 c0.3-0.1,0.5-0.3,0.5-0.5c0-0.1,0-0.2,0-0.3c0.1,0,0.2,0,0.3,0c0.2,0,0.4-0.1,0.6-0.4s0.4-0.4,0.5-0.4c0.1,0,0.2,0,0.2,0 c0-0.1-0.1-0.2-0.1-0.3c-0.1-0.2,0-0.4,0.1-0.5c0.2-0.2,0.3-0.2,0.5-0.2c0.2,0.1,0.3,0,0.4-0.1c0.1-0.1,0.2-0.2,0.4-0.2 c0.1,0,0.3-0.2,0.4-0.5c0.1-0.3,0.3-0.6,0.7-0.8c0.3-0.2,0.6-0.4,0.8-0.8c0.1-0.3,0.2-0.7,0.2-1.2s0.1-0.8,0.3-1 c0.2-0.1,0.3-0.3,0.4-0.5s0.1-0.5,0-1c-0.1-0.4,0.1-0.8,0.3-0.9s0.4-0.3,0.4-0.5c0.1-0.2,0-0.4-0.1-0.7c-0.2-0.3-0.2-0.4,0-0.5 c0.1-0.1,0.3-0.8,0.4-1.9c0-0.6,0.1-1.2,0.1-1.8c-0.1,0-0.1,0-0.2,0c-0.1,0-0.1,0-0.2,0c0,0,0-0.1,0-0.1c0-0.1,0.2-0.5,0.5-1.1 c0.4-0.6,0.5-1.2,0.5-1.7s-0.1-0.9-0.2-1.2s-0.2-0.6-0.1-0.8c0-0.2,0.1-0.3,0.2-0.3c0.1,0,0.1,0,0.2,0c0-0.2,0-0.4,0-0.7 c0-0.5-0.1-0.7-0.2-0.8c-0.1,0-0.1-0.1-0.1-0.1c0.1-0.1,0.1-0.2,0.1-0.3c0.1-0.2,0.1-0.4,0-0.7c-0.1-0.3-0.1-0.7,0-1.4 c0.1-0.6,0.1-1.1,0-1.3c-0.1-0.1-0.1-0.2-0.1-0.3c0.1,0,0.1-0.1,0.1-0.1c0.1-0.1,0.2-0.9,0.2-2.6s0-2.6-0.2-2.6 c-0.1,0-0.1-0.1-0.2-0.1c0.1-0.2,0.1-0.4,0.2-0.5c0.2-0.3,0.2-0.7,0-1.1c-0.1-0.3-0.1-0.6,0-0.8c0.2-0.2,0.2-0.4,0.2-0.8 s0.1-0.6,0.3-0.8s0.3-0.4,0.3-0.7c0-0.1,0-0.3,0-0.4c-0.1,0-0.1,0-0.2,0c-0.1,0-0.2-0.1-0.3-0.4c-0.1-0.3,0-0.4,0.2-0.5 c0.1-0.1,0.2-0.1,0.3-0.1c-0.1-0.1-0.1-0.1-0.2-0.2c-0.1-0.1-0.1-0.3-0.1-0.6c0-0.3,0.1-0.5,0.1-0.5c0.1,0,0.1-0.1,0.2-0.1 c-0.1-0.1-0.1-0.1-0.2-0.2c-0.1-0.1-0.1-0.1-0.1-0.2c0.1,0,0.1,0,0.2,0c0.1,0,0.2,0,0.2,0c0-0.1-0.1-0.2-0.1-0.3 c0-0.1-0.1-0.2-0.1-0.3c0,0,0.1,0,0.1,0s0.1,0,0.1,0c0-0.2,0-0.3,0-0.5c0-0.4,0.1-0.7,0.2-0.9s0.2-0.6,0.2-1c0-0.4-0.2-0.9-0.5-1.4 c-0.3-0.6-0.5-1-0.5-1.4c0-0.3-0.2-0.6-0.5-0.9c-0.3-0.3-0.5-0.4-0.5-0.6c0-0.1-0.2-0.5-0.7-1s-0.8-0.7-0.9-0.7 c-0.1,0-0.2,0.1-0.2,0.1c0-0.1,0-0.1,0-0.2c0-0.2-0.3-0.5-1.1-1.1c-0.7-0.6-1.3-0.8-1.9-0.7c-0.6,0.1-1,0.1-1.2-0.1 c-0.2-0.2-0.4-0.3-0.7-0.3s-0.4,0.1-0.4,0.3c-0.1,0.2-0.1,0.3-0.2,0.3c0,0-0.1,0-0.1,0c0,0,0-0.1,0-0.1c0-0.1-0.2-0.2-0.6-0.3 c-0.4-0.1-0.7-0.1-0.9,0.2c-0.2,0.2-0.5,0.3-0.8,0.1c-0.2-0.1-0.4-0.1-0.5-0.1c0,0,0,0.1,0,0.1s0,0.1,0,0.1c-0.1,0-0.3,0-0.4,0 c-0.3,0-0.4,0.1-0.4,0.2c-0.1,0.1-0.4,0.1-1.1,0c-0.3-0.1-0.6-0.1-1-0.2c0,0.1,0,0.1,0,0.2c0,0.1-0.1,0.2-0.4,0.2 c-0.3,0.1-0.4,0-0.4-0.1c-0.1-0.1-0.2-0.1-0.4-0.1c-0.2,0.1-0.4,0-0.5-0.2c-0.1-0.2-0.7-0.4-1.7-0.7s-1.6-0.5-1.7-0.6 s-0.4-0.2-0.9-0.1c-0.5,0-0.8-0.1-1.1-0.3c-0.1-0.1-0.3-0.3-0.4-0.4c-0.1,0.1-0.1,0.1-0.2,0.1c-0.1,0.1-0.3,0.1-0.4,0 c-0.1-0.1-0.2-0.1-0.3-0.1c0,0.1,0,0.1-0.1,0.1c-0.1,0.1-0.2,0.1-0.4,0.1c-0.2,0-0.3,0-0.4,0.2c-0.1,0.1-0.3,0.3-0.6,0.3 c-0.3,0-0.5,0-0.8-0.2c-0.2-0.1-0.8-0.3-1.6-0.4c-0.9-0.1-1.4-0.2-1.4-0.3c-0.1-0.1-1-0.1-2.8-0.1s-2.8-0.1-2.9-0.2 c-0.1-0.1-0.1-0.1-0.1-0.2c-0.1,0.1-0.2,0.1-0.2,0.2c-0.1,0.1-0.1,0.2-0.2,0.2c-0.1-0.1-0.1-0.3-0.2-0.4c-0.1-0.3-0.3-0.4-0.5-0.4 s-0.4-0.1-0.4-0.1c-0.1-0.1-0.2-0.1-0.5,0c-0.3,0.1-0.4,0.2-0.4,0.4c0,0.1,0,0.1,0,0.2c-0.1,0-0.1,0-0.1,0c-0.1,0-0.2-0.1-0.2-0.4 s-0.4-0.4-1.1-0.4c-0.6,0-1,0.1-1.1,0.2c0,0.1-0.2,0.1-0.5,0c-0.3-0.1-0.6-0.1-0.8,0.1s-0.6,0.2-0.9,0c-0.2-0.1-0.3-0.2-0.5-0.3 C165.9,205.5,165.9,205.5,165.9,205.6z M120.4,206.4c-0.3,0.1-0.7,0.2-1,0.4s-0.7,0.3-1.1,0.3c-0.4,0-0.6,0.1-0.8,0.2 c0,0.1-0.1,0.2-0.1,0.2c-0.1-0.1-0.1-0.1-0.2-0.2c-0.1,0-0.1-0.1-0.2-0.1c0,0.1-0.1,0.1-0.1,0.1c-0.1,0.1-0.4,0.1-1.1,0.1 c-0.7-0.1-1,0-1.1,0.1c0,0.1-0.2,0.2-0.4,0.2s-0.4,0-0.4,0.1c0,0.1-0.1,0.1-0.1,0.1c0,0,0-0.1-0.1-0.1c-0.1-0.1-0.4-0.2-1.1-0.3 c-0.7-0.1-1.1-0.1-1.3,0.2c-0.3,0.2-0.7,0.3-1.3,0.4c-0.6,0-1,0.2-1.1,0.4c-0.2,0.2-0.4,0.3-0.9,0.4c-0.4,0-0.7,0.1-0.7,0.2 c0,0.1,0,0.1,0,0.2c-0.2-0.1-0.3-0.2-0.5-0.2c-0.3-0.1-0.6-0.2-0.8-0.1c-0.2,0-0.3,0-0.4-0.2c-0.1-0.1-0.3-0.2-0.8-0.2 s-0.7,0.1-0.8,0.3c-0.2,0.2-0.6,0.3-1.3,0.4c-0.7,0.1-1.1,0.2-1.1,0.4c0,0.1-0.1,0.2-0.1,0.3c-0.1,0-0.1-0.1-0.2-0.1 c-0.1,0-0.2-0.1-0.2-0.1c0,0.1-0.1,0.1-0.1,0.2c-0.1,0.2-0.3,0.3-0.6,0.5c-0.3,0.1-1,0.1-2,0c-1-0.2-1.7-0.2-2,0 c-0.3,0.1-0.5,0.3-0.7,0.6c-0.2,0.3-0.4,0.3-0.6,0.2c-0.3-0.1-0.6-0.1-1,0.1s-0.7,0.3-1,0.3c-0.1,0-0.3,0-0.4,0c0-0.1,0-0.1,0-0.2 c0-0.1,0-0.1,0-0.2c-0.1,0-0.2,0-0.3,0c-0.2,0-0.3,0.1-0.4,0.2c-0.1,0.2-0.3,0.2-0.5,0.2c-0.1,0-0.3-0.1-0.4-0.1c0,0.1,0,0.1,0,0.2 c0,0.2-0.3,0.3-0.8,0.3c-0.6,0.1-0.8,0.2-0.9,0.4s-0.3,0.4-0.6,0.6c-0.3,0.2-0.5,0.4-0.5,0.5s-0.2,0.4-0.5,0.6s-0.9,0.8-1.6,1.7 c-0.7,0.9-1.1,1.6-1.1,2c0,0.4,0.1,0.8,0.3,0.9c0.1,0.1,0.2,0.1,0.3,0.2c-0.1,0.1-0.2,0.1-0.3,0.2c-0.2,0.2-0.3,0.4-0.4,0.6 c-0.1,0.3-0.1,0.5-0.1,0.8c0,0.1,0,0.3,0,0.4c0.1,0,0.2-0.1,0.2-0.1c0.1,0,0.1-0.1,0.2-0.1c-0.1,0.3-0.1,0.6-0.2,0.8 c-0.1,0.5-0.1,0.8,0,0.9s0.2,0.4,0.2,1.1c0,0.6,0,1,0.2,1.1c0,0,0.1,0,0.1,0.1c0,0-0.1,0.1-0.1,0.1c-0.1,0.1-0.2,0.3-0.2,0.6 c0,0.3-0.1,0.5-0.2,0.6c-0.2,0.1-0.2,1.1-0.2,3.1c0,2,0.2,3.1,0.4,3.3c0.2,0.2,0.2,0.5,0.1,0.8c-0.2,0.4-0.2,0.9,0,1.6 c0.2,0.7,0.3,1.1,0.4,1.1c0.1,0,0.2,0.3,0.2,0.6c0,0.4,0.1,0.6,0.2,0.6s0.3,0.3,0.4,0.8s0.2,0.8,0.4,1c0.2,0.1,0.2,0.3,0.2,0.5 s0,0.4,0.2,0.5c0.2,0.2,0.2,0.5,0.1,0.9c0,0.2-0.1,0.4-0.2,0.7c-0.1-0.1-0.1-0.1-0.2-0.2c-0.1-0.1-0.2-0.1-0.2-0.1 c0,0.3,0,0.5,0,0.8c0,0.5-0.1,0.8-0.2,0.8c0,0-0.1,0.1-0.2,0.1c0.1,0.1,0.1,0.2,0.2,0.3c0.1,0.2,0.1,0.4-0.2,0.7 c-0.2,0.3-0.1,0.6,0.2,0.9c0.3,0.4,0.5,0.8,0.5,1.2c0.1,0.5,0.3,1,0.6,1.5c0.3,0.6,0.5,1,0.3,1.2s-0.2,0.5-0.2,0.9s0.1,0.6,0.2,0.9 s0.2,0.6,0.2,1.1c-0.1,0.5-0.1,0.9,0,1.1c0,0.2,0.2,0.4,0.4,0.5c0.3,0.1,0.3,0.4,0.3,0.8c0,0.2-0.1,0.3-0.1,0.5 c0.1-0.1,0.2-0.1,0.2-0.2c0.1-0.1,0.2-0.1,0.2-0.2c0,0.1,0,0.3,0,0.4c0,0.3,0.1,0.6,0.3,1c0.2,0.4,0.3,0.8,0.2,1.3 c0,0.5,0,0.8,0.2,0.8c0.1,0,0.2,0,0.3,0.1c0,0.1-0.1,0.1-0.2,0.1c-0.1,0.1-0.1,0.2-0.1,0.4c0,0.1,0,0.2,0,0.2c0,0,0.1,0,0.1,0 c0.1,0,0.1,0,0.2,0c0,0.2-0.1,0.4-0.2,0.6c-0.1,0.4,0,0.8,0.2,1c0.3,0.3,0.4,0.9,0.5,1.7c0.1,0.9,0.3,1.4,0.7,1.7s0.5,0.5,0.4,0.8 c0,0.1,0,0.2-0.1,0.3c0.1,0,0.2,0,0.2-0.1c0.1,0,0.2-0.1,0.2-0.1c0,0.1,0,0.1,0,0.2c0,0.1,0.4,0.6,1.3,1.4c0.8,0.8,1.6,1.2,2.2,1.2 s0.9,0.1,1,0.2c0.1,0.1,0.6,0.3,1.4,0.4s1.3,0.2,1.3,0.3c0.1,0.1,0.5,0.1,1.3,0s1.2-0.2,1.3-0.3c0-0.1,0.4-0.1,1.2-0.1 s1.2-0.1,1.4-0.4c0.2-0.3,0.4-0.4,0.7-0.5s0.8,0,1.7,0s1.3,0.1,1.3,0.2c0,0,0,0.1,0,0.1c0.1,0,0.3-0.1,0.4-0.1 c0.3-0.1,0.4-0.1,0.5,0c0,0,0.1,0.1,0.2,0.1c0,0,0-0.1,0-0.1c0-0.1,0-0.1,0-0.1c0.2,0,0.3,0,0.5,0c0.4,0,0.7-0.2,1.1-0.5 c0.3-0.3,0.9-0.5,1.7-0.5s1.3-0.1,1.6-0.4c0.3-0.3,1-0.4,2-0.5s1.7-0.4,2-0.9c0.4-0.5,1.3-0.8,2.9-0.9c1.6-0.1,2.5-0.3,2.8-0.5 c0.1-0.1,0.3-0.3,0.4-0.4c0,0.1,0.1,0.1,0.2,0.2c0.1,0.1,0.4,0.1,1,0c0.5-0.1,1-0.2,1.3-0.4c0.3-0.2,0.5-0.3,0.5-0.4 c0-0.1,0-0.1,0-0.2c0.1,0,0.2,0,0.4,0c0.3,0,0.5-0.2,0.7-0.5s0.5-0.6,0.8-0.7c0.4-0.1,0.7-0.3,0.9-0.5s0.5-0.4,0.9-0.4 s0.8-0.3,1.2-0.9c0.5-0.6,0.8-0.9,0.9-0.9c0.1,0,0.4-0.2,0.9-0.5s0.7-0.6,0.7-0.8s0.2-0.4,0.6-0.8c0.4-0.4,0.7-0.7,0.9-1.1 s0.3-0.8,0.3-1.2c0-0.4,0.1-0.7,0.3-1c0.2-0.3,0.3-0.4,0.2-0.6c-0.1-0.2,0-0.4,0.2-0.7c0.1-0.3,0.2-0.6,0.1-0.8s0-0.4,0.1-0.5 c0.2-0.1,0.2-0.5,0.2-1.3c0-0.4-0.1-0.8-0.1-1.1c0.1,0,0.1,0,0.2,0s0.2,0,0.2,0c0-0.2,0-0.4,0-0.5c0-0.3,0.1-0.6,0.2-0.8 c0.2-0.1,0.2-0.3,0.2-0.5s0-0.4,0.1-0.4c0.2-0.1,0.2-0.3,0.2-0.7s-0.1-0.8-0.4-1.2s-0.4-0.9-0.3-1.5c0-0.3,0.1-0.6,0.1-0.8 c-0.1,0-0.1,0-0.1,0.1c-0.1,0-0.1,0.1-0.2,0.1c0-0.3,0-0.6,0-0.9c0-0.6,0-1-0.1-1.1c-0.1-0.2,0-0.8,0.2-2s0.3-2.1,0.1-2.6 s-0.3-1-0.3-1.6s-0.2-1.2-0.6-2c-0.4-0.8-0.6-1.3-0.6-1.6s0.1-0.4,0.1-0.5c0.1,0,0.1,0,0.2-0.1c-0.1-0.1-0.1-0.2-0.2-0.3 c-0.1-0.2-0.1-0.4,0-0.7c0.1-0.3,0.1-0.4,0-0.5c-0.1-0.1-0.1-0.6,0-1.3c0.1-0.8,0-1.4-0.4-1.8c-0.3-0.4-0.6-0.9-0.6-1.5 c-0.1-0.6-0.2-1.1-0.5-1.5c-0.3-0.4-0.3-1-0.2-1.8c0.1-0.8,0-1.4-0.2-1.6c-0.3-0.3-0.4-0.8-0.4-1.4c0-0.7-0.1-1-0.2-1.1 c-0.2-0.1-0.3-0.3-0.3-0.8s-0.2-1.1-0.5-1.7c-0.3-0.6-0.5-1.1-0.7-1.2c-0.2-0.1-0.5-0.3-0.9-0.3s-0.7-0.3-0.8-0.6 c-0.1-0.4-0.1-0.5-0.3-0.5c-0.1,0-0.1,0-0.2,0c0-0.1,0-0.1,0-0.1s0-0.1,0-0.2c-0.2,0-0.3,0-0.5,0c-0.3,0-0.5,0-0.7-0.1 c-0.2-0.1-0.2-0.2-0.2-0.4c0-0.1,0-0.1,0-0.2c-0.1,0-0.3,0-0.4,0c-0.3,0-0.5,0-0.5-0.1c0-0.1,0-0.1-0.1-0.1c-0.1,0-0.1,0.1-0.1,0.1 c-0.1,0.1-0.4,0.1-0.8,0c-0.4-0.1-0.8-0.3-1.1-0.7c-0.3-0.3-0.9-0.6-1.7-0.6c-0.8-0.1-1.2-0.1-1.3-0.2s-0.3-0.1-0.6-0.1 c-0.2,0-0.3,0-0.5,0c0-0.1,0-0.1,0-0.2c0-0.1-0.3-0.2-0.8-0.4C121.2,206.4,120.8,206.3,120.4,206.4z"/></g></svg>