<?xml version="1.0" encoding="UTF-8" standalone="no"?><svg xmlns="http://www.w3.org/2000/svg" xmlns:xlink="http://www.w3.org/1999/xlink" data-name="Слой 2" fill="#000000" height="216.3" preserveAspectRatio="xMidYMid meet" version="1" viewBox="-0.8 -3.2 538.2 216.3" width="538.2" zoomAndPan="magnify"><g data-name="1" id="change1_1"><path d="m.2,190.35c.64-.29,32.51,11.72,44.01-18.58,3.71-9.77,5.6-8.1,4.75-9.23-1.3-1.74,7.59-24.68,7.37-24.76-.77-.29,4.01-35.67,5.49-28.36.76,3.73,1.86-4.54-1.2-2.51-2.87,1.9,2.24-3.15-.23-4.23-.89-.38-.94-.62-.13-.64.97-.02,1.09-.44.48-1.78-1.34-2.99,2.16-11.84-.16-9.11-2.53,2.98.73-6.2-2.39-8.98-1.12-1-1.08-1.22.32-1.51,1.43-.3,1.5-.51.62-1.72-1.54-2.12,4.33.23,2.96,1.28-.68.52-.5.79.54.79.94,0,1.98,1.1,2.58,2.73,2.12,5.75,17.81,15.51,17.84,17.61.06,3.15-.25,3.14.95.22,1.4-3.37-.08.49,4.6,1.52,2.74.6,2.84.73.98,1.25-2.8.77-2.05,1.98,2.4,3.85,6.86,2.9-.81-1.27-.23-2.82.74-1.94,8,5.1,8.65,4.81,4.06-1.83,7.27,4.4,3,1.31-1.66-1.2-1.66-1.13-.08.88,2.69,3.43-.53.35-2.24,2.27-4.58,5.13-40.84-27.07-35.75-20.26.57.76.47,1.6-.26,2.17-.99.77-.87.83.68.32,1.63-.54,1.72-.4.7,1.03-1.01,1.41,2.14,9.65.92,8.14-1.26-1.56-1.45,1.61-3.28,3.65-.79.88-.64,1.21.56,1.2,2.97-.01-1.23,4.57,1.21,4.56.8,0,1.07.79.7,2.06-1,3.36-.41-1.08-2.42-.69-2.25.43,1.42,2.56-.79,6.53-1.64,2.94.26,2.47-1.28,4.69-1.06,1.54,4.03,2.98.86,4.78-1.08.61-1.2.93-.47,1.21,1.24.47-.92,6.41-2.44,6.7-1.4.27-1.19,2.88.55,1.58.98-.74,1.12-.65.71.47-.87,2.37-4.86,2.9-1.99,2.97,1.27.03,1.38.42.46,1.71-.81,1.13-.78,1.59.08,1.42,1.53-.3,1.44,1.67-1.77,1.74-3.08.06.63.27-1.33,3.08-1.88,2.71.07,3.46,1.46.3,1.7-3.89-.26,4.99-1.44,5.8-5.54,3.84-5.55,11.56-3.72,6.75,1.5-3.95,5.38-5.78-.09,6.54-.77,1.74-1.03,1.84-1.32.52-.04-.17-16.6,25.95-14.49,19.64,2.16-6.46-4.91,6.52-8.4,5.19-.4-.15-.04-.87.8-1.6,2.01-1.75,1.31-3.14-.87-1.72-2.98,1.94.55,3.59-2.1,4.77-1.05.47-1.32.37-1.03-.38.21-.56-.41-1.25-1.38-1.53-2.37-.72-1.72,1.31-.4,1.05,3.53-.69-3.77,4.25-15.28,1.06-6.68-1.85-9.27-9.62-8.28-9.74Zm17.57,8.44c-1.75.34-1.67.95.12.95-.27.72,2.99-1.55-.12-.95Zm46.99-93.37c.52.2,2.49-1.09,1.22-1.57-1.27-.48-1.69,1.39-1.22,1.57Zm-5.65,26.03c.95-.43.99-3.72-.03-1.34-.2.47-.52,1.18.03,1.34Zm-18.31,57.33c1.19.45,1.96-1.61.51-1.33-1.61.31-1.53.94-.51,1.33Zm62.97-73.63c1.87.71.59-.43,5.1-2.46,5.91-2.66,3.34,2.96,5.6,1.95.41-.18.34-.85-.15-1.49-.66-.86-.36-1.1,1.15-.94,2.77.3,2.66,2.78,1.7,1.52-1.02-1.34-2.14.9.13,1.24,2.48.37,1.81-3.09,2.46-1.66.49,1.08,10.82.05,8.4,1.91-1.17.9.68,2.15,1.73-.57.52-1.35.86-1.54,1.06-.59.21,1.02.85.91,2.33-.38,4.48-3.9,1.93.21,4.41,1.13,1.33.49,1.41.38.55-.79-.8-1.09-.75-1.27.23-.91,1.62.6,7.39-3.12,6.98-2.02-.37.99-4.51,2.94-4.26,3.49,1.27,2.83,10.82-7.44,12.87-3.81,1.91,3.36,7.88-3.47,10.03-4.71,4.84-2.78,2.22,1.15.86,1.16-1.03,0,2.39,2.42,3.26-1.16.63-2.63,2.69-5.57,3.82-2.05,1.55,4.81-.98-2.1,2.25-3.55,2.64-1.19,1.59,1.12-.08,1.16-1.37.03,1.58,2.31,2.43-.69,1.25-4.38,1.99-5.08,4.52-4.24,1.6.53,1.97.46,1.05-.19-3.01-2.13,6.09-9.32,7.64-9.33.53,0,18.52-37.65,20.95-38.12.81-.16.86-.53.17-1.17-.66-.61-.4-.73.72-.36,1.72.58,1.73.55.52-1.3-1.49-2.28.68-9.5,2.63-8.76.65.25.81.74.36,1.08-1.09.84.33,2.87.73.61.4-2.27,1-3-.72-2.99-1.81,0-.72-2.87.63-1.66,1.29,1.16,2.83-1.85.33-1.98-2.75-.14.97.88,2.98-5.21,1.95-5.93,4.72-5.72,3.37-6.23-1.18-.45-.58-5.44.69-5.74,3.17-.75,5.22-8.49.95-3.74-1.29,1.43-1.83,1.77-1.21.75,1.66-2.73-.53-2.84.9-4.44,2.03-2.28-1.9-7.37,1.11-6.23,1.67.64,4.33-4.93,5.16,1.49.52,3.99,5.5,3.11,1.59,4.87-2.44,1.1-1.61,2.63.15,1.31,2.28-1.71-.86,1.54.95,5.76,1.49,3.5,1.24,3.54.87.29-.64-5.64,3.87,1.24,2,5.79-1.34,3.25,1.3,1.76-.06,3.28-.7.78-.54,1.37.48,1.76,1.26.48,1.25.74-.08,1.5-2.28,1.29.19.76.2,3.18,0,.9-.28,1.21-.67.7-.37-.48-.91-.24-1.21.55-.8,2.1,2.9,1.56,2.42,2.97-.66,1.88.96,3.22-.51,5.76-.49.85-.42,1.46.16,1.34,1.4-.27,2.48,2.97,1.29,3.88-.93.71,1.68,2.44.46,7.62-.35,1.54,1.85,3.63,1.04,5.76-.65,1.7,1.21,1.24,1.07,3.77-.34,6.08,5.51,10.12,4.95,11.59-.38,1-.79.93-1.87-.3-.93-1.06-1.31-1.21-1.17-.46.31,1.61,5.95,5.3,4.92,6.09-.4.31.23.74,1.41.95,1.18.21,1.49.43.69.49-2.21.15,4.37,5.03,5.35,4.84,1.65-.32-1.37,1.58,2.92,2.53,3.82.84,1.78,2.28,3.3,1.98,1.51-.29-1.37,2.01-.13,2.48,1.91.72,1.69-2.62,4.47-.65,1.07.76,1.82.75,2.12-.04.29-.73.6-.76.79-.07.79,2.86,4.28,1.59,6.03,2.14,3.14,1,1.18,2.76,2.34,2.24,1.82-.82-2.3-3.95,2.94-2.38,2.21.66,2.86,1.18,2.14,1.73-.66.5-.55.7.31.53,1.84-.36,1.1-3.5,1.86-2.51.61.79,4.61.39,2.41-.48-1.71-.67,5.71-2.14,6.48-1.14.83,1.07,2.04-1.74,3.89-1.03,2,.76,4.14-4.95,2.43.41-.64,1.99-.76,3.2-.28,2.68.48-.52,1.15-.58,1.49-.14.83,1.08,2.04-2.13.73-1.87-1.59.31,1.08-4.59,3.14-5.75,13.32-7.52,3.63,2.29,1.42,1.45-.73-.28-1.82.41-2.43,1.51-2.77,5.03,5.07-3.19,5.09.57,0,2.24-.21,2.62-.95,1.66-2.45-3.2-3,8.92-4.77,5.81-.73-1.28-1.04-1.42-1.36-.57-.27.72-1.1.62-2.42-.31-2.85-1.99-2.84.53-1.86.35.99-.19,3.62,2.73,1.62,1.99-.74-.27-1.21.19-1.2,1.2,0,1.21-.32,1.35-1.23.54-.86-.77-1.23-.66-1.23.35,0,1.85-5.47.49-5.72-4.35-.1-1.85-.52-3.5-.93-3.66-1.12-.43.16,4.02-.89,4.49-1.08.49.53-1.24-1.37-1.96-3.38-1.28-.67,3.18,1.78,2.71,1.74-.34-1.02,2-1.32,2.79-.03.09-5.38-1.9-5.97-.32-.68,1.79-2.39.95-1.9-.34.64-1.68-3.31.7-2.86-.49.58-1.52-4.09,2.02-4.51-.14-.17-.89-.68-1.07-1.88-.66-1.3.45-1.54.27-1.11-.85.74-1.96-3.04-1.88-1.79-.2,1.19,1.6-13.03-3.52-10.64-5.51.75-.63.63-.68-.54-.21-2.02.81-3.79-.86-2.48-2.33,2.14-2.39-4.04.63-3.94-1.66.07-1.66-2.97-1.84-1.69-2.82,1.6-1.23-2.12-.65-3.61-3.63-1.16-2.35,2.67-2.28-.12-2.41-7.99-.37-13.49-50.91-13.03-51.27,1.46-1.12-1.27.15-1.57-1.44-.53-2.76-6.14-2.32-3.46-.13,1.05.86.09,2.84.51,4.92.39,1.97-2.61,3.15-2.03,1.63.52-1.37-1.32-2.34-1.31-.03,0,1.37-.35,1.43-1.91.33-1.78-1.27-1.79-1.14-.1,1.81,1.53,2.66,1.55,3.23.14,3.56-2.67.62,1.32,1.86,1.82.56.22-.57.53-.72.71-.34.29.64-2.76,4.47-4.08,1.52-1.57-3.49-3.25.93.34,4.19,1.68,1.52-1.86.43-2.19-1.28-.55-2.82-4.78,5.04-1.17,2.64,2.23-1.49-1.71,1.28-2.03,6.23-.21,3.17-2.46,1.61-1.2.64.71-.54.47-.79-.77-.79-1.36,0-1.55-.29-.75-1.18,2.16-2.42-4.41-.08-.15,2.9,2.3,1.61,3.8,5.57-.78,8.78-5.25,3.68-4.05-.65-7.01-.58-1.71.04,1.95.99,1.47,2.24-.47,1.25,3.03,1.78,3.3,3.19.11.55-.57.45-1.5-.21-1.49-1.06-1.66-.94-1.41.95.42,3.21-1.99,2.13-.31,4.72,1.66,2.56-1.22,2.38-.81,1.29.41-1.07-1.38-2.7-1.37.91,0,4.08-4.61,2.76-2.74,3.53,1.42.58-.3,3.87-2.29,4.38-1.42.36-1.41.45.06.52,2.54.13-.69,6.83-.43,3.55.25-3.24-2.89-1.91-2.89.08,0,2.44-5.14.81-3.87,7.23.35,1.79.06,2.33-1.69,3.12-2.01.9-2.07.83-1.22-1.4,3.38-8.9-6.24,2.97-1.33,3.5,3.05.33,1.58,2.77-1.76.69-.44-.27-.36.72.18,2.21.73,2.02.7,2.26-.12.93-2.39-3.91-3.86,4.69-5.81,2.15-.46-.6-.7-.55-.57.12.47,2.45-6.33.76-7.79-1.93-1.49-2.75.8,1.05-.72,2.76-.85.95-.63,1.08,1.38.82,1.31-.17,2.52-.01,2.69.35.43.96,6.54-.41,6.08.81-.18.47-1.13.81-2.12.75-.99-.06-2.54.65-3.44,1.56-1.91,1.94.04-.45-2.11-.21-2.94.33-4.92-2.64-3.25-.2,1.39,2.03,3.06.62,1.62,2.23-1.85,2.07-7.97-2.43-6.81.15,1.13,2.52-5.3,3.59-2.95,1.79,1.13-.86-.74-2.06-1.7.47-1.06,2.8-4.28.58-5.23,3.08-.8,2.12-5.83,2.74-4.03,1.37,1.75-1.34-1.75-.59-2.85-1.01-.88-.33,1.14,3.1-2.17.8-3.85-2.68-1.04,1.31-3.15,1.72-1.52.29-1.07-3.04.53-3.95,2.7-1.53-.04-1.42-3.21.13-4.78,2.34.21.71.6,2.76.33,1.72-.51-1.01-3.16.18-2.95,1.33-5.4-2.53-5.04-.63.27,1.41-2.24,2.39-1.94-.45.29-2.71-1.12-3.16-1.37-.85-.4,3.69-16.6.6-14.45-2.01,1.58-1.93-3.19,1.92-4.09.75-.92-1.21-1.08,1.57-2.08.26-1.01-1.31,1.41-2,.02-2.52-1.41-.53-1.2,2.59-3.73,1.63-3.1-1.18-.39-2.8.24-1.93Zm41.08,2.89c1.41-.27,2.42-2.74.51-1.33-1.75,1.29-1.87,1.59-.51,1.33h0Zm4.73-1.76c1,.38,1.53,0,.51-1.33-.91-1.18-1.69.88-.51,1.33Zm1.99,2.79c.81.31,1.49-1.45,2.56-4.62-3.83,4.81-3.64,4.1-2.56,4.62Zm30.2-18c3.7-2.72.17-3.14-.81-.5-.48,1.3-.37,1.37.81.5h0ZM227.59,3.38c.95-.43.99-3.72-.03-1.34-.2.47-.52,1.18.03,1.34Zm-20.16,54.06c1.05,1.37-2.55,4.24-.16,2.65,1.06-.71,1.31-.63,1.27.41-.08,1.88,3.28,1.6,3.92-.32.47-1.4.36-1.42-.9-.12-1.32,1.37-1.39,1.36-.87-.18.37-1.1.05-1.67-.96-1.67-1.05,0-1.31-.56-.84-1.79,1.15-3.02-3.17-1.2-1.45,1.04h0Zm20.92-50.72c.95-.43.99-3.72-.03-1.34-.2.47-.52,1.18.03,1.34Zm.07,14.65c-.63-.86-.54-1.31.3-1.47,1.55-.3,2.6-2.77.34-1.36-2.61,1.62-5.22-1.77-4.16.61.71,1.59,4.94,4.17,3.51,2.22Zm-7.01,7.37c2.16-2.71.2.07,2.33.88,2.89,1.1-1.14-7.04-3.04-1.41-1.01,2.99-1.5,3.31.72.52Zm-2.54,9.64c3.35-.65-.99-3.64-.99-1.16,0,.74.45,1.26.99,1.16Zm10.88-26.28c.91,1.18,1.69-.88.51-1.33-1.01-.38-1.52.01-.51,1.33Zm-2.32,12.8c1.14.43-.79-2.27-2.01-2.73-1.13-.43.79,2.27,2.01,2.73Zm44.56,75.59c.95-.43.99-3.72-.03-1.34-.2.47-.52,1.18.03,1.34Zm21.03-4.16c-2.09-.23-2.09-.28-.05-1.2,2.89-1.3,3.32-3.38,1.56-2.06-1.68,1.26-2.55.66-3.9.43-.74-.12.63,4.5,2.61,4.5-.18-.02,4.2-1.19-.23-1.66Zm-.85,4.33c3.8-.01.78-3.47-.04-1.33-.2.52-.71.48-1.14-.08-.48-.62-.69-.54-.55.19.31,1.59,1.44.57,1.73,1.21Zm-136.17,7.93c6.68-2.29-.94,4.51-1.5,1.63-.15-.78,1.67-2.09,1.5-1.63Zm9.83,7.78c1.27.48-.75,1.75-1.22,1.57-.5-.19-.04-2.05,1.22-1.57Zm28.95-25.59c.36-.94,4.4-.4,1.21,1.03-2.8,1.26-2.72-1.44-4.18.62-1.69,2.38-.2-1.81.68-1.63-.5-.08,1.89,1.03,2.29-.03Zm13.02-19.36c2.37,1-.9.99-1.34.03-.18-.41.42-.42,1.34-.02h0Zm8.92-20.51c2.87,0-1.13,1.54-1.51.69-.43-.97,1.65-.11,1.51-.69Zm6.23-12.94c-1.44.28-.78-1.5.67-1.78.28-.73,1.88,1.28-.67,1.78Zm53.21,64.6c3.57,1.39-.49.97-1.72-.19-.59-.54,1.84-.29,1.72.19Zm5.87-.55c1.54-.3,2.24.94.12.95-2.92.01-.3-.49-.12-.95Zm28.8-21c1.16.4,6.39-6.11,9.56-11.91,3.67-6.71,9.09-3.82,7.74-2.31-1.51,1.69,6.19,4.51.25,6.02-1.4.36-2.1.82-1.55,1.03.56.21.51,1.08-.14,1.98-1.86,2.6,2.02,1.94,1.41,3.55-.18.47-.94.37-1.7-.22-1.2-.95-1.26-.87-.49.61,1.34,2.56.05,4.23,1.16,5.18,1.31,1.12.03,2.46-1.39,1.45-2.51-1.78-3.79,5.82-.94,2.67,1.39-1.53-2.16,4.17-.12,4.48.89.14.95.72.19,1.8-1.82,2.56,1.51,3.27-.82,3.43-1.03.07-1.22.48-.79,1.73.43,1.25.31,1.54-.49,1.24-1.28-.49-1.27,1.91,1.22,2.18,2.91.31.88,4.14,2.62,3.8,1.84-.36-1.97,3.86,1.29,5.12,2,.77,4.81,3.74,3.09,3.24-.5-.15-.25.38.57,1.18,1.27,1.23,1.26,1.36-.09.91-.87-.28-1.72-.17-1.88.28-.42,1.11,3.73.88,3.25,2.15-.58,1.52-6.42-.58-1.87,1.37,3.64,1.56,2.88,4.39,3.21,1.48.86-7.38,1.3,8.12,3.79,7.01.48-.22.43-.98-.12-1.69-1.45-1.89,2.21-3.1,1.62-1.55-.23.62.14,1.01.84.87.78-.15.88.05.24.54-1.53,1.17,1.93,1.26,1.39,2.97-.19.63.27.46,1.05-.36,1.34-1.43,1.41-1.38,1.49,1.07.12,3.6.26-.39,3.5-.07,3.32.33,3.58.56,2.41,2.05-.95,1.2-.87,1.26.61.49,2.14-1.12,8.04.55,5.5,1.11-2.57.56,4.19,2.35,4.56,1.37.43-1.14-2.89-.41-2.42-1.64.64-1.67,2.61,1.9,13.41.62,8.9-1.05,7.74-2.13,4.85,3.47-1.91,3.71-2,4.3-.6,4.3,1.02,0,1.26.27.66.73-1.5,1.15-4.65-2.29-5.3-.58-.59,1.54-3.24-.66-8.11-.17-6.97.7-4.72-6.16-6.34-1.9-1.31,3.45-3.92,2.36-1.94-2.97,1.19-3.21-3.47,1.1-2.84,3.27.67,2.3.9.28-7.44-3.41-12.41-5.49-8.35-9.64-13.71-11.67-12.21-4.63-13.28-43.14-13.78-43.33-1.69-.64-2.31-6.75-2.3.04,0,2.7-11.55,20.65-5.68,8.09,2.61-5.57-1.56-3.37,1.74-5.84,1.98-1.49-1.36-4.54-.34-5.27Zm5.81-.88c1.17.45,1.85-1.33.67-1.78-1.17-.45-1.85,1.33-.67,1.78Zm11.7,36.6c2.81-2.06-3.92-5.54-2.05-1.59.3.64.66,1.73,2.05,1.59Zm18.27,19.48c.52.2,2.49-1.09,1.22-1.57-1.27-.48-1.69,1.39-1.22,1.57Zm2.15,3.86c1.19.45,1.96-1.61.51-1.33-1.64.32-1.5.95-.51,1.33Zm2.62-1.55c.91,1.18,1.69-.88.51-1.33-.99-.38-1.53,0-.51,1.33Zm-21.87-62.65c1.27.48-.75,1.75-1.22,1.57-.5-.19-.04-2.05,1.22-1.57Zm51.94,59.33c12.75,4.84,88.96-43.7,106.37-60.71,4.7-4.58,5.49,5.63,2.91,4.65-1.42-.54,1.06-1.17.02-2.52-.99-1.29-.87,1.38-3.41,2.25-3.25,1.11-3.13,6.15.14,6.35.81.05,1.07.29.57.54-1.72.85-5.25-1.87-6.62.01-.77,1.06-.71,1.09.58.22,3.76-2.53-2.53,5.08-3.15,1.85-.18-.95-.01-1.08.51-.41.89,1.16,1.22.46,1.18-2.5-.06-4.58-4.38,7.85-6.87,5.62-1.64-1.47-.95,1.56-4.03,1.23-3.86-.41-2.22,7.96-4.76,7.03-.9-.33-.95-.1-.19.93.6.82.58,1.21-.06.98-1.47-.54-1.02-2.4-2.73-3.05-3.85-1.46-9.02,5.5-3.65,1.86,5.84-3.97,3.83,3.29.9,2.18-1.81-.69-2.15,6.37-3.96,4.01-.34-.44-.25-1.09.2-1.44,1.45-1.11-.77-1.3-2.63-.23-3.2,1.85.77-.19,2,2.84.64,1.56.5,1.61-1.04.38-.98-.77-1.69-.98-1.59-.45.47,2.42-4.81,2.31-5.09,4.07-.28,1.73-3.38.94-1.82-1.01,1.55-1.94-.23.16-3.8.22-2.18.04-2.29.15-.78.8,1.72.74,1.71.77-.47,1.41-3.45,1.01.24,1.74,1.9.99,4.15-1.86-2.73,4.19-5.92,2.23-1.77-1.09-3.96.92-2.21.58,4.97-.96-.86,5.52-2.99,3.62-1.82-1.63-2.63,6.99-5.04,2.74-.65-1.15-.83-1.12-.82.12.01,2.83-3.13,4.61-6.27,3.57-2.15-.71-2.41-.66-1.04.19,2.37,1.46-.69,3.9,3.43,2.36,1.77-.66-2.74,2.58-4.74,1.15-1.8-1.28-3.55-.06-2.3,1.61.74.98.6,1.12-.63.66-2.18-.81-2.27,2.26-3.2,1.73-1.91-1.09-2.73-.66-3.22,1.69-.38,1.84-.65,2.15-.93,1.05-.32-1.26-.68-1.3-1.99-.25-1.49,1.21-1.55,1.16-.86-.71.4-1.1.33-2.16-.16-2.34-1.23-.47-1.39,2.52-3.28,1.8-.87-.33-.98-.84-.3-1.38.74-.58.46-.65-.88-.21-4.87,1.61-1.78,11.9-4.35,6.18-1.29-2.87-4.51.22-3-.06,1.96-.35,1.17.94-1.64,2.67-3.05,1.88-2.88,2.33-.96-1.13,2.03-3.64-.61-3.95-.74-1.53-.1,1.86-3.19,3.98-4.86,3.34-1.46-.55-.26-1.97,1.51-1.77,3.08.33-2.49-.79-1.7-2.87.68-1.79-1.44-2.39-1.15-.9.43,2.25-4.23,2.42-1.39,3.49,3.47,1.32-4.63,5.58-1.41-2,.2-.46,1.5-3.48,2.43-3.71Zm4.86,2.36c-1.04.2-2.09,1.74-1.37,2.01-.26.7,3.07-2.34,1.37-2.01Zm3.86-2.1c-1.99-.7-.09,2.19,2.53,1.67,4.51-.89-3.61-4.4-2.19-2.53,1.37,1.83.26.69-.34.86Zm20.45-4.64c3.52-1.42,0-3.76-1.17-.64-.41,1.08-.2,1.19,1.18.64h0Zm53.57-34.64c1.9-.03-2.11-1.69-1.68-.72.52,1.16,1.78.22,1.68.72Zm11.5-7.78c.95-.43.99-3.72-.03-1.34-.2.47-.52,1.18.03,1.34Zm-93.84,55.59c1.01,1.32.5,1.71-.51,1.33-1.19-.45-.4-2.51.51-1.33Zm16.63-8.89c1,1.31-.85.83.28,3.35,2.1,4.67-2.84.92-1.42-3.13.23-.64.74-.75,1.14-.23h0Zm19.09-3.38c2.37,1-.9.99-1.34.03-.18-.41.42-.42,1.34-.02h0Zm8.78-6.54c1.07,1.39,2.88-1.67,4.8-.44,2,1.3-5,2.27-5.31.67-.17-.9.69-.7.51-.23Zm14.47-8.5c2.58-.5.95,4.81-.53,1.53-.44-.97,0-1.65.53-1.53Zm5.07-2.24c1,1.3.52,1.72-.51,1.33-1.19-.45-.4-2.51.51-1.33Zm23.2-21.17c1.5.57,1.73,1.18,3.24.05,1.79-1.34.85,1.38-1.15,1.39-2.19,0-.6,2.65-2.12,1.41-1.79-1.46-.56-3.79.03-2.85Zm19.43-13.45c1.71-.33-.69,2.8,1.27,2.42.77-.15.88.05.28.51-1.06.81-3.39-.76-2.93-1.98.3-.78,1.34-.86,1.38-.95Zm7.17-11.69c2.09,2.72,8.94-11.59,13.72-10.89,8.91,1.32-3.5,10.21-.32,13.05,1.31,1.17.22-1.58,2.46-2.35,2.25-.77-.91,5.93-3.06,4.4-1.88-1.34-2.22-.63-.77,1.6.93,1.43.81,1.96-.77,3.38-2.67,2.39-4.1,7.44-5.32,6.97-1.46-.56,2.65,3.96.03,3.02-2.13-.77-2.55,1.37-1.25,1.12,1.57-.3-2.81,4.32-2.55,5.67.26,1.32-4.97,1.81-4.87,2.67.11,1.08-3.18,4.06-.72,6.34,2.38,2.21-1.37.68-1.81.43-.85-.48-.04,2.43-2.08,2.43-4.57.02-5.97-5.48-2.69-2.87,2.7,2.14,2.99-6.93,2.92-7.51-.41-3.16,3.34-2.25,2.97-4.17-.13-.66-.69-.73-1.43-.17-.83.62-1.1.57-.83-.16.6-1.67,4.9-1.41,2.99-2.19-.87-.35-.08-10.64,5.2-15.36,1.57-1.41,2.03-2.25,1.36-2.5-.57-.22-.52-.96.12-1.73,1.79-2.14-3.01.45-2.27,2.61.39,1.14.27,1.45-.46,1.18-.55-.21-1.22.22-1.5.95-.67,1.77-2.83.98-1.42-.59,1.33-1.49-2.61-.63.76-3.17-.11.92,1.22-2.65,1.58-2.18Zm-.53,18.28c.85-.88,1.27-.96,1.02-.21-.52,1.65,1.37,1.2.55-1.2-.69-2.01,2.76-7.3-1.34-5.45-1.24.56-1.22,1.09.01.85,1.33,1.44-2.76,8.61-.25,6Zm-2.35,7.74c-1.32-.5-3.55.03-3.4.8.43,2.26,5.14-.14,3.4-.8Zm4.49-16.07c1.41-.27,2.42-2.74.51-1.33-2.37,1.74-.68,1.79-.51,1.33Zm3.9.96c-1.8-.66-1.11,5.01,2.95-1.91,2.25-3.84.22-.79-2.04-.4-1.34.23-1.45.47-.68,1.51.73.97.68,1.14-.25.8h0Zm-5.69,16.14c.23.09,4.92-11.19,2.07-6.84-3.6,5.48-1.6,7.01-2.07,6.84Zm3.5-9.85c.46.18,2.94-3.13,1.63-2.88-.95.18-2.33,2.61-1.63,2.88Zm-16.46,29.26c2.59-1.84-2.04,4.81.22,3.78,2.12-.95.76-4.03,4.19-2.31,3.15,1.58-.55-.6,2.46-2.43,1.38-.84,1.77-.83,1.26.03-.43.73-.15,1.33.68,1.45,2.66.39-2.99,1.35-2.98,4.13,0,2.33-2.28,1.05-1.24.25.97-.74-.65-3.84-1.01-.45-.33,3.05-8.43,10.5-.48,6.52,3.81-1.91-.23,5.24-1.47,5.22-2.28-.03.62,2.52-1.92,8.82-1.15,2.87-1.2,3.93-.17,4.32.84.32,1.01,1.07.43,1.94-1.34,2.05-2.7-.3-3.23,1.12-.2.52-.71.48-1.14-.08-.49-.65-.69-.54-.53.29.26,1.34,7.89,3.14,4.15,4.82-3.22,1.45,1.22,6.27-.62,7.69-1.3,1,.75,1.84,1.31.37.57-1.5,1.25,6.89,1.9,8.45.82,1.98-3.38,4.07.24,2.87,1.74-.58,1.85-.5.87.59-.75.84-.65,1.42.31,1.79,2.62.99,6.19,15.46,11.54,12,1.49-.97-.92,2.42,1.38,2.42,2.31-.01-.95,1.34,4.98,3.61,21.76,8.34,21.43,7.21,20.11,7.24-1.69.04-2.28,1.83-.84,1.55.6-.12.91.32.69.96-.23.64.48.43,1.56-.49,2.61-2.21,9.68-.88,8.25,3.42-.88,2.6,3.95,2.67,3.28,4.43-.6,1.57-3.91.52-3.36-1.07.52-1.56-5.57,4.34-4.9,2.43.52-1.48-3.59-4.03-4.14-2.58-.44,1.16,2.87.48,2.36,1.82-.56,1.47-3.09.18-3.1-1.58,0-1.95-1.75-2.92-1.39-.12.68,5.27-7.35-7.26-8.87-3.27-.45,1.19-2.51.4-1.33-.51,1.16-.89-.61-1.62-1.52-.52-.89,1.1-3.53-1.33-2.5-2.13,1-.77-.65-1.54-1.87-.6-1.07.82-3.79.46-.4-1.38,3.16-1.71,3.49-1.53-.46-.74-6.45,1.3-5.77-2.67-7.06-2.42-.62.12-.64-.29-.03-.97,1.27-1.43-1.21-2.67-2.54-1.27-1.54,1.63-1.52-3.51-3.37-3.15-1.57.3-2.51-3.83-3.93-4.58-1.74-.93-3.17-1.18-2.44-3.12,1.03-2.71-8.63-8.21-5.32-10.75.45-.34.27-.52-.38-.39-1.25.24-3.77-6.71-3.09-8.5.57-1.5-2.5-1.45-1.76-3.38,1.5-3.95-2.42-17.49,2-16.07.77.25.45-.37-.71-1.37-3.78-3.27,2.29-9.42.2-11.23-2.07-1.78,3.92-2.75,1.66-4.77-.95-.85-.04-9.19,4.1-12.09Zm-3.29,11.64c1.41,1.83,2.49-10.03.44-3.7-.25.77-.91,3.53-.44,3.7Zm.78,15.16c1.15-1.24,1.6-5.29.19-1.72-1.04,2.66.26,1.93-.19,1.72Zm33.69,59.38c-.5,1.31-1.53-1.32-2.01-.05-1.56,4.11,6.93.28,1.8-1.88-3.13-1.3.7.64.21,1.93Zm11.72,2.28c.46.18,2.83-2.29,1.37-2.01-.61.12-2.09,1.23-1.37,2.01Zm-40.16-96.01c1.69-.33,2.81,2.56,2.39.39-.21-1.08.17-1.12,1.48-.19,1.45,1.03,1.78.92,1.86-.66.14-2.52,2.18-1.65,1.48.2-.78,2.04,2.03,0,.81,3.23-.47,1.25-1.14,2.11-1.49,1.91-1.85-1.06-3-.8-3.6.79-1.01,2.66-5,.17-5.23-1.04-.37-1.9.91-1.87,2.73.06,4.16,4.41-3.93-4.02-.42-4.7h0Zm3.85,3.28c2.7.29,3.96-1.22,2.83-1.06-.57.08-8.4.46-2.83,1.06h0Zm3.92-9.98c.46-1.22.85-1.64.87-.94.18-.46-2.26,4.61-.87.94Zm-6.51,21.94c1.71-1.28,2.53-.29-.07,1.41-3.31,2.15-.11-.95.07-1.41Zm10.02-21.82c.03,1.8-1.7,2.58-.74.33.43-1.02.72-1.15.74-.33h0Zm-7.52,23.75c.46-1.22.85-1.64.87-.94.18-.46-2.26,4.61-.87.94Zm-6.04,29.61c1.82-.29-.74.02.05,2.57.5,1.62.44,1.62-.53.02-2.05-3.4.3-2.12.48-2.6Zm33.17,52.45c1.57,1.4,1.22,1.85-.46,1.21-1.78-.68-1.05-2.56.46-1.21Zm16.74,3.3c.71.93-.23,3.33-1.13,2.99-.93-.35.43-3.91,1.13-2.99Z" fill="#ff3131"/></g></svg>