<?xml version="1.0" encoding="UTF-8" standalone="no"?><svg xmlns="http://www.w3.org/2000/svg" xmlns:xlink="http://www.w3.org/1999/xlink" fill="#000000" height="31.5" preserveAspectRatio="xMidYMid meet" version="1" viewBox="29.1 34.2 41.8 31.5" width="41.8" zoomAndPan="magnify"><g><g fill="#ff914d" id="change1_1"><path d="M69.096,58.801c-4.004-1.401-2.765-0.848-3.798-1.535c0.9-0.913,1.721-1.746,2.542-2.578 c0.126-1.218,1.618-1.747,1.541-3.152c-0.513-0.719-1.118-1.326-2.199-1.297c-0.496,0.013-0.991-0.165-1.515-0.069 c-0.278,0.051-0.602-0.052-0.886-0.146c-0.46-0.152-0.904-0.354-1.414-0.558c0.381-0.665,0.699-1.272,1.284-1.736 c0.389-0.309,0.823-0.745,0.922-1.194c0.177-0.8,0.413-1.57,0.638-2.354c0.288-1-0.39-1.818-1.306-1.856 c-2.725-0.111-3.591,0.289-5.196,0.055c-0.197-0.029-0.434-0.04-0.604,0.041c-0.693,0.334-1.018-0.12-1.383-0.491 c0.344-1.049,0.85-1.997,0.23-3.026c-0.151-0.25,0.598-1.041-0.894-3.822c-1.302-0.885-2.514-0.528-3.664,0.31 c-0.786,0.573-1.591,1.134-2.069,2.034c-0.113,0.213-0.342,0.366-0.524,0.54c-0.441,0.423-0.916,0.815-1.317,1.272 c-0.279,0.318-0.524,0.627-1.016,0.641c-0.474-0.22-0.692-0.684-0.981-1.109c-0.72-1.058-1.47-2.099-2.253-3.112 c-0.478-0.618-1.093-1.076-1.915-1.186c-0.39-0.052-0.73,0.03-0.975,0.318c-0.749,0.879-1.312,1.872-1.279,3.054 c0.015,0.528-0.088,1.011-0.172,1.511c-0.63,3.746-0.578,3.955-1.054,4.405c-0.62-0.258-1.183-0.498-1.751-0.726 c-0.1-0.04-2.507-0.988-2.706-1.037c-1.376-0.34-2.423,0.389-2.379,1.8c0.062,2.005,0.342,3.983,1.525,5.709 c0.157,0.229,0.214,0.527,0.338,0.847c-1.5,0.629-3.322,0.378-4.63,1.372c-0.82,0.623-1.166,1.705-0.666,2.575 c0.43,0.748,0.96,1.456,1.538,2.098c0.61,0.678,1.418,1.142,2.139,1.7c1.106,0.856,1.588,0.517,1.622-0.691 c0.004-0.146-0.058-0.294-0.084-0.414c-1.35-1.047-2.475-2.301-3.268-3.705c0.857-0.223,1.513-0.555,2.299-0.629 c0.74-0.069,1.472-0.368,2.174-0.649c0.425-0.17,0.708-0.54,0.903-1c0.349-0.826,0.068-1.573-0.37-2.174 c-1.104-1.51-0.365-2.704-1.345-4.167c-0.219-0.327,0.046-0.565,0.277-0.646c3.109,1.454,3.556,1.827,5.032,1.853 c0.326,0.006,0.815-0.141,0.953-0.38c0.409-0.707,1.101-1.22,1.331-2.045c1.413-5.091,0.284-6.121,1.085-6.196 c0.364,0.454,0.796,0.892,1.107,1.402c0.587,0.964,1.309,1.807,2.055,2.645c0.47,0.528,1.103,0.72,1.652,0.597 c2.793-0.622,2.832-0.613,5.022-2.938c0.594-0.63,1.206-1.233,1.965-1.692c0.749,1.449-0.907,1.086-0.179,4.996 c0.234,1.256,0.614,1.703,1.862,1.869c1.716,0.229,3.439,0.528,5.178,0.119c0.289-0.068,0.612-0.031,0.913,0.005 c0.41,0.05,0.581,0.456,0.338,0.807c-2.031,2.935-2.613,3.584-2.857,4.342c-0.087,0.27-0.119,0.68,0.027,0.878 c0.439,0.596,0.852,1.228,1.745,1.317c1.205,0.121,2.399,0.366,3.595,0.572c0.137,0.024,0.258,0.134,0.405,0.213 c-0.042,0.423-0.081,0.817-0.109,1.107c-1.431,0.79-2.524,1.749-3.315,3.039c-0.603,0.983-0.461,1.64,0.469,2.348 c0.863,0.657,1.792,1.15,2.865,1.375c0.483,0.101,0.994,0.218,1.294,0.752c-0.339,0.537-0.645,1.072-0.999,1.573 c-0.434,0.612-0.624,1.281-0.623,2.022c0.001,0.847,0.357,1.092,1.166,0.847c0.39-0.118,0.573-0.39,0.766-0.699 c0.435-0.697,0.808-1.455,1.354-2.053c0.67-0.733,0.741-1.66,1.056-2.505C70.907,59.392,69.905,59.083,69.096,58.801z" fill="inherit"/><path d="M60.001,59.521c-0.254-0.831-0.637-1.631-1.36-2.179c-0.52-0.394-1.08-0.735-1.575-1.067 c-0.018-1.254-0.06-1.279,0.363-2.009c0.628-1.083,0.783-2.3,1.124-3.468c0.44-1.508-0.126-2.59-1.306-3.185 c-2.466-0.17-3.472,0.623-4.888,1.537c-0.471-1.308-1.462-2.068-2.281-2.96c-0.634-0.691-1.481-1.099-2.402-1.296 c-0.82-0.175-2.046,0.285-2.268,0.942c-0.321,0.951-0.761,1.854-0.561,2.972c0.17,0.951,0.058,1.984-0.215,2.955 c-1.711,0.434-3.23,0.85-4.183,1.121c-0.667,0.19-0.99,0.69-1.115,1.337c-0.175,0.908,0.099,1.705,0.575,2.473 c0.658,1.064,1.78,1.67,2.532,2.635c0.548,0.703,1.075,0.493,1.588,0.095c0.497-0.385,0.544-0.905,0.079-1.289 c-0.391-0.323-0.827-0.593-1.216-0.918c-0.761-0.634-1.263-1.407-1.231-2.39c0.425-0.781,1.292-0.689,2.992-1.156 c2.074-0.57,2.277-0.825,2.481-3.016c0.002-0.022,0.097-2.311,0.152-2.921c0.024-0.27,0.179-0.529,0.324-0.932 c0.527,0.366,0.998,0.597,1.343,0.95c0.819,0.837,1.707,1.619,2.211,2.73c0.291,0.641,0.856,0.797,1.528,0.521 c0.425-0.174,0.938-0.3,1.222-0.617c0.745-0.831,1.697-0.777,2.79-0.909c0.031,0.401,0.067,0.601,0.057,0.798 c-0.071,1.354-0.624,2.578-1.137,3.792c-0.262,0.619-0.457,1.218-0.583,1.875c-0.114,0.592,0.057,1.015,0.445,1.377 c1.253,1.169,2.178,1.421,2.075,2.625c-0.06,0.704,0.014,1.438,0.157,2.133c0.088,0.427,0.378,0.831,0.644,1.196 c0.28,0.385,0.73,0.402,1.073,0.081c0.58-0.543,1.015-1.142,0.828-2.023C60.139,60.736,60.178,60.097,60.001,59.521z" fill="inherit"/></g></g></svg>