<?xml version="1.0" encoding="UTF-8" standalone="no"?><svg xmlns="http://www.w3.org/2000/svg" xmlns:xlink="http://www.w3.org/1999/xlink" fill="#000000" height="707.2" preserveAspectRatio="xMidYMid meet" version="1" viewBox="-5.8 -1.8 778.5 707.2" width="778.5" zoomAndPan="magnify"><g fill="#f3848a" id="change1_1"><path d="m61.4656142,551.0277683c.1794984.6002899,1.1428483,3.4863894.5022448,3.737393-2.0027317.7842022-11.7133029-.1085818-12.011388-.5011243-5.1257103-6.7426677-12.9539019.270719-11.9278183-8.9357855.6473714-5.7966226-3.5193464-6.4713602.1430102-15.0010673,2.3767359-5.5347314-14.4472701,1.2105846-5.5653343-10.5186087-1.490664-.5829285-3.069129-1.6837542-4.7193376-.4587509-3.0223417,2.2425535-7.5910183-1.3944969-7.5848389-3.2227327.0885722-25.6079539,12.168817-11.0017832,18.1181602-24.0110062,1.5613981-3.4163556-5.3840703-2.7657473-5.1633755-10.7946243.0850411-3.0976723-.8312837-5.7507181-4.6604856-5.936396-1.8791427-2.8260705-4.2932495-4.5065879-7.9108786-4.3679916-5.3793622.2068646,3.1933066-10.5236111-8.8919406-12.6002021-5.1492511-.884839-3.0917318-2.3708507-7.9255916-8.7609952-2.2263691-2.9437744,2.4026307-5.6177127-.9306885-6.1956388-2.4553583-.4257938-3.7721706-.9104396-2.3547214-3.9860424.8112741-1.7599675-.0285432-4.2270412.1721419-6.3477711.3107383-3.2642233,3.9377837-3.7974219,4.624586-.7494796.552914,2.4511836,2.4394132.5305503,3.1656462-.7038693.870126-1.4815978-3.0547103-4.5919232,1.104651-6.1735693,2.7607448-1.0499188,1.7902762-6.0367386-.3854802-5.3569986-15.0766916,4.7096271-3.5693706-4.2673547-5.277254-7.1231455-1.5144998-2.5321051,2.2969915-2.047165,2.39498-3.5061048.0888664-1.3156353-.8218674-2.6857086-.815688-4.0292986.0050024-1.111419,5.753072-.8939611,4.9612191-2.3102332-3.2601036-5.8295797,5.3178619-8.9934604,2.1352039-13.7804779-3.467612-5.2154596-5.1848566-8.9802187-9.5958101-9.2226888-1.1550245-.0635601-1.3786619-.9336862-.4234948-1.1805701,3.4428389-.8901357.205099-3.7056129,1.655211-5.2310554,3.3575035-3.5328824,4.0237628-8.9081251,10.0945801-8.4520225,3.2018401.2407045,8.4803268-2.749563,6.516676-4.5574949-2.8222451-2.597725-4.4074223,1.956533-6.8464859-.1727305-6.8032852-5.9393386-9.6361788-3.2486275-8.7713494-7.9788528.9619351-5.2613641-8.9437303-4.1696605-2.7316131-8.3181343,2.0657033-1.3797839,1.9736-1.5372129-.1230006-6.2191796-5.2413544-11.7050639,17.3118886-4.3894725,8.9431418-12.546941-3.2939434-3.210668,5.8478237-12.5548861.3651763-10.8511222-5.3090341,1.6505029-8.1212744-6.5749396-4.3200271-4.2817735,4.6139926,2.7828144-1.1935175-17.1682903,4.1302296-20.468119,4.3806446-2.7151346-1.2214721-4.5939831,2.9679037-6.7700338,5.0521453-2.6239141,9.5084147-11.1830472,9.2612366-13.5262375-.2127498-2.0209759,3.690017-.6432518,5.2763713-2.2702139,5.3976063-5.5373798-9.7749586-4.6634284-10.6857479-6.5961263-1.6225482-3.4419562,3.3271948-9.1903202,6.7150071-9.5449032,4.1829578-.4378585,4.1002151-3.2159647,8.194545-10.3697132,5.7513065-10.0495586-2.8307786-10.9494049,2.3629057-16.0483377,11.1459701-10.9402829,9.5034123-9.6578989,11.4587682-10.6048268,9.5310727-4.6166411-2.6439237-9.0122931,4.5321884-12.717906,1.4171549-.731824,6.6935261-.9866529,3.9642671-5.2919672-1.7408406-2.7475032,3.3419078-4.5733849,3.3407307-.5023014-.001177,2.5653564,3.175651,6.4445826,6.5852952,4.9706355,1.901744-.8221617,4.0313584,4.2320436,4.3326237.6176512,1.0437393-12.5516492-10.6942815-4.115811-10.5948217-15.9044447.1332997-15.9253371,9.8129736-3.7376872,20.1794497-13.5483069,4.2423426-4.0142914,10.5615703-4.1375862,9.395419-7.4756687-2.4785497-7.0963679-6.5749395-2.6545171-8.9628572-5.5100136-1.648443-1.9706575.6679696-4.2105626,1.299451-4.3291493,5.6671482-1.0655145,12.3644997-12.0458167,13.6730727-12.8462032,15.0822826-9.2226888,47.3725801-1.5857657,46.1234475-13.9220168-.2839606-2.8057666,3.4649083-5.6553779-.4357987-5.718938-16.0880623-.2627739-11.8789711-4.45009-7.2014184-9.2668277,1.4648249-1.5083754-2.4475942-3.6020335-.3022047-5.6777417,11.7821597-11.3984453,17.1170886-14.9430981,24.0239531-25.87779,5.5136037-8.7271554,3.552892,1.1820414,13.0319401-11.4396416,1.8935021-2.5212175,2.4237581-6.3763143,4.7066251-8.2092582,3.6814835-2.9564276,25.0342068-6.2959814,31.1591631-12.5607713,2.5147437-2.5721244-2.2487329-5.3266898.491708-8.9219553,6.0159063-7.8914577,3.990162-7.4644868,12.092898-9.2188634,3.9792744,2.2690369,8.3472658-.3769467,12.3568489.9625236,5.2634238,1.7582019,2.8531424-8.0168124,9.462216-9.3033159,5.9375729-1.1558523,10.967943-5.5744565,17.4287712-4.8441038,2.8716192-1.5572225,5.6358952-3.1220958,6.0034256-6.9436471.6664983-6.9407045,10.3120381-7.0295709,13.0660149-2.0989547,4.3965347,7.870271,6.77945,4.7378761,6.6443848,7.7463877-.1441873,3.2071369-.4013703,7.8479073-3.3033598,8.2016075-13.2257979,1.6137204-12.2000085,9.7555932-15.8708987,4.8817691-9.5772715-12.7187887-11.3271728,26.9321227.6779744,19.3628794,4.2005577-2.6483377,3.6965525-4.0896219-.0638544-8.1542316,8.0406472-4.3697571,12.2203744,1.7861566,15.3097454.4187316,1.8664895-.8259871,2.9834994-3.3766305,5.5050111-2.5771268.8921955.2830779,1.4504062.3378102,1.7464315-.5755721,1.2229434-3.7753525,4.4677455-4.5271861,7.7081337-4.7358163,10.9096796-.702398,12.0764194-15.6619747,28.4510907-3.6276341,7.0817181,5.204572,12.8303129.3310422,18.7593522-2.2493215,4.7522947-2.0680575,2.8125345,4.3671088,6.3948525,3.2074312,4.1411811-1.3409416-2.4455926-2.8669726,2.5880143-7.8031798,2.4411787-2.39498.257183-1.3197549,11.0020771-.461105,3.9236593.3136809,1.14879,3.9801572,1.0605121,5.6583205-.1762616,3.3689798.4961219,1.2467785,8.6886071,1.0999429,7.2726293-.1303571,4.6940313-7.6392771,14.0400146-1.9721288,23.7953786,14.4296149,17.039175,4.3900611,23.7714782-.5873424,2.4011594-1.775269-4.4392023-7.4194651,1.9847819-11.9139883,2.5424041-1.7790944,3.6326364,5.1639642,10.1987481,6.4130968.7359436.1400676,1.3132812,2.387035,1.5239712,3.7303307,1.0384426,6.622904,6.4254555,7.1749352,5.8934998,4.2373403-1.6529228-9.1503009,13.9298956-11.8004041,23.5996311-6.0273223,10.08804,6.0243797,3.6914219,8.807194,15.5447924,9.0387764,1.7175941.0335456,5.3617066-7.9570776,5.7433615-3.374865.5120119,6.1585621,2.9711405,4.2288067,6.7662083,3.0900215,2.1224954-.6367781,4.0166453,2.0044973,6.1288417.6267732,1.7938073-1.1705652,3.2898238-2.7987044,5.0830426-3.9710352,15.5728136-10.1807985,13.2872982,17.7991831,22.7751148,14.2754228,11.9793137-4.4474417,16.3705517,7.197299,20.7491365.2486495.4640476-.7374149,1.4868944-.6523738,1.7234793.0291317,1.3020993,3.7432782,4.5469014,2.720137,7.2555622,3.120036,8.5508936,1.2617858,5.1324783,8.571492,7.2640958,10.0274892,5.4287978,3.7082612,11.8136455,1.5024902,13.5709646-.8898415,3.6726557-4.9985902,15.4327459.3345733,18.0996916,6.690878,2.3113405,5.5094251,8.6585229,2.8734464,8.5846637,10.0807502-.0529668,5.1104089,9.7903156,10.1769731,14.0688521,6.7712109,3.0161623-2.4011595,6.8071104,4.0660811,6.4872501,5.1498397-1.4921207,5.060679,3.9410206,1.8720805,4.5554349,4.8817691.6482542,3.1756511-3.5887917,3.1179762-4.4077165,3.3966402-2.1292634.7253503-2.0601124,2.9352409.0470816,3.6229259,4.543076,1.4821863,10.6510253-.4428609,10.6572755,5.6244807.0031661,3.5932057,4.9458468-.0244236,4.8201979,3.8239053-.0538495,1.6502086,2.3237691,8.7936581,5.933159,6.9230489,8.2710526-4.2867759,10.7613727,4.5392507,16.1433832.0073565,3.4587289.0829812,6.9321708,2.0259783,10.37089-.0582634.7394747-.4481576,1.2897404-.3195661,1.7894652.4708156,11.8038632,18.6737231,3.4889659,21.4459441,6.0693295,22.2754623,2.7522113.884839,4.476279,4.4336115,8.353151,2.6665818,6.3683691-2.9028723,7.81495,12.9527252.9795906,11.4499407-1.8997408-.4178488-3.5690763,4.031947-2.9749659,4.3238526,4.3235582,2.1213185,3.0862682,5.9096184,3.0547103,9.4010102-.0341341,3.762405,3.7821203,6.5802363,3.4581404,9.9553955-.4243225,4.4241952-3.2612806,8.1692389.3901884,12.0555273,2.8993411,3.0847249,1.7405463-4.2670605,6.6231981-1.6705125,4.0607843,2.159278,5.0312529,4.4430278,5.4953005,4.7428785,3.8339101,2.4800211,11.1127188-.7868505,7.1494072-7.0610567-6.4667246-10.2390619-.1995808-21.1628662,10.3593412-7.1496289,3.3074794,4.3909438-1.6802231,5.6515526-.7827309,11.148913,1.5189687,9.2918398,16.1433832-6.3039264,11.5102637,16.609491-.7491853,3.7050244,5.397312,1.9218104,2.9287671,6.1832799-1.3105596,2.2625631-3.908652,3.1956608-2.7792832,5.0497914,2.5541745,4.1923185,4.1537704,7.9764988,1.4436382,10.5612763-4.7052131,4.4877553,7.1281478,6.7806272-.7147569,13.0839651-2.8213623,2.2675656-2.9849707,10.6833941-.1627256,9.5304845,4.1399402-1.6908165,14.96605,3.6661821,9.8833751,9.8662348-3.424374,4.1784883-4.7570763.4940621-3.6792029,6.093825.3566428,1.8585445-2.2098906,3.94926.1103474,4.2773596,1.1361368.1609601,4.6572488-1.6184286,4.5663961-3.830379-.6088969-14.7933199,25.4536876-.1471299,17.2017619.0229523-3.8515656.0785674-3.9245421,3.3642716-4.9682813,5.755132-.2621854.6011726,2.3187667,3.0594185,2.5368132.6947472.1742018-1.8850279,3.8122088-4.8296851,4.2608809-3.1856559,1.9488822,7.1475691,6.4431111,5.1830911,4.8941279,9.7614783-3.5584829,10.5080153-4.4047739,8.4938074-4.0313583,14.2165708.2457069,3.7782951,6.2880362,2.0268611,4.1134568,8.1045018-2.1913522,6.1211911-4.7052131,1.6343186-4.4065395,9.0476042.0803329,1.9980236-.8618868,2.1260266-2.6089068,2.0562871-1.792336-.0712109-10.2334707,9.2815407-5.6806103,9.3156748,11.5234316.0868066,10.5435467-4.6796126,18.6392204,3.0196934.6744433.6417805.875717,3.6991392-2.0330405,2.6492204-7.6901098-2.7757521-3.7977161,2.6848259-12.6861256,7.9135272-9.3180287,5.4814704,2.1416963,7.9197066-5.4588123,17.8080109-1.8673723,2.431174-.1897975,1.086407,11.1091877,11.3796127,4.2152707,3.8395011-2.6262681,7.7846414,3.5484781,17.3689754,4.369757,6.7856296-1.935052,2.4906144,5.6578062,12.1517502,1.6513113,2.1013088,2.5300452,2.7769292-1.4781409,8.2807633-10.0936973,13.861105,9.8271725,10.1681453,4.9321618,21.9370636-3.6309452,8.7265668-11.4070529,8.9266635-8.9205582,13.4064737,2.0418683,3.6814836-2.7957617,1.7370152-1.7888049,7.1325618,1.1617374,6.2203566-5.555918,4.2632351-9.3389211,4.971224-4.9420922.9248584-4.2055601,6.1350213-7.0998988,5.4861786-2.7110149-.6079406-4.6448899-4.9641618-8.3822827-3.4195924-3.960736,1.6366727-1.9306381,5.852532.89043,17.7500418.4496289,1.8959155,4.3868241-.2745443,7.8832182-.9083798,9.5042951-1.723185-4.3418024,15.234121-8.7577582,15.8052791-5.7404189.7421231-7.9211777,10.2646625-11.9430466,5.8890202-1.6717627-1.8176424-2.3935818-5.5918178-6.4452441-4.0357723-3.36486,1.2920945-3.1747683,5.3802451-1.7373095,5.7292371,5.3511132,1.2985682,12.5216344,2.003026,13.1460535,3.5402389,6.985726,17.1944794-5.7704334,4.6775528-10.8631865,11.4834863-4.3944748,5.8754842-7.0928366,3.2756994-.4940621,9.2441697,1.1111247,1.0063683.9937151,3.1038517-.2510036,3.5832009-15.2297067,5.8657737.2359963,15.1693838-14.5994024,22.2307348-10.3897226,4.9453292-4.2105625,6.3048092-15.8959107,7.3158857-.5999956.0517897-3.1185646-1.8838509-.8886644-3.9560279,3.1972043-2.9717291,10.6695636.0650314,8.6786023-5.2010409-.7320458-1.9374061-1.3841978-1.4418727-8.1195088,1.6905222-9.1806094,4.2691203.498476,10.7646098-5.2849048,10.6645615-13.9676267-.2439413,4.0746145,9.5593219-6.9895514,15.1199482-8.0624224,4.0519566-3.3778075,6.4142738-8.9560892,6.5967148-17.784764.5820458-5.8263427,2.8734464-11.9398115,8.6841934-.3873172.3684132-.6574476,1.4250999-.4158604,1.8049892,3.8921735,6.1191313-7.6022002,12.3233036-13.2001973,11.2704423-4.0843251-.7680179-7.368558,2.5203347-11.405213,2.3614344-1.2014625-.0473758-1.4198032,1.2373622-.9419254,2.334951,2.1583951,4.9544512-3.5852606,13.7495806-7.2511483,14.4655145-4.4341999.8651236-12.1676399-6.7617946-13.7704727,2.6233256-1.5842944,9.2797752-5.6212437,6.8179982-19.4243792,11.7383153-8.1359873,2.9011068-8.0638937,13.2872986-17.4434227,9.0090562-.575572-.2621854-1.3215205-1.0237296-1.315341-1.5472177.0470816-4.1787826-2.5812464-6.2335983-5.797211-8.1218631-8.6338748-5.068624-4.5015164-31.5346393,15.2985635-31.4699021,6.6693968.021481-1.7770345-7.229079,3.6856031-8.2686987.9772366-.1856779,2.6092707-.8359919,2.6577539-1.3877289.6297158-7.1496289,14.187803-12.5472353,16.7184368-18.8105539.5307745-1.312987,6.9739558-.5620361,5.2130353-3.6594141-2.765453-4.8632307,2.8410777-7.6866529,8.1312792-9.5063552-3.5343536-7.1490404,9.6790854-17.8356713,8.4649697-19.3302166-1.1911634-1.4624709-8.9260747,2.7410295-10.4947734,4.0790285-.831578.7097545,2.9423735,4.7372876-1.4126707,5.8063332-6.5285167,1.6022443-11.7831128,3.5882033-11.1984187-2.6768809.3707673-3.9748606-2.1966489-6.1370811-3.514344-4.9217884-11.6852786,10.7810883-3.4657911,17.7376829-15.2091085,21.6539857-4.06049,1.3541833-7.8217179,4.0084062-11.9413542,4.6628398-3.7626992.5973473-5.2313495,3.255984-7.6124993,5.1851509-7.9888575,6.4725372,10.0978863,15.3580043-10.2972563,19.977588-16.364441,3.7076727-4.3686488,7.2941104-24.1584986,11.6965304-11.2071762,2.4929685-8.1368701,9.9465677-18.0242914,9.4836972-36.1068462-1.6937591-24.6669106,23.2750626-35.9067496,23.2827134-51.3927565.0358997-4.5238824,11.6014845-47.8651708,13.0412974-7.4739029.248061.3425183,9.1302912-11.8824369,13.0983838-1.3930909.451983-2.0466418,1.4080329-2.1019626,2.0112653-.2704247,2.9231763,4.0540163-.739769,8.4929244,6.6970574,3.1265097,5.2390004,13.394703,5.423207,14.0571475-2.9137599.6475998-8.1674733,4.8357986-8.9743335,8.241855-7.4424173,7.0728269,3.181242,6.8647853-6.1785718,18.3747547-4.9111951,3.7388642.4116694,19.7610123-11.6850543,40.4807229-11.2960429,6.3003951.1182924,10.4394525,1.2885634,12.5769552-4.8379244,1.8155825-5.2004524,2.2051824-1.6304932,9.1127035-6.1944618,4.416182-2.9167025,6.8026284.7765515,9.028409-1.1879266,2.2125389-1.9530019,9.30361-12.870921,20.1356738-3.6803066.6967382.5911678,1.3452867,2.060701,1.090752,2.8081207-4.1926127,12.3050595,23.8662299,17.1988933.7259388,25.9201634-24.7907939,9.3453951-38.904962-2.2914006-50.7150764,14.3304493-1.3235803,1.8626642-1.5322104-.4581624-1.7275989-1.0746366-1.4203917-4.478339-4.4268434,1.5439809-7.11932-1.2506039-6.0514514-6.2818569-8.49469-11.9946155-7.5507047-4.3791734.6614959,5.3390487,5.0312529,2.666876,1.3477096,7.9815012-3.1977205,4.6119329,4.4877552,1.7864509,4.8617593,4.5925118.2112785,1.5887083-.4955334,3.4610831-1.7314243,3.5243489-3.4434274.1759673-6.1862224,4.3906496-10.0966399,1.723185-2.1692827-1.479538-.5461461,5.2163424-13.9629186,2.7839914-4.7979049-.8698318.1639027-5.1518995-2.2110676-5.5000088-4.2573498-.6235364-6.7044137.4575739-4.4845183,4.7405244,2.4779612,4.7784839-.7076947,4.5351311-7.271158,6.8491897-8.0703674,2.8434319-9.54608-4.788783-17.4648378-.1483069-.7109974.4166718-5.9138037-3.4410734-4.049014,1.2988625,1.7479029,4.4439106-2.3344282,1.9541789-3.5208835,2.7657473-22.1580521,15.16497-58.383485-19.5444377-70.7973564.029426-3.071547,4.8435153-15.8653716,13.822557-14.3716457,7.1369757,2.8439568-12.7302649-14.248414-5.4426281-10.6781607-4.1352321,4.0554876,1.4854232.0026483,5.9640564-1.0313804,6.0829373-18.3341469,2.1039571-5.7900857-1.0169617-30.1263114-7.214366-4.9879967,3.5443586-3.7644648-3.0196934-8.6438796-2.7828144-1.6590364.0803329-2.7686898,2.2675656-4.8494004,1.2385392-2.1195529-1.0481532-4.7228687,2.5247486-6.7176554-.6205938-1.2361851-1.9488823-3.7532829-2.9334753-2.9496596-6.3180509.4643419-1.95771-3.1326891-3.5914401-4.8037901-2.2393166-5.6747989,4.5910405-22.9819794,6.9742501-21.3544288-.5034784,2.2007685-10.1178269-6.9436469,2.9852651-12.5707758-4.9362071-.4349159-.6123545-3.1406341-2.1042514-3.7391584-1.4627652-2.3402477,2.5106241.7303527,1.1429048.4640476,11.0488647-.0641486,2.3811498-1.9712459,4.7025649-.2595371,7.1396241-2.1345601,1.6522684-17.005798-5.3202161-16.7948742-17.0711845.0794501-4.4239009-4.2794193-11.117133-7.617796-8.2127893-4.4127189,3.8374413-4.9738723,2.1645746-3.0191049,4.7328737,4.0419517,5.3093285-9.5351924,8.1504063-7.5860159.6388379-3.3392594.1012254-10.0766303-7.0280996-12.0617064-7.3058808-.4834687-.9204445-.7538934-2.3846809-1.4854231-2.6701129-11.9345862-4.6625456-10.9944264,1.9547675-12.2100133,1.5519259-3.2321489-1.0737538-7.1384468-.0432562-9.7920221-2.7916422-4.1797243-4.3291493-12.5908445-10.9452853-6.5782354-10.7001669,1.7317775.0700338,3.8189028,1.4233344,3.6970793-.1515438-.2144564-2.7704555.3072072-1.4651192-8.852804-2.9979182-1.0552154-.1765558-1.3850806-2.628328-.0506127-3.1833019,1.6890509-.702398,5.1513109-.5025956,6.191519-1.1764504,4.5015854-2.9164083,6.5049056-8.2869428,10.9246868-11.321055-3.7553427-4.9824059-11.5608764,2.8931618-18.6637178-.4731697-4.4450875-2.1068997-5.7795554,5.3046203-10.5071323,3.255984-5.3979005-2.3393649-13.6036274-2.478844-13.1481134-11.4378761.1424217-2.802824-4.8785321-12.6505205-7.9367735-13.2905354-3.9280732-.8209847-7.2702752-2.8298959-10.7769684-4.6175238-10.2905571-5.2466512,7.4959724-6.9457069,4.6781412-11.3793184-.7088717-1.1146559-2.024507-3.1059116-2.4067504-2.9611358-4.7534717,1.8029294-6.3565987-5.0518512-14.105046-1.7543766-3.2159646,1.3688963-6.8412445-2.0701173-5.3720057-5.1842681,3.2403882-6.8683166-3.9616188-7.3632615-6.3030435-10.1687338-6.2541964-7.4945013,1.724362-8.4637929-4.664311-11.6450349-6.8079364-3.3892837-10.9617636-1.8785542-11.2498438-7.9482498-.2354078-4.9453292-.4210857-4.8032017-3.5278799-3.5372963-2.1745794.8854276-.2972023-.2180465-1.1958716-1.7414291-4.5521981-7.7210813.7739031-12.3262462.2115727-15.2935615-.1532528-.8071545-1.0025429-2.3128816-1.9833106-1.7770346-11.5008474,6.2865651-2.4523606,9.6317098-8.1053843,14.5128904-4.541899,3.9218938,4.165835.5496772,10.3297502,4.4315517ZM510.0036079,69.9613523c2.4458869,5.8654794-1.0613949,5.188682,1.4448153,6.0229084,3.001155.9993061,3.2874697-7.1128464,9.5431374-3.1944837.9954807.6232421.55056.6906276,3.2486274-1.5578111-2.7530941-3.0326409.2230489-1.5934165-14.2365801-1.2706136-.641192-3.0261672-3.6573542-1.3109271-5.2680643-2.4043963-4.564919-3.0967895-9.03443,3.913066-5.6345531,7.4218192,3.659414,3.777118,9.0440729-3.8127234,10.9026173-5.0174228Zm12.9745001,306.3979541c-40.7949923-18.1187492-3.2612806,11.2380737,0,0,6.9671877-1.9697747,3.4652026-6.8012254.0567921-6.2530195-1.429808.2298169-.8668892.3531117-.0567921,6.2530195Zm105.5506717-217.7881071c-.3233914-8.2380957-6.5496331-.3745926-1.8400061-.3548772,2.6342131.0111819,2.1386797-.2056876,2.137797,2.1998858-.0026483,3.928956,6.4516446-.3230972,6.3495365-3.6726558-.1377136-4.5277746,3.6149808,1.2567833,5.9084412-3.490509,1.6290219-3.3704511-4.6728446-6.9957311-7.937362-4.3220871-5.4858842,4.4924634,2.4049848,8.6674206-4.6184065,9.6402433Zm-75.3531495,118.5490099c5.6706793-.9401599,10.4668187-5.529729,14.4013656,2.4020423.7427116,1.4989591,3.9242478,1.993904,4.3586446.2689534,2.5247486-10.0348456,11.3533538-6.2206509,7.2516674-10.006891-3.1888927-2.9449515-4.6554832-.415789-12.6066755,2.6553999-3.0514734,1.1788045-13.4294257-5.0330186-12.1864726.928978.2436471,1.1682112-.8080372,2.4467697-1.2185296,3.7515174-17.0644161-18.2243885-16.1578019-2.9955642-13.3052481-2.5588827,7.4450655,1.139668,5.9440466,18.4877509,13.3052481,2.5588827Zm153.1295279,47.4508543c-5.160066.0061795-3.7791777-2.2605033-13.8319005,9.4066011-1.8592055,2.1572182,3.1741073,3.5611314,4.8160766,4.0719663,4.9985901,1.5551627-.7615442-4.5321885,3.241271-4.9682814,15.972124-1.7414291,19.7168734,11.5432211,11.0629889-17.1538715-1.1334885-3.7571084,4.9653387-4.6760815.5149545-6.6873468-3.1596881-1.427454,3.1877157-1.9235759,1.2791471-4.6028109-8.3228423-11.6782863-3.0008608-2.0468708-24.9158543,1.2956256-4.9473889.7553648,6.1735692,10.2779042,15.9677101,10.2628969,6.6493872-.0102991.6300101,9.6473056,1.8656067,8.3752207Zm-435.4888081,86.0783304c1.6713953-.4134349,3.3536782-2.409693,4.929439-1.1955773,2.4329395,1.8744345.0411964,3.777118-.726233,5.5935834-3.2845271,7.7719882,3.0500021,4.6357679,4.3359172,5.3146252,2.5115068,1.3259344,2.7163116-5.832228,3.2162589-6.4331064.9469278-1.1399622,3.2359743-1.0999429,4.8644076-1.7611445,1.9800737-.8039176,4.753766-3.6326365,2.7886995-2.7928192-2.4087479,1.0299091-4.8205629-4.4383197-7.0439895.1097589-1.6207205,3.3180728-3.5128106-6.2132944-7.4597785-8.5535421-.6420747-.3804778-.4631648-1.9891958.603821-2.717783,1.6881681-1.1517326,3.9118889-.3604682,4.6195835-2.1057227.8919012-2.1992973-3.0655359-8.1780667-7.6698799-5.8522377-3.7856515,1.912394-2.4917914,6.1238394-4.9047212,4.3126707-6.1126574-4.5892749,2.1845843-8.5623699,5.1948613-12.2459133,1.8223505-2.2293118.0579692-4.0242962-.6747376-5.9037332-1.5563397-3.9928104-17.3107115,5.3970179-22.5364701,5.332575-.8418771-.0102991-1.1337827,1.7490799-.4737582,2.7219026,3.2068426,4.7278712,4.0189994-3.4963942,9.9768762.1942114,5.5041283,3.4098819-.2465897,8.9140103-3.2780534,8.7654091-1.9959638-.0979885-15.6834552,1.5307392-15.5216124,4.6410646.2486495,4.7620054,4.3320918,2.1301463,6.4495848,3.2295006,2.1860556,1.1346656,3.2039-.1953885,3.7330403-2.2034169,1.3199878-5.0150687,2.6130265,11.9857877,3.5151654,14.464926,2.0412798,5.6121218-17.6729453,2.6762923-12.503096,5.5214898,4.8594664,2.674821,7.1169659,12.4410075,19.1777895,10.8269929,5.6509639-.7559533,1.7637928-5.7739646,2.4376476-11.5832404.5567394-4.8014362,6.0340901,1.5757609,6.3495365-5.0291932.1233566-2.5815407-.0303088-2.016562.5997013-2.6512803Zm327.6270205-90.40336c-10.5194912.4396241-9.1503006-.4767008-8.9769817,3.935724.1606658,4.0857965-4.256467.7444771-8.0032762,1.956533-1.6507971.5340814-7.4630153-5.8722474-3.6023276,4.5215952,7.4185821,19.9817076,7.990623,19.4817603,6.9516617,21.019856-4.1255216,6.1053011,7.5915371,4.7999649,6.0855158,11.338122-4.3815274,19.0168299-13.1757738,3.3657429-18.011344,14.6647284-4.7172778,11.0226756-8.0091614,7.447714-4.8947164,12.4666081,2.1105002,3.4022311,2.1189643,1.9765427-1.0249066,4.4553867-3.9848653,3.1423998,1.9385831,3.6614739,2.8925732,6.5843559,2.7607448,8.4640872,7.3282444,4.2547016,9.3789404,12.0984892.4631648,1.7699723,1.9244586.7665466,3.1088541-.8439369.8521762-1.1585006-3.7338617-4.9097238,1.6470415-9.5507884,2.5252673-2.1781106,4.7607585-4.2570557,2.4743603-8.1877773-.9378058-1.6128376,3.5756199-8.7174448,2.5265141-11.1712768-2.2042997-5.1574905,11.8089373-10.6045325,16.2649124-9.8112082,6.3754314,1.1346656-12.8014754-10.7187053-4.5518336-17.9298345,10.3961966-9.0873293,9.3692301-1.881791,15.5806884-11.8012869,5.1183538-8.1730643.0794501-5.4738197-2.5353419-7.7243182-8.6123938-7.4115201-12.5419383-5.3455224-16.3631952-11.2548465-1.2791471-1.9786025,1.3585972-3.0291098,1.0528613-4.766125,9.5599102-5.0892222.3407528-8.391405,0,0Zm-260.9698346-71.1661296c-.7830251-.7995037.2327594,1.4112697,2.1957661,1.630199,6.2085861.6926874,2.2111313-5.0280162,6.7332512-.7535992,1.6322587,1.5436866,1.533976-.5249594,1.7417234-1.1738021,1.4171549-4.4259607,1.4704159-4.5333656,4.7887829-1.3347622,2.6216239,2.5265141,4.2911897-.0729764,7.665466-3.1956608,5.1595501-4.7746585-1.8691378-5.3905442-5.6842153-7.0357504-4.5751503-1.9730116,1.0534498-8.1554087-3.4972769-7.4950898-7.1787604,1.0416795-6.5792897,9.8115025-11.9281125,4.4133076-4.6192893-4.6619571-3.8745179,3.5917344-8.334255,1.1967544-3.5788502-1.9218104-7.9589063-.4001932-11.4005682-2.7987044-3.3698625-2.3493698-1.1685054,17.8559753-3.1668232,18.823207-5.4655803,2.6462778-5.3140365,2.6218543-3.8374412,6.6070139,1.7211252,4.6454785-2.6707013,7.5501164-5.4202643,6.041741-7.6745881-4.2114454-3.8515656,11.1962888-18.4227191,4.3997716-5.382599-2.5109184-17.7385652-.5243709-15.3103339,3.2250867,4.2658833,6.5875928-5.7616056,16.804291,4.5836839,7.7981774,2.5259255-2.1992973,6.2642012.7900874,2.6898282,9.1249945-1.1935175,2.7831086-7.7516841-.052084-7.0557599,2.7610391.8760112,3.5399447-2.0860072,6.9006852-.3598797,10.3517634,4.6766699,9.3459836-3.9836883,8.3752207,11.5770607,11.699473,1.3121041.2801353,2.7616276.3507576,3.9018841-.7321182-8.8345599-4.2117397-8.7506959-2.2366683-10.7063461-4.0351838,2.6595195-1.9694804,6.6114277-1.9850762,8.7877726-.5920506,3.4557863,2.2116562,2.0448109-3.7394528,5.434683-2.765453,8.8110192,2.5321051,7.5327549,1.8523651,7.2126003,4.8903026-.1056392,1.0031315-.5408494,2.4585401-.0541438,2.9584874,6.2715577,6.4375203,7.6904781,21.2037683,14.3678829,6.5202073,2.3292971-5.121885.5122433-4.0142914-6.2395463-9.0237692-4.5630857-3.3848698,1.7767403-2.8148887,1.5030787-5.0453775-2.5544687-20.7979841,17.0017388-18.3365014,11.1906976-15.6531469-2.8693267,1.3247573-.6800342,2.8834512-.2177522,4.3312091,1.1779217,3.6870745,4.2226272,1.9456454,6.1909305,1.3430015,7.9703191-2.4408845,5.6268346,5.3770082,9.3003731,5.1833853,4.398006-.2318767,7.6328032-.2271685,8.8286748-2.5968422.7659581-1.5183803-.235702-1.2079362-7.6675258-3.9348412-7.8008255-2.8625587.3389872-7.4977382-7.6719397-11.2795643-8.2589879-3.898353-12.0269838,4.1590672-14.9507485-.655905-2.2616803-3.7270939,4.6807896-6.6502701-.2615969-12.7696957-.7780227-.9634064.9657604-2.7863455,2.2154815-3.0046862,3.9663269-.6918046,8.610334,6.0449778,17.6512335-2.5041504,2.1716369-2.0533445-3.7886575-2.1583952-2.3732682-4.5210066,2.1498616-3.5876147-3.227735-10.0189556,5.9996617-10.3979622Zm188.1134789,259.7713213c1.47277-2.3958628-.5084808-2.9373007-2.1451534-3.6123326-1.8141113-.748891-2.2075365-.6158856-2.2949317,2.9784971-.197154,8.1336335-6.9597632,4.6401818-8.3872852,7.9797356-1.4342219,3.352207-5.4646975,5.9440467-3.1658726,10.5274365,1.8720126,3.7320963-16.9041124,8.6274013-17.1376872,13.7201546-.1845683,4.0110545-5.1293088-.0871009-5.4638821,1.541921-.92221,4.485107-1.609895,9.8556415,1.3624226,13.1725373,10.3729498,11.5791208-33.2875437,5.9978963-28.8089106,15.2494225,4.0587245,8.3819887-5.4558697,9.2521147-8.4170054,13.7810664-3.9415428,6.0267337-4.4465588,1.9500593-12.10202,4.131701-14.9033727,4.2446967-1.5610479.8459968-24.421498,12.6425755-1.9865475,1.0249067-1.1387852,3.707967.8939611,3.4390136,13.710738-1.8135228,14.9904735,4.2405771,29.8102764-3.3472045,7.8102418-3.9989899,11.1200753-1.7125917,19.4156181-5.2619527,0,0,5.7803715-8.8274979,16.2637358-12.8382582,19.4272547-7.433001,15.24141-17.5681892,22.446133-10.6007071,1.3452878,1.3009223,4.6863128,3.8353814,5.3510455,2.085713,1.2173525-3.2068426,5.244297-5.196627,5.0677411-13.2293294-.2159866-9.8032632,6.4943123-6.2194739,10.2531861-10.1448988,2.945314-3.0776626,4.9388553-7.00809,8.4858622-9.5675612-.462282-1.6919935-1.2049936-3.7803549,1.7905705-3.3316088,8.8928234,1.3315253,9.8465192-7.5783653,12.027278-13.6483553,2.7501515-7.6545786,24.3391746-36.6373974,28.3525137-39.3796039,2.2113619-1.5107295,5.6518467-17.4846195,1.6610962-13.2858273-3.3291851,3.5055163-1.5001361,7.9923888-7.7525669,3.2074312-2.5326935-1.9377004-6.3257015,1.3903773-6.5196186,2.899047-.703575,5.4758795,2.8802835,6.7070622-1.4795379,9.4260222-21.6860595,13.5206465-17.8965827,19.1277659-25.1671521,18.9838729-.6255962-.0123589-1.2891519,1.5386842-1.9241644,2.3740876-3.9713293,5.2304669-8.2860598,4.0584303-7.9941541.1074048Zm167.6156402-71.2396945c1.0075453,3.1885985-1.1740963,1.9076859-8.7265666,8.6765427-1.1414335,1.0228469-1.9321094-.1715534-2.887865-.2103957-3.9015177-.1577232-.4478633,4.810264,4.8132064,2.6348017,1.5654618-.6473714,3.1515217-.4752295,3.475796,1.0655145.731824,3.4772673,4.112574,4.9241425,5.43586,7.8314287,1.3889059,3.0526505-1.1996969,3.8592165-1.7346611,10.278787-.4322675,5.1636699,8.2316945,4.5448417,8.2401553-.2557117.0091948-5.7015767-1.0722825-9.5675612,1.7558478-11.1444991,8.0227703-4.4745136.6261847-13.2152049,4.6222319-16.7945804,4.3627678-3.9071808-2.3955685-7.9350081,2.3879177-9.0637885,12.3609686-2.9175853-.5284905-18.4418464,4.01282-23.6987967.5191472-.6008784.4343274-19.9316835,4.913549-22.2519215,1.3883174-.7188765,1.3047477-.8960209-3.223248-11.6097238-.7783901-1.8411832-10.3600755,2.3993939-11.160462,3.7426896-3.3494858,5.6218323-10.8802536,4.9026615-12.6484603,6.126782-2.9617242,2.0498133,3.4858008.4425666,3.2166257,6.1138346-.6330252,13.3276121,8.6379219,15.0098951,1.8558236,20.5637534-3.5801856,2.9331811-13.2022572,8.75511-20.9804247,10.1899205-5.9587596,1.0996486,2.3181782,6.0661645-3.2904123,8.2413325-23.741758,9.2053274,11.6176685,7.1887654,12.2170756,7.3226536.9719399.2171637,7.7051911-8.807194,7.7051911,2.2413764Zm-439.0620041-115.388366c-3.982217-.7206421-4.6813168-1.4813035-4.9011901,1.0472704-.8150995,9.3827661,5.8622424,4.2252756,7.2640958,6.2347754,3.4913917,5.0068295,14.6759099,3.8600993,8.9375509,9.5599104-10.3667704,10.2970311-12.3315426,9.7741315-11.8683778,12.7205543,2.1442707,13.6418815-15.0331412,11.6182573-3.566428,13.6330537.6002899.105345,13.597448,1.6225482,16.8884488,5.226053,3.1103254,3.4051737,7.4809652-4.8161492,15.3012118-7.6766481,2.3826211-.8718916-2.2569721-3.5408274-.0344284-5.3775967,18.450968-15.2455971,22.9955153-16.9502438,21.4741925-23.1046863-.4575739-1.8497167,2.0539329-1.3803724,4.164658-.5196627,1.9229874.7842022,1.4527603-2.1633976.4219685-2.4188151-8.896943-2.2019456-22.5585396,17.6267469-19.4596904,6.139141,2.3896833-8.8601608-2.8843339-7.2040669-6.5069655-11.283684-2.6965341-3.0376433,2.5324614-5.6742106-2.2349027-6.2589047-2.3708507-.2907286-5.2289954,1.0104879-7.0113266-1.471593-3.959559-5.5117792.6547279,4.4044798-18.8688168,3.5508323Zm363.9410255,108.9946904c-.8824849-14.1403575-.67974-16.5371031-11.7709778-15.915038-5.6497869.3166235.423734,5.0853968-7.7213754,10.1822698-6.8365364,4.2773596-12.1649916,3.2986517-9.4798715,9.7967895.8309895,2.0106768-6.5196186,8.9675656-16.1942901,12.3615574-3.4140014,1.1979314-2.0657033,4.6095788-1.3053362,5.6583205.8821907,1.2179411,10.1151783,4.0081119,9.6597339,12.7941192-.0527422,1.0201985.5428395,2.7221969,1.7008213,1.6543283,4.6509996-4.28913,11.3009753-2.62156,11.9398132-3.6573543,1.8614871-3.022636-3.060007-5.0647986,2.3243576-7.6027889,4.7876058-2.2566779,12.3706791-6.2100575,12.0976061-10.8711318-.2677764-4.5642628,7.0707671,2.3278888,8.7495189-14.4010717Zm-250.5771051-81.7580089c3.3636187,17.410466,6.9203361,3.8059555,16.3025134,9.313615,2.2042997,1.2941543,4.6902059-1.0984716,3.9190159-3.943669-.9958397-3.6711845-.1780919-4.2488164,6.1808609-10.0180728,4.5704422-4.1455312,3.9160085,9.2877202,15.322987,3.473442,2.4450041-1.2464843,2.9446571,2.3555492,4.6548947-2.8363696,1.8700206-5.6777417-.1700821-14.706219-4.7069787-11.1904036-3.5690763,2.7660416-1.6646273,8.2325047-5.1986867,6.3551276-3.3595634-1.7846853-9.7894328.7697835-11.0652781-2.3902719-3.3534488-8.3010673-7.2641607-.9519303-14.0986372-3.8097809-4.179371-1.7476086-12.2426762-2.2007686-10.2325879,1.8588388,1.9953752,4.0295929.8286997,4.6757873-1.0781034,13.1875445Zm330.4700937-90.2556417c2.2028284-3.9092406-4.4471473-4.3144363-4.9120777-12.7744038-.7380034-13.4459046-17.3648553-.8571786-9.4007157.4784663,9.6578987,1.6210769,10.0107161,8.3702183,8.7771793,10.2402389-2.2705081,3.4407791,7.4939126,7.7172559-.385186,10.6813343-12.7552766,4.7993764-10.4017873,13.3508587-5.8542251,12.6549344,5.0906935-.7791998-1.1732859,1.2597259,9.7293315,9.1146954,5.4855899,3.9522026,3.3563992,7.2599763,7.4715489,5.1642584,5.5085422-2.8045896,4.5160041-3.4010541,3.257161-8.2401555-2.1848785-8.3958189,7.3982782-6.6679257,4.7337563-9.0608459-3.6644164-3.2883526-6.7662083.5337872-10.5395008-9.3015504-2.1354429-5.5691598-3.4081162-3.5555404-2.8772717-8.9569722Zm-322.3259314,398.5980641c-2.2722737-4.1296412-8.0350563-4.7131583-11.5891253-.134771-5.2595985,6.7720937-12.5601824,1.5080812-20.2653735,3.6576486-4.4277262,1.2353024-8.3616846,1.0034257-12.1941233-.9069085-2.0386314-1.0160789-3.274228.8574729-4.9338529.519957-2.7003584-.5496772-2.926413-2.8490228-8.1112695-1.7790944-3.635579.7494796-1.014019,3.3595634-1.0766964,5.1095261-.3083842,8.4720322,4.1119855,2.8507884,9.2132722,6.556107,2.2390223,1.6260793,3.4604945-1.4866002,5.5771047-1.3688963,17.5134565.974294,19.0683249,6.1079494,22.336962-1.836475,4.4574464-10.8337608,28.0188232,2.862853,21.043102-9.8170934Zm306.5406623-436.5952358c-.4060784-3.2689314-14.0985004-21.5674734-13.6312878-31.2274321.1179982-2.4299969-4.0554876-3.0326409-7.1249109-7.3461944-.5879309-.8262813-4.5310114-.2992622-4.1796652,2.785757.3470038,3.0417629,4.6560717,10.4800606-.8863103,16.0456894-1.8238218,1.8311784-2.7857569,4.9135491-.4964162,6.4748913,7.5754226,5.1669068,9.1046904-10.7496026,12.0414025,10.1890378.703575,5.022131,12.9012294,8.1848347,14.277188,3.0782511Zm-149.2767852-55.2990559c.7012209-3.1144451-2.2575607-2.5733014-5.0541368-4.0790285-1.5431664-.8309895-2.7949473.8668892-3.9213735.4499231-2.0480477-.7577188-.8201019-3.1262155-1.6069524-4.5324828-1.7629101-3.1521103-11.542338-.9378058-8.9213666,5.853709.0735649.1906803-1.904449,1.6566823-2.2348348,1.4456981-3.5414838-2.2628574-5.5827635.1968598-7.9391278,2.1404453-4.1723764,3.4416619,25.2226995,18.5236506,29.6777919-1.2782643Zm159.0197249,317.5833553c2.606847-3.4646142-6.4436996,1.9606526-7.8022968-7.4615442-.8742457-6.0638105-6.5714083-7.1925908-10.9711799-8.7409856-2.8634415-1.0075453-4.5139443,2.6762923-6.0873511,5.0339014-.5193684.7780228-5.3299265,1.7252449-1.9630067,4.1293469,8.021226,5.7268831,2.751917,14.6764988,7.9650224,11.1765734,4.2388114-2.8457859,5.2186964.6829769,10.5912905,4.4377311,2.4873775,1.737898,5.0306644-3.2533357,4.679024-3.8936449-2.5980192-4.7328737,1.9065088-3.4796214,3.5884974-4.6813782Zm-540.6251622,69.1598666c-.5685098-.4561026-3.1341604-2.349664-2.7166058-2.9473056,2.7695726-3.9630902-5.9428696-7.8935175-7.089894-2.4794326-.4778778,2.2563837.302499,6.6473275-3.0296982,4.9423866-2.0918924-1.0699284-5.3081513.1009311-6.3109885-3.1488735-.3368691-1.0925864-1.1146559-1.2194124-1.1931649-.3298652-.3408111,3.8589222-2.6024914,3.6308709-8.874049,10.2829066-3.4039966,3.6120383,4.2611752,7.3670868,7.2364353,5.4799991,11.4837803.7453599,8.9764516-1.1873381,15.0043038-2.4944398,4.8261539-1.0460934,4.1425885-1.5769379,6.9736614-9.3053758Zm478.389523-37.6046292c-1.1893978-3.8127234,2.9008124-2.7486802,3.5005138-2.3785015,2.6795291,1.6549168,3.2748166,3.8692213,4.836453,3.3018885,1.4430497-.5237823-2.3113392-7.1025473-4.6646053-8.3625675-4.0490139-2.1686943.1221178-4.230278-1.139597-7.2791032-.2557827-.6191225-7.8076644,4.5377794-6.7868774,9.0167069.5635074,2.4759015-11.2254203,5.2643067-13.3517411,5.2437086-4.3100223-.0417849-7.0710614,6.8312399-.1827353,7.3150029,5.1233562.3598797,9.6078745,4.4256665,12.0175675,2.6195002,2.6548113-1.9903729,9.1611882-4.238223,5.7710219-9.4766349Zm-31.6108518-223.9310735c3.8627475-1.7008213,4.203206.4834688,4.7767182,3.0029206.1368308.5999956,1.5348588,1.73113,1.792336.3286881.6220651-3.3913435-.9201502-7.2005358,1.8988581-10.1622601,2.3205322-2.4385305,2.7683956-4.7063903-.2306996-6.9871975-1.6990557-1.2912117,2.2116561-3.102969,3.5105186-4.1455312,3.296886-2.6459836-1.9179849-11.3192894-9.7061573-6.7685625-3.9519082,2.3087619-10.1996308,2.9552506-6.5702313,6.6785191,7.505683,7.6978348-.1085818,20.0964689,4.5286573,18.0534236Zm-256.8380701,138.9915283c8.2857019-1.6711011,4.8240304-.5479116,9.9459792-.0856296,3.9218299.3542887,3.0840724-3.9875137,4.3611596-3.6985507,2.6409811.5967588,3.544947,1.466002,2.8963985-3.8818745-.9092626-7.4983267-6.3318809-1.9647723-8.0538889-4.8237999-.3442839-.5714524-1.1732136-1.5254425-1.3056304-1.4515833-3.8227282,2.1369142-8.6432911.6667926-12.2485614,3.3633888-4.2708858,3.1944837-6.864491,9.1647196,4.4045433,10.5780491Zm306.6880228,26.5086829c-5.351996.6850367-2.5212174,7.2173086-5.4755851,10.6430805-1.1582063,1.3430015-.4772893,2.9849708.5988186,3.8012473,2.3426017,1.7779173.9510475,4.690206,2.2738162,6.5249155,1.9470454,2.7018929,5.2718861,1.4963108,7.9578889,2.1663402,3.8030128.9486934,7.7702942,5.5732795,7.6086739,1.7046467-.394308-9.5337213-9.4057181-9.5755062-8.9260747-18.4650929.0892322-1.6555053-1.3738987-5.5709254-4.0375378-6.3751373Zm-377.5481841-3.5711362c-2.3411304-7.6654662-13.0538888-12.3162414-14.9892965-6.6337916-3.5637796,1.5869428-5.9210943,5.0544996-9.7959065,6.2191796-3.6040932,1.0831701-2.8478457,5.5300233-.7776673,4.9753437,17.5734243-4.7134525,25.3674818,6.2333041,25.5628703-4.5607317Zm-182.9359217-9.4954675c-1.1956345.0835698-1.2662568.4943564-.380535,2.2187184,1.7611445,3.4284202,1.7573191,3.9363125-1.3202863,4.070495-3.9307787.1712592-13.5077559,3.5932057-9.9439763,8.7680575,5.5179585,8.0194607,6.4375202,7.0407528,9.9065482,3.1106197,2.8163599-3.1912469,10.8178705-4.7372876,8.9216608-7.7107822-2.1216127-3.3280777,6.0376787-11.4063903-7.1834114-10.4571084ZM486.7762159,147.6244426c-9.8376914.4661074-7.3968069,7.4468312-2.5335763,9.7956125,4.2641178,2.0589354,9.3780577-.8356977,13.5182921,2.2655057.2204005.1650797,1.2623743-.4393298,1.6669814-.9066143,3.0349949-3.5063991,23.076731-5.4302692-12.6516972-11.154504Zm40.0381562,86.9257984c-5.570631-9.5101805-15.617541.8971979-24.9123232,6.0635162-7.4691948,4.1514164,4.3126706,12.3483157,5.4382141,6.3877904,1.7102376-9.064377,19.3205738-1.292683,19.4741091-12.4513066Zm-202.6137158,213.4542497c-1.1976371-2.9714349-6.9148095-5.5747508-10.3623565-2.530928-7.9426587,7.0136809-12.3121215,5.3349291-17.1029642,3.557306-2.3108217-.8571786-4.8714699-.8760112-6.9989677-2.2157758-.710343-.4472748-1.2228812-.165374-1.2679652.6735605-.0800386,1.4813035,1.7796829.7744916,7.7543325,6.9083359,4.7455267,4.8729413,9.01059.2630682,9.7903783.1076991,13.0865504-2.6033159,10.1980968-7.5048004,12.8584991.8565901,1.0143133-.5331986.3954851.1365365,5.3290438-7.3567878Zm246.5579451-346.2077658c-1.342188-7.182586,1.4638728-5.9481664-6.6382747-11.78216-2.6551056-1.9120998-2.8766831,1.1864553-9.4598619,3.5149326-5.7006249,2.016562,16.2937499,26.2965216,16.0981366,8.2672274ZM112.142086,197.2160366c11.7000612,0-3.6926654-5.8439984,2.4797268-12.0955466.5955817-.6032325,3.9669155-6.3262901,2.3996881-9.9827617-.7371206-1.7199482-1.6878738-.7124028-5.63066-2.2769819-6.2397776-2.4756072-5.9846544,6.9607141.0682683,7.2796917,3.309245.174496-1.5619307,3.4328341-4.3491588,5.2251702-2.3140585,1.4883658-2.1492731,2.3835039.174848,9.6758488.7073427,2.2169529,2.1265574,1.9026835,4.8572877,2.1745795Zm525.4546728,341.4869567c-.0139013,7.265273,3.8023532,14.4537442,7.1154235,4.8791207,5.1713205,11.8657297,13.9440859-.0603232,8.231916-5.7816154-1.3603627-1.3627169-2.2861039-3.4454873-5.1751459-2.6648162-2.3025824.6220651-5.4434396-1.9144539-6.7700337,2.2722737-.3531117,1.1149502-3.6067415-2.069823-3.4021599,1.2950371Zm-362.7045553-40.7858712c7.0424562,2.0598182.6378932-8.422008,5.6809165-14.4051913.778317-.9233871-6.8047563-9.720282-5.4876497-.9563442,1.1155386,7.4259388-7.2655671,6.1232509-14.7671304,6.4560587-3.5819622.158606-3.3416135,6.7971057.7824366,5.8863718,13.8584564-3.060007,1.3650709-.6152971,13.7914271,3.0191049Zm328.0071421-97.5244457c0,9.0929202,2.4294084,2.3543722,8.5429486,6.7005885,3.2292063,2.296403,5.0951073-3.1179762,7.6828274-8.0565374,2.3114102-4.411542-6.3398259-3.4228293-12.0131536-3.2957091-3.2353858.0723879-4.2691202,1.3509465-4.2126223,4.651658Zm-462.0975387-69.0380431c-.6388379,1.8991524-1.8049892,4.1111028,1.305689,3.1965436,5.4922993-1.6151917,8.2221469,4.5174755,14.9680512-4.0110545,2.7221968-3.4404849-2.5715358-5.9013791-4.6295884-5.8716588-3.8550968.0550266-7.2040668,2.8678554-11.2633798,2.3093504-1.5610479-.2148096-.4925908,3.7762352-.3807721,4.3768194Zm576.3215892,24.5247838c0-12.7635162-14.757126.354583-21.6810576-1.9965523-2.2002526-.7474197-2.0748979,2.9734947.1417606,2.9364179,16.3423028-.2713075,19.4694009,10.2105187,21.539297-.9398656Zm-397.6773254,70.9619133c-1.9377634-3.3527955-8.1539374-7.3670868-14.3281579-1.9765427-1.1081822.967526-1.9694804-.0609118-2.9373006-.069151-3.8733409-.0329571,5.3038002,8.6362291,5.8484122,10.7581361,1.8461856-.2068646,10.7643153-7.5174536,11.4170464-8.7124424Zm-209.2290319,71.2405773c-1.9939039.9984233-4.3344459,1.8099917-6.2297728,3.2203786-1.3215205.9831218,1.8046949,13.6374676,4.6931485,12.000795,5.8513548-3.314836,5.9269795-1.5881198,4.6328252-7.16905-.7817903-3.3754535,7.8776273-4.8479292,7.4556588-5.9411041-.3316307-.8571786-5.6121216.0694453-10.5518597-2.1110194Zm14.6456011-41.9614389c5.0165399,1.0699284,8.1353988-3.3925205,7.1187314-5.4449822-4.5401334-9.1711933-10.4294477-1.4839519-14.4175498-3.9498485-3.3319029-2.0604067-3.2133163,8.9384339,7.2988184,9.3948307Zm509.1170071-318.526752c-.3787123-.6017612-3.0570644-11.5817691-4.6704905-7.8084765-3.6317536,8.4914533-3.6994334,3.6391102-6.8812638-.3286881-4.4180156-5.5082481-8.3525625,11.6626905-4.171426,9.3503975,2.7516228-1.5213229,17.4952834,1.5954763,15.7231803-1.2132329Zm59.0102582,365.9905538c-1.9992006-10.0086565-12.329777-3.0988493-14.5005311-2.5653564-13.1634149,3.2336203-9.0423073,10.9061487,2.5485835,4.3618121,6.5878869-3.7188546,8.9613859,3.8792261,11.9519475-1.7964557ZM144.1793201,176.8000016c-1.692582-.0076508-3.4430746,1.0934692-5.0706837.9016118-2.8849224-.3401643.5702754-2.8557908-1.0481532-3.9860424-4.973578-3.4722649-7.3294214-1.0443278-7.5898413,2.1951777-1.459234,18.1937855,25.6503266.9442795,13.7086782.8892529Zm35.1316694-78.6485662c-5.3910732-.6152971-11.518503-4.1696605-11.9916726,1.2355966-.1500725,1.7146515,1.0402082,2.2784532,2.6127322,2.5709473,4.2832447.7965611,6.53698,3.8471518,8.3137202,7.5486451,1.6301989,3.3969344,9.9939433-.4590452,4.776424-2.9278844-5.2525362-2.4867891,1.7761517-7.802297-3.7112037-8.4273047Zm234.3399173,443.1077923c-3.4913917,1.2600202-7.7748654,2.2684483-6.2497825,4.049014,3.7983046,4.4306689,14.9086693,7.5033291,16.0392809,6.6461505,4.3699856-3.3115991,1.0807503-10.7448944-1.9801394-8.2625192-9.0267116,7.3182397-4.6510693-1.2759102-7.809359-2.4326453Zm228.4023444-217.9496557c13.1245726-1.1096535-2.8166542-14.592929-14.2607094-5.1448373-5.3619301,4.426255,12.6110894,4.2329264,14.2607094,5.1448373Zm73.0655743-98.7929995c1.526031.347815,2.9617242-3.3936976,3.4628485-4.8764724,2.4888488-7.3759146-35.1980999-2.3573148-3.4628485,4.8764724Zm-282.8003756,119.2190393c.7383636-1.638144-2.3248803-6.0858799-3.8162545-5.7201151-3.7894768.9298608-7.4371205,2.2781589-9.7299923,5.8122184-1.9921384,3.0700119,5.1777943,1.080816,7.657881,7.0578199,1.0122535,2.4317625,5.1459484-5.5029514,5.8883657-7.1499232Zm-214.2593389-180.5395322c-2.1810531.6820941-6.0632218,1.9365233-4.0393033,3.2495103,4.4545038,2.8893364,1.9659493,6.828003,11.217181,8.5523651,4.2517589.7927357,2.6086125-11.8610216-7.1778777-11.8018754ZM52.4550304,248.9195327c-1.6455004,3.6414643-3.2739338,2.1681058-2.2863981,3.5852607,2.3940972,3.4351882,20.1685621-11.2883921,9.4313752-9.7794282-2.0860637.293377-4.105274,1.4636479-6.1574414,1.4783609-.8271641.0061795-11.7597959-4.2638236-8.6453509,3.1318064.854236,2.0298037,5.0533224-3.1662348,7.6578153,1.5840002Zm394.9721856,184.5158641c3.1432825-1.6063639-.1385963-4.5418991.4767008-6.7141245,1.2935658-4.5663226,3.6973735-12.8126576-.9586982-13.7325135-8.6564667-1.7099433-6.0779348-2.8875708-8.9952258-1.1423163-.4469145.2665993,1.7976327,6.5199131,4.3326803,6.5210901,6.8953883.0038254.5688041,17.4051693,5.1445429,15.0678642Zm139.844878-242.6183325c8.4846851.2512978,8.966094-15.9115069-6.2791388-8.1986649-3.9743416,2.0109711,3.1338662,8.8613378,6.2791388,8.1986649Zm-287.0541943-32.9267821c3.7956563-1.2753217,10.6992839-3.1423998,8.6126881-4.5524924-7.8982255-5.3390487-10.0934031-7.491853-12.7396809-4.3488647-2.7077781,3.216259-1.707295,9.1979709,4.1269927,8.9013571Zm-110.094042,119.2514079c-9.4001272,1.2611972,1.2255918,19.3208003,5.41997,7.8779218.4216742-1.1508498,2.1228497-1.7690896,2.9202936-2.8655013,1.8932071-2.6009618-3.7118523-5.5417937-8.3402636-5.0124204Zm47.8152077,222.7811064c14.1394134-3.4192982,15.348588-3.1150336,15.4444553-5.7224692.14507-3.9304273-5.1730861-4.0802056-6.0570423-2.2684483-2.0044361,4.1072774-4.2037945,6.5007862-8.941082,3.2704027-2.5276911-1.7240678-5.1701435,2.28169-7.9420702.3787123-3.1100311,7.098722-3.3269005,5.7445386,7.4957392,4.3418025Zm156.7556296-301.7177529c-12.002266,7.0881286-6.720598,6.2577276,3.4501954,10.7993325,4.9715182,2.2196012,3.6193947-14.9739954-3.4501954-10.7993325Zm66.299366,176.3236729c-.6017612-.1753788,2.5621195,1.9182792,3.8575176-1.1911634,1.2452405-2.9914445,2.8928007-3.2598094-7.2008966-7.4677237-3.1615266-1.3176951-11.7159512,6.6902894,3.3433791,8.6588871ZM132.3892154,220.0894347c0-8.6577101-9.9647535-.6223593-10.7843249.5826343-2.0521674,3.0149853,10.7843249,10.7925645,10.7843249-.5826343Zm405.3995735-26.359199c0-5.0977557-5.5000087,3.7382757-8.5388289-3.4707936-.2533576-.5999956-.4572796-4.9603364-4.0493082-3.4493127-2.7954675,1.1761562-5.458518,3.8389126-3.0029206,5.2001581,8.2628133,4.5789758,11.6991784,7.6407484,15.5910577,1.7199482Zm-171.0805486-99.1511136c-1.7034696,1.0199043-7.7381482,5.8740129-9.2644094,7.1437437-2.848204,2.3679081,6.9100373,2.3740876,8.632928,4.0675524.7447714.7321182,2.8984584-3.7491633,3.5367077-4.575739.5999956-.77714,4.5972842-3.3854583-2.9052263-6.6355571Zm188.9833107,331.2584882c-1.3385875,0,4.5318941.7435944,3.4749132-2.3220036-5.2336346-15.1802715-23.2162101,3.6676534-3.4749132,2.3220036ZM44.9887782,301.3928123c-.8801309-1.4662963-7.4753742-4.115811-8.080078-4.3626949-2.9164082-1.1908692-3.394286,2.5438755-4.1008036,5.6138873-1.7517282,7.6060258,11.883385.3495806,12.1808816-1.2511924Zm471.3570097,180.4612592c1.5219113,6.0770521-9.9453904,16.8978656,5.2192849,5.7774957,3.3463217-2.4529492-3.1315121-20.7497256-5.2192849-5.7774957Zm10.6127715-225.2731921c0-2.7689842-5.9260968-6.313637-10.598647-5.0465545-4.3635776,1.1841012-3.544947,5.2010409-.3225087,5.4511617,8.4343667.6553164,11.4787779,4.4698054,10.9211557-.4046071Zm39.4699407,100.2057405c-9.1888487.4487461-9.1188148,9.2203347-3.3248407,6.3901445,7.7304974-3.7753525,13.8316787-1.0393254,12.2762218-3.534648-1.9756598-3.1609381-4.9197285-2.825482-8.9513811-2.8554965Zm-54.9535935-166.1237476c-1.1526154.1435988-.6382494-.45316-7.2302559,6.5911239-1.3262286,1.4153893,4.1740743,2.1045457,4.3070797,5.1401291,4.9259079-6.5864158,2.6724669-2.7163117,6.9112783-6.1953446,1.5825288-1.2985682.3584084-4.9044271-3.9881022-5.5359085Zm-340.3928904-2.2696254c-1.0369713.4981817-2.5741841-1.8102859-3.4284201-.091809-6.0005445,12.0646493,1.693759,11.7892222,2.5468773,10.2405332,1.4603518-2.6512803,2.5679454-5.3852475,5.1383042-7.3258905.7145221-.5393781.5011243-3.9533796-4.2567613-2.8228337Zm374.8907244-29.4189117c-3.6008563.8312838,15.0266675,11.0759366,12.5207516,4.5048224-3.0422824-7.9788528,2.8934559-8.0706619-12.5207516-4.5048224Zm-377.4775617,221.855071c-1.9915499-3.5034565-5.9911282-.4596337-6.3627782-6.5584611-.1159383-1.9065089-4.232632-3.2789363-7.1172601-.8877816-1.9062145,1.5807633,9.4443253,12.410993,13.4800383,7.4462427Zm8.9101847-172.4123725c-.3044994-2.2690369-2.3946857-1.7317186-3.3781017-3.6102727-1.5513373-2.9611358-2.1366199-1.4963108-7.1290305-.6461944-3.9442575.671795,6.0028985,14.915732,10.5071323,4.2564671Zm105.8416946-23.1323467c-.4655189-10.3608854-17.8291972,3.686486-7.0492861,4.8196803,2.5012077.2630682,6.3754314-1.2885634,7.0492861-4.8196803Zm40.3736123,184.6603456c-12.3667909,1.1025912-.3763582,12.257978,2.0442224,7.3155914,3.6941367-7.5395231,1.3830207-7.0383987-2.0442224-7.3155914Zm-43.432148,65.9427249c9.0614342.882485,8.1742411-12.8223682,5.9075584-8.1677676-2.0527559,4.2164478-4.973578-2.5541745-6.3922042-.0606175-.3413413.5999956-5.5973467,7.3653213.4846458,8.2283851Zm-19.6015236-205.7596518c-1.6866968,2.2278405-14.7112211,3.8103694.3996047,7.2567394,3.7376871.8524705,6.0290877-15.7467215-.3996047-7.2567394ZM52.3382093,510.4043284c-4.460389,4.925908,6.554047,10.392077,9.6679035,3.7656419,1.2373622-2.6339189-6.479305-3.9613246-9.6679035-3.7656419Zm465.750479-213.2079543c-2.7681013,2.4411788-3.1750625,11.2115903,7.8726249,5.2799025,4.2394683-2.2763933-5.3640607-5.2799025-7.8726249-5.2799025Zm-137.0764824,96.8797227c-1.5098467-1.9630067-3.1038517,4.0905046-3.9039439,6.2739119-1.5292034,4.17584,14.6511921,7.7119593,3.9039439-6.2739119Zm-179.3136416,266.8050118c11.1648028.9351575,4.1581843-14.1427116-.416966-7.1513945-3.1606438,4.8290966-3.7638762,6.6861698.416966,7.1513945Zm212.9204572-262.5809133c-5.3913615.3560543-6.2711981,3.3472045-4.36858,5.9634679,2.7263164,3.7512232.529079-1.5119065,11.1327285-2.2457903,2.8657955-.1977425-2.6315648-4.2950152-6.7641485-3.7176776Zm-241.8370668-80.0445344c12.1658744-1.0925864,9.1550088-6.4940182,7.6307434-5.7162897-7.2666847,3.7064957-6.667337-3.4863894-11.7968727,3.5013966-1.3894945,1.8929729,1.1452589,1.7355439,4.1661293,2.2148931Zm26.6437475,101.8806669c-.5602705-9.6090518-7.7048968-9.2176863-5.7727276,1.3521235.4998874,2.7322017,5.6094134,3.971918,5.7727276-1.3521235Zm44.2731423-188.930643c-5.50148,1.6334358-5.4658745,1.2956256-4.1631867,4.8894198,4.1549474,11.4549432,11.1165442-6.9050991,4.1631867-4.8894198Zm-84.9130597-84.2842288c-2.7822258,2.409693-7.5262812,5.9193289-5.0462013,6.4863674,15.3221047,3.5043392,8.5078728-9.4851685,5.0462013-6.4863674Zm15.2064602,343.1109763c2.3155298-.1659625.6214766-2.7813431.0173613-2.5756555-3.3577978,1.1434933-4.2944265-4.0872678-7.2788087-1.3297598-10.1243004,9.3527516-3.4510781,4.6731389,7.2614474,3.9054153Zm152.1678871-352.047056c5.3675918-1.147613,6.4192761-3.9054153,1.2735561-7.1455093-7.4485966-4.6910888-5.6403706,8.0791954-1.2735561,7.1455093Zm67.4622805-43.2758972c4.4109534,1.5013132,13.2581665-10.7475427,7.8979312-9.2994906-4.1517106,1.1217181-9.8727083,4.8844174-7.8979312,9.2994906Zm184.3172341,65.6255129c-.1868549-2.5059159,1.2738504-1.0575695-5.7509428-6.9927885-1.4065616-1.1891036-3.576208,1.3097501-2.775233,2.5418156,5.6185953,8.6409373,5.5812243,6.9610084,8.5261757,4.4509728ZM232.2300713,419.445406c-6.8659623,3.1856559,5.1727918,9.4366156,8.8837013,7.7946462,1.6902279-.747714-3.7724098-.6361896-5.0167732-6.0196715-.3913655-1.6931705-2.0804164-1.6134262-3.8669281-1.7749748Zm348.6315744,75.4414293c-.9072028-2.2846326-5.5432648-3.2500988-8.8254379-.0273662-3.6037989,3.5396504,9.6865116,6.9383504,8.8254379.0273662Zm-381.3712065-177.9406302c-2.7866397,2.4411788.9442795,7.6431025,2.6495146,8.5823796,4.4318458,2.440296,3.2162589-13.7225087-2.6495146-8.5823796Zm470.155253,216.7072911c-5.1298299.9510475-6.5237383.7500681-6.0346786,2.5785981,1.8779656,6.9916114,16.6736392,1.1393737,6.0346786-2.5785981Zm-291.6587706,40.60549c-1.1334885-1.8870877-5.4058455-1.8073433-5.707756.7068119-1.7855681,14.8792437,7.2826341,1.9144539,5.707756-.7068119Zm105.475047-24.5374369c1.1690939-3.5999737-8.7003775-5.9019676-5.7180551,4.6454785,1.4333392,5.0659757,3.8386182-.2613026,5.7180551-4.6454785Zm-92.3866684-237.9431338c-2.6589309,1.4674733,1.1517326.6361896,6.7476699,5.5244324,2.728082,2.3835039,4.2991347-11.6217884-6.7476699-5.5244324Zm97.7442553-179.4716636c-.2483552,1.3521235,2.1245553,4.9444464,3.8498001,3.3174843,9.5860993-9.0455444-2.8328384-8.8622206-3.8498001-3.3174843Zm-336.3415224-.0688568c6.6134875-2.9155255,8.4832138-2.8407835,7.6033772-6.2527252-1.0539794-4.086385-13.0660149,4.8758839-7.6033772,6.2527252Zm112.7414968-6.2847995c4.4021256-.4458035,7.5969035-2.9664324,1.9562387-2.4123413-4.8623478.4778778.9098511-3.4481356-1.8232333-4.7990821-1.1985199-.5923449-10.7810881,5.7545435-.1330054,7.2114234Zm483.6232266,294.7284956c4.0710834-3.8339101,5.1454997-4.6004568,2.1622205-7.0860688-7.1634589-5.9655277-7.02192,3.1682946-2.1622205,7.0860688Zm-349.527301,7.6433967c-11.3445955,1.8920901-3.508753,9.6528965,3.0847248,2.4385305,2.162809-2.3626115-1.2506039-2.3537837-3.0847248-2.4385305Zm-230.4889402-15.7767359c-.2939655-.7912644.430502-.9160306-7.0292765-3.4275374-.8453492-.2848434-1.8055777,4.4168387.4655189,5.2504765,3.6420527,1.3371163,5.2982057,1.6802231,6.5637576-1.8229391Zm18.6019232-176.136818c-6.6964092,0-.1577232,8.7892442,6.7682681,3.0732487.4049014-.3342791.6367781-1.5686987-.1044622-2.7107207-2.3931546,1.7014098-4.596337-.678563-6.6638059-.362528Zm27.2066663-161.8964122c-1.425628-7.4903817-3.6697131-3.8907023-6.1258991,3.3277834-1.3112214,3.8515657,6.2421921.4216742,6.1258991-3.3277834Zm386.1520444,411.9383294c-2.5568228,3.4166498-2.5579999,4.3376828.0688568,7.1381528,8.109504,8.6450569,1.3409416-9.0217094-.0688568-7.1381528Zm-63.2040479-137.3039487c.7277043-.8171593-1.0893495-3.0658922-2.2546181-2.2546181-8.4611443,5.8928455-6.6490246,12.2562124,2.2546181,2.2546181Zm-334.5049873,175.653055c-.2051592-.8760112-.8901958-.7312355-1.302748.2624797-2.3637284,5.6912776-3.2498045,5.5826958.998129,6.7064737,10.6457286,2.8169485,1.1523211-3.353384.3046189-6.9689534Zm59.680816-8.2834117c10.0969961-.3298652,7.1675786-6.1497343,6.4960779-5.5191357-2.3676138,2.2219553-5.4155561,1.1687997-8.1074441,1.774092-1.0878782.2448241-2.6265624,3.2965919,1.6113663,3.7450437Zm284.0059577-338.6850155c.1777329,2.5100356,2.8619702-.1044622,6.69794-2.3211208,2.2484386-1.2988625-7.4415344-8.202196-6.69794,2.3211208Zm-74.2178954,325.0637321c-2.538873-8.2130836-3.1883042-7.4562475-2.9988009-5.8837235.5552681,4.6078133-4.5307171,6.7358997-3.9848653,7.9347139.8345206,1.8291185,6.7332512.1980368,6.9836662-2.0509904Zm-232.7871087,165.047934c-.5258421-2.0548158-1.4351047-7.0637051-3.8636303-6.3398261-.3186833.0947516-.8427599.5193684-.8427599.5193684,1.1870438,2.0824762-1.1829241,4.0078177-.3531117,5.9157978.5649787,1.2991568,2.5397558,2.1916465,5.0595018-.0953402ZM99.7878854,256.8486556c5.5077171.0844525,5.3778909-7.60632,3.5158153-6.662629-2.4435328,1.2367737-5.5823439,3.8218455-3.5158153,6.662629Zm25.7901,75.7192105c-3.9163028-3.444016-10.1654967,4.1643638-6.137081,4.3932979,2.4435328.1388906,5.6983397-2.1383855,6.137081-4.3932979Zm346.5043708-178.9122759c.6100004-.5923449,3.9242478-10.1257719-.0208924-7.9179411-5.5017742,3.0806052-1.4359875,9.3321534.0208924,7.9179411Zm-87.2689031,222.4630116c-.2377619-1.865901-3.3098335-4.6554833-5.3375773-3.0376433-3.1905938,2.5471123,2.530928,8.3157802,5.3375773,3.0376433Zm72.6594959,5.2066318c-4.2520531.7833194,4.996236,11.7327243,4.8073212,7.8326058-.1639027-3.3469103-1.1573235-7.3188282-4.8073212-7.8326058Zm-157.594625,10.8472968c-4.5931002-7.3773859-13.2719967,4.8544029-5.4060774,2.2349027,5.4705203-1.8220563,3.2106055-.5796917,5.4060774-2.2349027Zm-103.1636368,114.9334405c-3.6279282-4.6354737-8.4520223,3.4543151-4.6060476,4.3453336,2.0774737.4814089,4.861465-2.1678115,4.6060476-4.3453336ZM437.1275368,53.274471c2.4214633,3.2303834,11.7771573.5423207,6.6408536-2.2304888-2.3317141-1.2576661-5.503834-1.1773332-6.6408536,2.2304888Zm67.462869,380.2550889c.9639949-.8139224,7.3962184-2.4814924,6.5037286-4.3697571-1.3868461-2.9293557-10.0686853,1.3023936-6.5037286,4.3697571Zm-358.3909927,20.301568c7.3047625-1.6628618-.0364882-6.9121613-3.6444068-2.0604067-1.3155767,1.768501.7247617,1.594005,3.6444068,2.0604067Zm-59.8662598,27.0698362c1.1620317.6061751,1.2585489-3.3492644-.1768501-4.2641179-2.425583-1.5469235-13.6866087-3.0117484.1768501,4.2641179ZM286.5645424,73.9553397c1.01961-1.9877245-2.4747243-5.3060916-5.790443-3.5190522-1.9824278,1.0693399,2.8325442,6.7523782,5.790443,3.5190522Zm-107.6958252,439.4342537c-.7577188,2.2354912,4.3306205-2.9208222,8.7966004.4922965,2.7189599-5.1633757-7.2673326-5.0021213-8.7966004-.4922965Zm-25.472888-403.0649269c-2.20018-3.6579428-5.2210504.2451184-6.6788131,1.6010672,4.2414598,2.7533884,7.671057.0473758,6.6788131-1.6010672Zm85.551309,254.8504156c2.0542272-2.2890465-7.8552636-3.5340595-8.1901311-2.7648645-.2607141.6005841,3.1944837,6.7035311,8.1901311,2.7648645Zm-28.0838546,228.8634552c-9.5669724,1.0078396,1.7290702,6.322759,4.3335631,1.8550134.9428082-1.6187228-1.7699723-1.5472177-4.3335631-1.8550134Zm145.9037499-378.0163608c4.5641987.5476174,4.7881304-6.9557117,1.404732-5.1368923-2.6448065,1.4212745-4.3235582,4.3100224-1.404732,5.1368923Zm-174.6034901,432.2554931c-8.9781587-.4152005-10.9947206,7.621033.6058808,1.8464799,1.6328473-.8130397.4131407-1.3859634-.6058808-1.8464799Zm378.00465-398.0007168c-.45316-.0094163-.4352793,2.7298476-.3487669,3.1750626.3519346,1.7982213,2.8687381,2.0815934,3.1632921,1.4813035.6856252-1.3974395-2.8145252-14.9586939-2.8145252-4.6563661Zm-18.0086961,9.1002767c1.8708347-.3601739,6.0163658-10.2781985,2.1724509-7.6787079-2.1581009,1.4586455-5.4864727,5.8610655-2.1724509,7.6787079Zm-498.1556065,4.4430278c13.1790106-6.0084896-2.6268566-6.4907813-1.3138697-.7815539.0506127.2224604.5452633.3425183,1.3138697.7815539Zm696.8579532,8.2892969c-3.3966401,2.4756072.7977381,4.6390048,1.8838508,4.0896219,6.8206463-3.4484299,1.2044051-6.3398261-1.8838508-4.0896219ZM239.26641,49.1860261c1.3847863,3.5293513,13.4715048-.1394791,8.2642846-.4099038-3.7741142-.1962712-5.4900038-3.3436734-8.2642846.4099038Zm284.3534785,28.399596c-1.1379024,6.6443849,8.1787234,5.1839738,6.4004434,3.8718697-6.0014272-4.4233124-5.5732793-4.2341034-6.4004434-3.8718697Zm-334.0577727,4.6978567c2.125438,3.6402872,5.264955.5126005,8.0621281.1730247,4.9691641-.6047038-10.0745705-3.6188063-8.0621281-.1730247Zm-41.0780114,42.7426985c3.3874593-1.4024419,5.517017-1.7452545,4.3697571-3.2147877-1.7306003-2.2187184-1.6507971-.9845931-5.4067872.3016162-2.0874785.7153454-.5158373,1.6025385,1.03703,2.9131714Zm314.9890947,17.8209584c.1253546-1.8064605-3.9407263-3.3878124-5.6609687-3.2712855-1.6151917.1091704.3475207,4.1620098.9472221,4.2750055,1.4851289.2795468,3.1915411-.6182397,4.7137467-1.00372Zm-189.3835039,452.3825651c-2.4435328-1.3159296-8.1630592,4.2870701-6.4572356,5.2248759,1.3082788.7212306,6.152971-4.2535245,6.4572356-5.2248759Zm-90.2253306,1.3497694c1.3530062-4.6266459-8.6718343.1577232-6.5213842,1.5454522,1.4003821.9048487,5.1936843.9581097,6.5213842-1.5454522Zm189.6009619-388.9642945c-1.0619834-2.8078264-7.9026394-.459928-4.9100179,1.4798322,1.9983178,1.2959199,4.6955025.7294699,4.9100179-1.4798322Zm-223.3690317,6.9289341c5.3543501-.3725328,2.3526066-2.660108-2.0830059-3.5411217-1.8812612-.3737099-4.1173409,2.4900259,2.0830059,3.5411217Zm74.0604665,47.4434978c-7.9794412,1.6181343-4.861465,4.1505336-2.1651631,3.385164,4.0201765-1.1411393,6.2088804-2.3311257,2.1651631-3.385164Zm406.7434577,49.34471c2.0998375-.559682,4.5315999-6.0376213,2.0033203-5.5406166-4.7446439.9295665-4.9161973,6.3171681-2.0033203,5.5406166Zm-538.1663279,19.1604287c-.2215776-2.1884097-4.2367516-2.9923273-5.7230575-2.1472133-3.2224383,1.8320611,2.7792832,5.7701392,5.7230575,2.1472133Zm-2.7510342,13.3643946c4.1111027.2201063,4.4915806-4.0634327,1.0457991-4.2850103-4.0793227-.2624797-4.4542096,4.1025693-1.0457991,4.2850103Zm301.6135773,88.1672803c-.2286398-2.468545-.1750845-6.0773464-2.2095963-4.6860864-2.6448065,1.8088146.2780754,13.2343318,2.2095963,4.6860864Zm-356.7993418,2.853731c0,.6008784-7.0683573-.0026483-4.4080108,1.8494225,2.5438754,1.7708551,14.2312834-1.8494225,4.4080108-1.8494225Zm557.1599807-129.2921387c-5.6695722,2.9926216,5.1056307,5.625952,3.1570427,2.1731082-.6953357-1.2320655-1.6045983-2.1507444-3.1570427-2.1731082Zm89.946891-14.8898371c-1.6263735-5.127476-6.378374-1.7637929-4.38447-.5296675,3.3580921,2.0807106,2.802824,1.3671308,4.38447.5296675Zm-575.5284284-12.7529229c-.2260491-2.4605999-3.0347583-3.7344504-4.0920335.3519346-.5935219,2.2937547,2.1786991,3.6102727,4.0920335-.3519346Zm515.4224176-35.1140148c.4936971-1.8414775-3.7998466-6.4257499-3.9496248-.9566384-.0712109,2.6168519,3.3910492,3.0405859,3.9496248.9566384Zm-262.0794947-37.9642146c3.8335517,1.9941983,5.4266739,3.1379859,5.3354534,1.6122491-.250415-4.1728974.3581141-5.4226185-5.3354534-1.6122491Zm-38.7284702,16.8275375c-4.0122315,10.4791779,3.1138565,3.9448461.7762572.8813079-.1550749-.2036277-.3381044-.3860688-.7762572-.8813079Zm-102.5327439-94.238153c-.8336378-1.0119592-.3460494-.9893012-5.1201193,1.7896877,1.1832184,1.2379507,3.6847204,1.819408,5.1201193-1.7896877Zm-122.9604914,101.2989154c-1.1376655-1.8123457-5.4509247,1.615486-4.9595109,2.2140103.7680179.9345689,4.25529,1.8079318,4.9595109-2.2140103Zm417.340576-110.5819274c-1.5427359-3.9786859-9.0055248,6.2386007-.0173613.7000439.107767-.0665027.014713-.4587509.0173613-.7000439Zm-285.1988867-21.3611973c-.4864113.6229479-3.7149685,3.5420045.4925908,4.2976635,1.4748298.2648338,2.0265668-4.0334183-.4925908-4.2976635Zm216.5254331-11.9251702c-2.2475558.7794941-3.3628002,1.1720365-.6353068,2.5209232,5.0839254,2.515038,4.4859896-1.9597699.6353068-2.5209232Zm224.9451587,166.1281615c-.6957019-2.4008652-3.4808703-.907497-3.1854335.6923932.1942114,1.0516843,1.8423602,2.3699679,3.1854335-.6923932ZM272.0722505,61.690888c-2.0418683.9536958-1.73113,4.1696605,1.543098,3.3242523,1.837652-.4743467.6847424-3.3351399-1.543098-3.3242523Zm-44.3002142,558.7003746c-3.5555403-.6909219-4.5786814,5.0668585-1.7467258,3.5646625,1.4039132-.7441829,3.5358249-2.7266107,1.7467258-3.5646625ZM454.4241239,57.4126457c-2.4535376-.2368791-2.0726991,3.0061575-1.1214238,3.3010058,2.3793842.7374149,3.2821731-2.7751636,1.1214238-3.3010058Zm-33.8657641,574.490058c-.7147569.6644385-1.8241161,1.2335368-2.0150906,2.024507-.5220168,2.1619263,4.6146468,3.9954587,2.0150906-2.024507Zm-128.7868915-369.4622302c-1.4439325-2.9993895-3.0038033-2.0492248-3.2274407-.8483508-.3030875,1.6269621,2.3699679,3.165352,3.2274407.8483508Zm-136.0139105,4.4174272c-5.8769554,4.1511221-.4425666,3.9339585,1.3409416,1.0890553.4887654-.7777285-.7382977-.9189732-1.3409416-1.0890553Zm325.7013848,383.0420229c-2.3311256-2.1239668-3.3192498-.3592911-3.0864903.8648294.2554174,1.3362335,3.070306,1.9653608,3.0864903-.8648294Zm47.0032841-363.31485c-.1768501-2.7766349-4.9676246-3.354561-4.5198295-2.1239668,1.2288286,3.3622118,3.4960999,3.5523036,4.5198295,2.1239668Zm-161.4041115,249.7191143c-.2748386-.6011726-.7082832-3.1220958-2.668053-1.0975888-.5905793.6100004-.3459853,3.1841846,2.668053,1.0975888ZM9.3071373,341.8644141c-1.2491326-.3610567-2.6824717,3.3816329.0865124,3.7535772,1.9188677.2577715,3.4345996-3.1968378-.0865124-3.7535772Zm355.898907,36.7442137c.7812596-1.933875-2.7686257-2.4558918-3.2712854-.6297158-.4481576,1.6278449,2.1145504,3.1303351,3.2712854.6297158Zm-290.9657889,92.5917697c-5.510602.9837103-2.8961043,2.5100356,2.3323026,1.867078.6756203-.0829812,1.9209275-.7374149-2.3323026-1.867078Zm337.9055129,9.3471606c-1.7969788-.105345-4.9850541,3.7359217-1.2076419,3.7921253,5.1136456.0765075,2.6044929-2.2042997,1.2076419-3.7921253Z"/><path d="m289.1454945,13.2363137c-1.8582502.9375115-7.5382837-3.436071-5.1006982-6.7258949.8868988-1.1976371,2.6303877,1.1773332,3.4154727-.69563.5294355-1.2629628.6932759-2.7533884,1.4695331-3.8130177,2.7563309-3.7609337,29.1185348-3.3507357.2156924,11.2345426Z"/><path d="m184.3481276,665.4771515c2.2578549.316035,1.9106284,1.4021477,2.6330361,7.2020071.1368308,1.0993544,1.9474109,2.4773727-.4160833,3.1450481-1.2947428.3657649-1.8049892-.7947956-2.3408362-1.69935-3.205077-5.4102596-7.7599234,2.2652115-8.7100881-1.7676183-.998129-4.2273354,6.2595526-6.8394791,8.8339714-6.880087Z"/><path d="m424.009438,664.7335571c-1.7331898-1.4224516-3.0246958,1.5263253-4.7272826.5496772-.5785146-.3316307-1.5739298-.9442795-1.5077869-1.2105846,2.0712943-8.2660504,16.2443143,3.1212131,6.2350695.6609074Z"/><path d="m735.5339774,239.7709974c-4.1252272.7374149-3.5317053-4.1184593.6188282-5.2740173,1.1128903-.3098555,4.9650445,1.3665422-.6188282,5.2740173Z"/><path d="m762.0723798,330.8985306c-1.2188238,3.510813-4.6666651-.671795-3.2177302-3.2948263.2969081-.5382011,3.1067943.7889104,3.2177302,3.2948263Z"/><path d="m476.9997306,570.9709279c-3.756814,3.1594668-6.7588518-2.7463262-1.6728666-2.204594,1.1146559.1185867,1.8355922.9119109,1.6728666,2.204594Z"/><path d="m337.4735359,249.0799042c-1.034323-7.3594361-5.2866704-1.9000351-5.7707276-3.8659845-.5061267-2.0586411,3.2268522-3.9642672,4.8511659-4.7166894,2.7605141-1.2788528,9.5987525,8.5099917.9195617,8.5826738Z"/><path d="m579.2211477,389.1304733c-2.4550089-.0050024-5.2943211.1462471-6.2777371-3.8127234-.5228995-2.1051342,2.4141068-2.3623172,5.5900521-3.467851,4.1831964-1.4557029,7.7816986,7.183763.687685,7.2805745Z"/><path d="m270.317874,411.1516952c-34.2521271-10.089578,1.1699767-20.4036761.498476-.5023014l-.498476.5023014Z"/><path d="m706.3051581,324.5710635c8.683899-.2780755.369296,7.6325091.1168211,1.9865475-.0947516-2.1145505.4700056-2.5903685-.1168211-1.9865475Z"/></g></svg>