<?xml version="1.0" encoding="UTF-8" standalone="no"?><svg xmlns="http://www.w3.org/2000/svg" xmlns:xlink="http://www.w3.org/1999/xlink" fill="#ff914d" height="30.6" preserveAspectRatio="xMidYMid meet" version="1" viewBox="1091.4 761.7 399.7 30.6" width="399.7" zoomAndPan="magnify"><g fill-opacity="0.996"><g id="change1_3"><path d="M1094.2235,778.0601L1094.2235,778.0601Q1129.67,772.0647,1274.2052,765.76306L1274.2319,765.762Q1307.0513,764.6179,1352.6857,764.31995L1352.6902,764.32Q1363.7667,764.2638,1378.4261,764.3119L1378.4332,764.31195Q1482.3428,764.8961,1484.9519,764.79407L1484.951,764.7941Q1482.1119,764.9058,1482.06,767.81415L1482.0599,767.92426Q1482.1111,770.7934,1484.9092,770.9417L1484.9128,770.9419Q1484.9061,770.9416,1484.8999,770.9413C1483.1986,770.8626,1481.883,769.4195,1481.9618,767.71826C1482.0406,766.0171,1483.4838,764.70184,1485.1849,764.7805L1485.1849,764.7805Q1485.2113,764.78174,1485.2319,764.78284L1485.2355,764.783Q1488.175,764.9387,1488.2263,767.81433L1488.2263,767.92444Q1488.1742,770.8393,1485.1938,770.95667L1485.193,770.95667Q1482.4473,771.06396,1378.3987,770.4791L1378.4059,770.4792Q1363.7635,770.43115,1352.7217,770.4871L1352.7262,770.4871Q1307.1754,770.7844,1274.4465,771.9255L1274.4735,771.9244Q1130.3204,778.2094,1095.2521,784.1409C1093.5729,784.4249,1091.9816,783.29407,1091.6975,781.61487C1091.4135,779.93567,1092.5446,778.3442,1094.2235,778.0601 Z"/></g><g id="change1_1"><path d="M1099.5991,785.90436L1099.5991,785.90436Q1156.2245,776.7903,1291.0917,767.33167L1291.1079,767.3307Q1366.6409,762.4323,1487.957,761.69183C1489.6602,761.6815,1491.0493,763.05365,1491.0597,764.75665C1491.0701,766.45966,1489.6978,767.8486,1487.9948,767.859L1487.9948,767.859Q1366.859,768.59845,1291.5068,773.48486L1291.523,773.4838Q1156.931,782.92316,1100.579,791.99316C1098.8977,792.2638,1097.3152,791.1202,1097.0446,789.43884C1096.7739,787.75745,1097.9177,786.175,1099.5991,785.90436 Z"/></g><g id="change1_2"><path d="M1102.3472,783.0914L1102.3472,783.0914Q1138.0587,774.7665,1254.8752,770.1822L1254.9073,770.1811Q1321.4299,768.25903,1356.6569,768.1688L1356.66,768.1688Q1415.5145,768.0804,1471.351,769.84296C1473.053,769.89667,1474.3893,771.3201,1474.3354,773.0223C1474.2816,774.7244,1472.8583,776.0607,1471.1562,776.007L1471.1562,776.007Q1415.4219,774.2477,1356.6694,774.336L1356.6726,774.33594Q1321.5272,774.4259,1255.0854,776.3458L1255.1173,776.3447Q1138.8865,780.90607,1103.7474,789.09753C1102.0887,789.4841,1100.4309,788.4531,1100.0442,786.79456C1099.6575,785.136,1100.6887,783.478,1102.3472,783.0914 Z"/></g></g></svg>