<?xml version="1.0" encoding="UTF-8" standalone="no"?><svg xmlns="http://www.w3.org/2000/svg" xmlns:xlink="http://www.w3.org/1999/xlink" fill="#000000" height="21.2" preserveAspectRatio="xMidYMid meet" version="1" viewBox="50.3 253.6 414.8 21.2" width="414.8" zoomAndPan="magnify"><g id="change1_1"><path d="M465,267.1c-0.2-4.6-1.9-8.2-5-8.3c-5.4-0.2-10.8-2.2-16.2-1.3c-5.8,1-11.3,0.1-16.9-1.4 c-1.1-0.3-2.1-0.7-3.1-0.1c-2.6,1.7-5.3,0.8-8,0.5c-4-0.4-7.9-2.2-11.9,0.3c-0.6,0.4-1.6,0.1-2.4-0.1c-10.7-3.1-21.6-0.6-32.4-0.9 c-2.6,1.8-5.3-0.4-7.9,0.1c-3,0.6-5.9,0.6-8.9,0.3c-5.1-0.4-10.3-1.6-15.3,0.8c-0.9,0.4-2.1,0.2-3.2,0.2c-4.6,0.1-9.2,0-13.8,0.4 c-2.5,0.2-4.8,0.4-7-1.3c-1.2-1-2.6-0.4-3.9,0c-4.9,1.6-11.2,2.8-14.9,1.9c-3.1-0.7-5.9-0.5-8.9,0.1c-2.1,0.4-4.3,0.6-6.5,0.7 c-24.8,0.7-49.6,1.5-74.4,3.1c-12.8,0.8-25.6,1.4-38.4,2.1c-4.9,0.3-9.8,1.1-14.7,1.2c-18,0.5-36,0.5-54,1.8 c-5.5,0.4-10.7,1.9-16.2,2.3c-9.2,0.8-18.5,2-27.7,3c-1.3,0.2-2.6,0.5-3.1,2.3c11.5-0.7,22.9-1.7,34.2-2.1c9.5-0.4,19-0.2,28.5-0.2 c6.8,0,13.6,0.1,20.4-0.1c11.5-0.3,22.9-1.2,34.4-1.2c6.6,0,13.1-0.4,19.6-0.8c6.8-0.4,13.6-0.1,20.3-0.5 c20.9-1.2,41.8-2.3,62.8-1.4c3.7-1.6,7.6,0.7,11.3-0.3c5.2-1.5,10.2-1.4,15.4-0.2c1.5,0.4,3.3,0.1,4.9,0c4.6-0.3,9.2-0.7,13.8-0.9 c12.3-0.6,24.5-0.6,36.7,1.2c0.8,0.1,1.8,0.4,2.4,0c4.6-2.5,9.5-0.1,14.3-1c3.2-0.6,7.1-0.5,10.5,0.1c6.1,1.1,12.2,0.8,18.3,1.5 c3.9,0.5,7.5-0.9,11.3-0.8c5.7,0.2,11.5,0.2,17.2,0.5c8.4,0.4,16.9,0.3,25.2,1.9c3.3,0.7,6.5,0.4,9.8,0.3 C464.7,270.6,465.1,270,465,267.1z" fill="#c21d24"/></g></svg>