<?xml version="1.0" encoding="UTF-8" standalone="no"?><svg xmlns="http://www.w3.org/2000/svg" xmlns:xlink="http://www.w3.org/1999/xlink" fill="#000000" height="1982.2" preserveAspectRatio="xMidYMid meet" version="1" viewBox="-3.7 -14.5 3814.7 1982.2" width="3814.7" zoomAndPan="magnify"><g fill="#ffffff"><g id="change1_2"><path d="M1364.674,877.417c-7.607,1.223-15.223,2.447-22.846,3.66c-2.682,0.437-5.362,0.875-8.045,1.304 C1344.079,880.727,1354.376,879.072,1364.674,877.417z" fill="inherit"/><path d="M3801.316,789.344c-9.252-63.75-23.264-123.577-43.534-183.947 c-18.44-54.261-40.227-104.688-68.438-155.199c-30.141-53.96-68.355-100.543-109.525-146.068 c7.076,8.046,14.151,16.093,21.228,24.14c-25.254-28.732-47.916-51.083-77.085-75.809c8.02,6.799,16.038,13.598,24.057,20.397 c-52.094-45.671-105.749-84.949-168.35-115.302c9.456,4.619,18.911,9.238,28.367,13.857 c-16.193-8.836-32.834-16.765-49.366-24.958c9.426,4.672,18.852,9.345,28.278,14.018c-29.874-14.811-59.225-29.381-90.471-40.957 c-35.002-12.967-71.179-21.415-107.352-30.46c-54.824-13.709-110.477-18.183-166.634-20.628 c-152.905-4.737-305.36,6.912-458.161,11.163c-162.753,4.529-323.751-1.864-485.434-19.719 C1845.42,30.675,1608.443-14.505,1372.5,4.544c-220.201,17.778-430.738,90.824-641.628,151.552 c-170.327,49.047-338.518,109.126-477.472,222.857c-64.391,52.703-120.969,119.208-159.597,193.048 C48.568,658.467,22.953,748.62,13.34,845.619c-3.486,35.173-4.916,70.441-4.053,105.447 c-12.938,81.496-12.148,165.605,1.058,247.526c20.209,125.362,65.579,248.449,123.829,360.943 c47.264,91.278,103.514,174.671,179.633,244.469c62.457,57.27,136.482,94.495,216.438,120.109 c135.933,43.549,288.159,24.633,424.421-7.394c149.836-35.216,296.536-82.563,446.512-117.151 c52.88-9.881,106.125-15.779,159.76-19.287c41.557-1.066,83.278,0.172,124.828,1.939c67.152,5.621,134.125,13.033,200.845,22.473 c207.85,33.729,412.949,84.829,622.53,107.508c166.682,18.037,337.205,18.646,503.825,0.521 c158.304-17.222,310.2-64.584,443.447-153.063c149.671-99.385,244.812-258.053,298.799-426.058 c40.436-125.83,55.357-259.699,55.743-391.429C3810.542,890.955,3808.704,840.253,3801.316,789.344z M3540.364,1134.795 c-11.372,57.772-25.931,114.845-45.657,170.328c-16.416,39.392-35.582,77.503-57.986,113.818 c-20.542,28.919-43.187,56.186-67.972,81.555c-25.504,22.803-52.678,43.543-81.323,62.237 c-34.938,19.807-71.386,36.655-108.912,50.961c-71.895,23.297-146.227,38.006-221.315,46.33 c-148.874,13.566-302.179,9.828-450.495-7.746c-213.75-25.329-423.624-77.081-636.775-107.069 c-56.637-7.968-112.902-12.414-170.038-14.853l32.505,1.397c-62.666-3.329-123.061-4.721-185.721-1.593 c10.75-0.528,21.5-1.057,32.25-1.584c-77.849,2.946-151.75,10.916-227.653,26.546c-86.934,19.429-172.555,43.554-258.162,67.796 c2.923-1.248,5.845-2.496,8.769-3.744c94.335-37.004,188.462-74.658,282.618-112.148c43.428-17.292,86.975-34.279,130.457-51.438 c51.546-20.34,102.346-42.021,153.335-63.702c4.548-1.825,9.094-3.653,13.65-5.46c-1.097,0.417-2.194,0.833-3.292,1.25 c5.616-2.173,11.215-4.39,16.82-6.715c28.382-11.774,50.93-40.909,60.493-69.283c10.138-30.082,7.879-63.341-6.216-91.766 c-14.095-28.425-39.201-50.354-69.283-60.493c-31.775-10.709-61.551-6.319-91.766,6.216c-6.054,2.511-12.087,5.055-18.119,7.607 c-91.781,34.775-182.586,72.064-273.895,108.054c-11.604,4.49-23.201,8.996-34.788,13.527 c-26.498-19.339-60.502-27.739-94.326-22.059c-70.982,11.92-136.523,40.814-199.625,74.223 c12.335-17.39,23.001-35.916,31.447-55.66c12.939-30.248,15.41-62.893,3.655-94.032c-13.275-35.165-41.112-60.002-75.424-71.868 c9.631-29.519,7.524-62.682-6.24-90.749c-4.095-8.35-9.108-16.068-14.876-23.077c4.579-18.551,4.718-37.25,0.393-56.1 c-1.731-7.396-4.136-14.445-7.099-21.133c30.064-8.596,60.24-16.848,90.547-24.712c17.208-4.465,34.442-8.87,51.696-13.219 c28.209,4.057,57.356,4.521,85.087,5.012c71.996,1.274,143.702-9.073,214.7-20.375c64.503-10.494,128.637-23.147,193.163-33.388 c45.621-7.24,91.152-16.395,136.091-27.035c42.959-10.171,85.139-22.956,127.094-36.683c29.081-9.516,57.773-20.715,84.767-35.198 c28.272-15.168,55.75-31.284,79.735-51.967c22.149-8.314,43.986-17.424,65.388-27.516c41.354-19.501,82.476-40.565,119.311-67.867 c25.119-18.618,48.979-39.65,70.745-62.046c5.956-6.128,11.511-12.66,16.377-19.688c6.862-9.909,15.6-21.667,21.872-33.031 c6.648-12.043,9.96-25.925,14.242-38.812c1.752-5.272,3.02-10.901,3.768-16.64c86.265,11.183,172.197,25.7,256.798,44.992 c30.664,6.992,68.3-6.76,92.027-25.603c24.938-19.804,41.542-49.073,45.583-80.681c2.283-17.861,0.519-36.015-4.893-53.018 c97.538-3.754,195.063-8.091,292.463-8.646c17.77-0.101,35.516-0.183,53.269,0.09c47.935,3.057,95.534,9.447,142.415,19.866 c37.936,10.699,74.97,24.128,110.779,40.574c19.086,10.301,37.631,21.573,55.9,33.272c16.095,12.048,31.814,24.526,47.312,37.314 c13.589,13.134,26.888,26.551,39.913,40.241c14.18,17.384,27.936,35.1,41.169,53.212c13.606,21.835,26.42,44.133,38.52,66.834 c11.292,25.345,21.703,51.054,31.343,77.069c10.582,35.441,19.729,71.178,27.244,107.38 c7.91,52.426,12.521,105.126,13.667,158.124C3556.581,1006.784,3550.435,1071.032,3540.364,1134.795z" fill="inherit"/></g><g id="change1_3"><path d="M3810.959,931.153c0.012,3.671,0.007,7.344-0.004,11.018c0.059,7.184,0.089,14.378,0.103,21.585 C3811.026,952.888,3810.993,942.021,3810.959,931.153z" fill="inherit"/></g><g id="change1_1"><path d="M916.854,1801.125c0.092-0.047,0.185-0.094,0.277-0.141c0.134-0.079,0.269-0.159,0.402-0.238 c-0.044,0.022-0.089,0.046-0.133,0.068C917.22,1800.919,917.036,1801.019,916.854,1801.125z" fill="inherit"/><path d="M973.396,1767.671c-0.413,0.279-0.824,0.558-1.232,0.833c0.425-0.263,0.85-0.524,1.274-0.787 c0.437-0.303,0.873-0.605,1.309-0.908C974.296,1767.095,973.848,1767.386,973.396,1767.671z" fill="inherit"/><path d="M3661.113,891.756c-1.062-6.14-2.673-12.177-4.644-18.084c-3.046-9.127-6.479-18.159-10.228-27.055 c0.607-0.99,1.207-1.989,1.791-3.005c10.895-19.138,16.286-39.73,16.177-61.776c-0.247-22.045-5.971-42.547-17.173-61.507 c-10.955-14.274-19.399-26.831-32.875-37.637c-8.85-7.096-17.779-14.117-26.869-20.918c24.652-20.662,42.084-45.781,47.359-78.225 c3.484-22.25,1.158-43.874-6.98-64.872c-8.021-20.045-20.412-36.867-37.172-50.463c-15.16-13.355-33.371-23.342-50.462-33.721 c-9.561-5.806-19.673-10.679-29.986-14.989c-32.497-13.577-67.264-23.566-101.964-29.794c-8.135-1.46-16.334-2.668-24.569-3.682 c-2.188-23.65-11.167-46.546-26.048-65.284c-7.51-7.308-15.021-14.616-22.53-21.923c-17.329-12.923-36.713-20.81-58.15-23.66 c-62.923-2.78-126.829,0.167-188.861,11.49c-31.819,5.808-63.475,13.887-94.333,23.821c-4.977-19.71-14.293-37.161-27.972-52.342 c-7.898-6.74-15.797-13.481-23.695-20.221c-18.439-11.928-38.637-18.461-60.594-19.599c-69.938-9.629-140.927-9.324-211.177-3.435 c-84.438,7.078-167.98,19.918-250.389,39.647c-6.617,1.584-13.221,3.225-19.816,4.894c-9.819,1.362-19.639,2.724-29.458,4.086 c5.399-0.725,10.798-1.45,16.197-2.176c-21.95,2.962-43.829,6.057-65.613,10.215c-26.911,5.136-53.035,11.972-79.438,19.142 c-7.544,1.726-15.127,3.554-22.446,5.666c-4.426,1.277-8.911,2.763-13.38,4.329c-8.525,2.66-17.052,5.32-25.577,7.98 c-7.469,2.003-14.967,4.1-22.222,6.458c-4.71,1.53-9.465,3.287-14.192,5.129l-16.828,5.984c-5.719,1.9-11.438,3.8-17.157,5.701 c-15.506,4.887-30.986,9.851-46.28,15.374c-25.855,9.338-51.39,19.954-76.973,29.898c9.507-3.515,19.014-7.03,28.52-10.545 c-50.656,18.654-100.766,38.353-150.434,59.508c-19.067,9.957-34.354,24.022-45.862,42.196 c-15.907,25.452-21.382,56.619-15.303,85.976c-9.063,0.495-18.107,1.074-27.12,1.746c-33.171,2.474-66.158,6.966-98.907,12.781 c-3.012-1.853-6.104-3.584-9.277-5.172c-10.003-3.462-20.006-6.924-30.009-10.387c-22.043-4.386-43.702-2.952-64.975,4.302 c-101.963,23.041-202.194,52.805-302.01,83.708c-25.906-29.371-65.675-47.114-105.07-40.798 c-44.49,7.131-88.181,20.906-129.386,39.019c-48.084,21.136-94.93,46.195-139.276,74.379 c-43.913,27.909-84.015,60.115-123.114,94.38c-14.575,12.773-28.52,26.273-41.635,40.543 c-18.472,20.096-33.485,42.217-48.811,64.816c-6.151,9.071-11.622,18.603-16.242,28.542c-13.86,29.82-17.496,62.179-6.783,93.705 c14.28,42.026,48.326,68.646,90.226,79.635c26.473,6.942,56.082,6.85,83.332,3.938c37.834-4.041,72.811-12.931,108.433-23.684 c-0.092,0.069-0.184,0.138-0.276,0.207c-3.203,1.009-6.406,2.018-9.609,3.026c3.086-0.911,6.166-1.835,9.248-2.756 c-11.234,8.376-22.269,16.986-32.962,25.971c-3.104,2.608-6.146,5.295-9.048,8.129c-16.718,13.278-29.146,29.79-37.286,49.537 c-8.265,20.688-10.788,42.053-7.569,64.097c7.731,50.853,52.367,99.319,105.798,102.235c5.114,0.279,10.235,0.479,15.359,0.642 c0.07,3.674,0.288,7.372,0.68,11.098c3.182,29.308,18.137,59.227,40.822,79.535c-11.664-1.891-23.63-2.059-35.471-0.374 c-30.921,4.396-59.17,21.092-77.935,46.078c-13.978,18.613-19.821,37.368-21.814,57.813c-12.646,7.346-25.293,14.691-37.94,22.038 c-2.906,1.646-5.813,3.293-8.72,4.939c-37.979,21.134-76.074,42.058-114.69,61.99c-16.733,8.046-33.351,16.294-49.737,24.908 c-58.187,30.588-75.313,110.111-43.284,164.933c16.059,27.487,42.695,47.717,73.502,55.801 c32.75,8.596,61.822,1.914,91.431-12.517c12.227-5.959,24.391-12.034,36.501-18.206c29.27-14.057,58.708-27.488,86.973-43.791 c-2.3,1.164-4.6,2.328-6.9,3.493c2.569-1.299,5.044-2.563,7.447-3.804c2.781-1.608,5.551-3.242,8.307-4.91 c-2.725,1.614-5.449,3.228-8.174,4.842c20.703-10.692,35.78-19.545,54.63-32.241c-2.377,1.468-4.755,2.937-7.132,4.405 c2.803-1.73,5.589-3.479,8.365-5.238c1.647-1.113,3.327-2.26,5.04-3.438c0.031-0.018,0.063-0.034,0.094-0.052 c-1.261,0.876-2.522,1.751-3.784,2.627c1.99-1.267,3.974-2.538,5.947-3.822c1.343-0.743,2.682-1.492,4.024-2.237 c-3.76,2.323-7.52,4.646-11.28,6.968c-5.518,3.831-11.036,7.661-16.555,11.492c10.082-6.601,20.164-13.2,30.247-19.801 c59.101-32.833,117.674-66.616,176.207-100.46c26.535,35.881,71.939,57.561,117.68,48.498 c113.568-22.499,225.174-52.908,335.927-86.455c0.548,0.628,1.089,1.26,1.651,1.881c7.915,6.723,15.83,13.445,23.745,20.168 c18.468,11.888,38.684,18.375,60.645,19.462c129.822,21.943,257.821,0.097,384.101-31.528 c20.622,26.336,47.437,38.64,79.327,46.23c93.077,22.155,191.383,10.282,284.019-10.536 c17.772,14.899,39.362,24.675,62.569,25.506c20.111,0.721,40.303,0.421,60.4,0.471c-10.751-0.062-21.503-0.123-32.255-0.185 c32.09,0.189,63.762-1.305,95.279-4.014c-5.46,26.715-2.688,55.393,8.01,78.844c9.082,19.647,22.369,35.838,39.861,48.571 c27.901,20.168,58.136,24.643,91.611,21.757c115.146-9.923,228.5-33.466,340.506-61.313l-17.695,4.427 c78.178-17.68,155.663-38.188,232.699-60.293c53.023-15.215,86.803-73.144,83.725-126.202c6.37-3.576,12.68-7.249,18.91-11.04 c38.308-23.31,78.937-49.521,103.328-88.632c28.725-46.059,34.916-98.36,17.1-145.785c7.003-7.141,13.924-14.356,20.743-21.658 c17.478-18.713,34.405-38.144,49.236-59.046c5.354-8.995,10.71-17.99,16.065-26.986c8.718-20.352,11.774-41.535,9.171-63.547 c-2.741-21.996-10.779-41.831-24.115-59.505c-6.479-8.432-13.767-15.829-21.861-22.198c1.08-1.149,2.143-2.316,3.176-3.508 c10.634-12.269,21.506-25.262,29.854-39.39c8.293-14.034,14.355-29.577,19.895-44.813c2.022-5.564,3.438-11.339,4.366-17.182 c2.491-15.669,6.034-32.999,5.811-49.411C3666.594,924.866,3663.942,908.119,3661.113,891.756z M858.078,1555.787 C858.078,1555.787,858.077,1555.787,858.078,1555.787c2.192-1.306,4.386-2.611,6.58-3.918l0.063-0.035 C862.506,1553.152,860.292,1554.467,858.078,1555.787z M882.815,1541.062c-5.96,3.546-11.921,7.093-17.881,10.644 c-0.02,0.011-0.04,0.022-0.06,0.033c5.98-3.561,11.961-7.122,17.941-10.683C882.816,1541.058,882.816,1541.06,882.815,1541.062z" fill="inherit"/><path d="M937.215,1790.817c-6.694,3.39-13.389,6.778-20.083,10.167c-5.933,3.515-11.866,7.029-17.798,10.543 C911.96,1804.624,924.588,1797.72,937.215,1790.817z" fill="inherit"/></g><g id="change1_4"><path d="M3749.554,580.627c2.16,6.478,4.32,12.955,6.48,19.433c2.489,7.073,4.979,14.146,7.468,21.219 C3758.853,607.729,3754.204,594.178,3749.554,580.627z" fill="inherit"/></g><g id="change1_5"><path d="M3756.035,600.06c-1.138-3.234-2.275-6.469-3.414-9.703c1.77,5.019,3.479,10.031,5.161,15.04 c0.714,2.1,1.433,4.193,2.136,6.304C3758.623,607.821,3757.33,603.94,3756.035,600.06z" fill="inherit"/></g><g id="change1_6"><path d="M3005.13,67.731c5.792,0.217,11.578,0.447,17.36,0.698c5.03,0.156,10.062,0.329,15.094,0.521 C3026.766,68.544,3015.949,68.137,3005.13,67.731z" fill="inherit"/></g></g></svg>