<?xml version="1.0" encoding="UTF-8" standalone="no"?><svg xmlns="http://www.w3.org/2000/svg" xmlns:xlink="http://www.w3.org/1999/xlink" fill="#000000" height="235.2" preserveAspectRatio="xMidYMid meet" version="1" viewBox="71.6 10.8 112.9 235.2" width="112.9" zoomAndPan="magnify"><g fill="#addbef" id="change1_1"><path d="M127.62,68.78q-1.31-12.84-3-25.64-.86-6.33-1.82-12.66c-.64-4.2-1.26-8.43-2.13-12.59-.44-2.06-1-4.1-1.34-6.16-.18-.94-2.45-.81-2.9-.78a13.63,13.63,0,0,0-2,.31,3.57,3.57,0,0,0-1.35.1,9.46,9.46,0,0,0-3.78,1.74l-.15.12a13.65,13.65,0,0,0-3.3,2.11,4.58,4.58,0,0,0-1.47,1.83l-1.08,1.07c-.77.79-1.54,1.59-2.3,2.41l-.57.6-.09.12c-.17.17-.28.29-.47.5l-1.16,1.3c-1.44,1.65-2.89,3.32-4.22,5.05s-2.44,3.4-3.58,5.14c-1.29,1.94-2.51,3.92-3.7,5.92-1.12,1.75-2.07,3.64-3,5.49q-1.26,2.46-2.41,5a103.71,103.71,0,0,0-4,10.06,120.5,120.5,0,0,0-5,20.94,107.43,107.43,0,0,0-1,10.74,97.05,97.05,0,0,0,.11,12.06c.59,7.31,2.56,14.66,7.25,20.45a25.27,25.27,0,0,0,8,6.66,22.73,22.73,0,0,0,5.27,1.84,24.11,24.11,0,0,0,5.93.45,33.22,33.22,0,0,0,8-1.4,37.84,37.84,0,0,0,8.95-3.82,27.83,27.83,0,0,0,6.59-5.13,19.21,19.21,0,0,0,3.31-5.12,44,44,0,0,0,3.1-11.3,81.7,81.7,0,0,0,1-12.1A224.69,224.69,0,0,0,127.62,68.78ZM109,123.43c-.28.43-.58.85-.89,1.25a17.87,17.87,0,0,1-2.92-.42,21,21,0,0,1-8.5-5.05c-5.73-5.87-8.17-13.91-8.87-21.92-.21-2.39-.27-4.79-.26-7.18a119.94,119.94,0,0,1,6.58-37.84c1.4-4,2.9-8,4.66-11.93A130.4,130.4,0,0,1,105.12,28l.6-1q.6,3.51,1.17,7,1.26,8,2.31,16,2.1,15.93,3.57,31.94c.54,5.7,1,11.42.93,17.15a79.37,79.37,0,0,1-1.13,12.79A37.49,37.49,0,0,1,109,123.43Z"/><path d="M184.25,189.73c-.16-5.28-.44-10.56-.87-15.82a311,311,0,0,0-4.09-31.16A310.53,310.53,0,0,0,172,112c-.72-2.48-1.47-4.94-2.26-7.4-.3-1-2.38-.84-3-.8a17.26,17.26,0,0,0-4.65,1.09,4.8,4.8,0,0,0-1.65.13,15.57,15.57,0,0,0-2.2.69,9.2,9.2,0,0,0-2.8,1.61l-2,2c-.14.15-.29.29-.44.44s-.59.51-.23.21-.67.65-.62.59c-.12.15-.22.35-.34.51-.71,1.07-1.42,2.14-2.12,3.22-1.52,2.36-3,4.75-4.4,7.19-2.51,4.38-4.86,8.82-6.93,13.43A165.24,165.24,0,0,0,129,162.7a183.59,183.59,0,0,0-4.81,28.72c-.43,5-.64,10.09-.68,15.15a119.94,119.94,0,0,0,.6,14.8,33.59,33.59,0,0,0,4.17,13.4,21.34,21.34,0,0,0,9.49,8.74c5.77,2.44,12.11,1.68,18,.06a40.89,40.89,0,0,0,18.53-10.9c6.81-7.09,9.31-17,9.9-26.54C184.51,200.68,184.4,195.19,184.25,189.73Zm-15.3,16c-.11,8.66-1.09,17.48-5.41,25.12a28.5,28.5,0,0,1-3.68,4.79c-.25.24-.5.46-.76.69l-.66.54c-.36,0-.72.06-1.09.08a19.32,19.32,0,0,1-3.11-.4,17.75,17.75,0,0,1-7-4.12c-6.27-6.52-7.5-15.84-7.8-24.52-.09-2.52-.12-5-.1-7.57a192.53,192.53,0,0,1,4.23-37.76,189.42,189.42,0,0,1,5-18.7c1-3,2-6,3.1-9s2.13-5.86,3.32-8.75c.75-1.81,1.46-3.63,2.19-5.45q3.78,13.34,6.36,27a310.3,310.3,0,0,1,4.73,37.2C168.74,191.77,169,198.75,169,205.71Z"/></g></svg>