<?xml version="1.0" encoding="UTF-8"?><svg xmlns="http://www.w3.org/2000/svg" xmlns:xlink="http://www.w3.org/1999/xlink" height="495.2" preserveAspectRatio="xMidYMid meet" version="1.0" viewBox="0.0 0.0 500.0 495.2" width="500.0" zoomAndPan="magnify"><g><g id="change1_1"><circle cx="308.828" cy="181.984" fill="#E249A0" opacity=".5" r="32.697"/></g><g id="change1_2"><circle cx="308.828" cy="358.415" fill="#E249A0" opacity=".5" r="69.583"/></g><g id="change1_3"><circle cx="71.202" cy="432.577" fill="#E249A0" opacity=".5" r="41.541"/></g><g id="change1_4"><circle cx="71.707" cy="315.66" fill="#E249A0" opacity=".5" r="41.541"/></g><g id="change1_5"><circle cx="212.881" cy="81.26" fill="#E249A0" opacity=".5" r="41.541"/></g><g id="change1_6"><circle cx="94.087" cy="122.802" fill="#E249A0" opacity=".5" r="41.541"/></g><g id="change1_7"><circle cx="447.768" cy="193.16" fill="#E249A0" opacity=".5" r="18.119"/></g><g id="change1_8"><circle cx="103.684" cy="253.569" fill="#E249A0" opacity=".5" r="9.059"/></g><g id="change1_9"><circle cx="21.248" cy="253.569" fill="#E249A0" opacity=".5" r="9.059"/></g><g id="change1_10"><circle cx="28.37" cy="362.476" fill="#E249A0" opacity=".5" r="9.059"/></g><g id="change2_1"><circle cx="62.592" cy="181.984" fill="#FC5730" opacity=".5" r="50.151"/></g><g id="change2_2"><circle cx="361.339" cy="230.51" fill="#FC5730" opacity=".5" r="50.151"/></g><g id="change2_3"><circle cx="429.649" cy="258.88" fill="#FC5730" opacity=".5" r="70.351"/></g><g id="change2_4"><circle cx="390.077" cy="98.627" fill="#FC5730" opacity=".5" r="35.056"/></g><g id="change2_5"><circle cx="274.882" cy="150.286" fill="#FC5730" opacity=".5" r="18.453"/></g><g id="change2_6"><circle cx="195.073" cy="159.063" fill="#FC5730" opacity=".5" r="23.734"/></g><g id="change2_7"><circle cx="183.986" cy="419.347" fill="#FC5730" opacity=".5" r="48.357"/></g><g id="change2_8"><circle cx="256.429" cy="304.703" fill="#FC5730" opacity=".5" r="31.364"/></g><g id="change3_1"><circle cx="272.061" cy="222.515" fill="#FFF" opacity=".5" r="39.719"/></g><g id="change3_2"><circle cx="440.287" cy="39.719" fill="#FFF" opacity=".5" r="39.719"/></g><g id="change3_3"><circle cx="369.199" cy="198.372" fill="#FFF" opacity=".5" r="23.331"/></g><g id="change3_4"><circle cx="452.98" cy="373.311" fill="#FFF" opacity=".5" r="23.331"/></g><g id="change3_5"><circle cx="369.199" cy="440.813" fill="#FFF" opacity=".5" r="44.171"/></g><g id="change3_6"><circle cx="94.087" cy="380.237" fill="#FFF" opacity=".5" r="44.171"/></g><g id="change3_7"><circle cx="28.37" cy="258.88" fill="#FFF" opacity=".5" r="28.37"/></g><g id="change3_8"><circle cx="130.996" cy="39.719" fill="#FFF" opacity=".5" r="28.37"/></g><g id="change3_9"><circle cx="151.299" cy="122.802" fill="#FFF" opacity=".5" r="28.37"/></g><g id="change4_1"><circle cx="268.837" cy="258.924" fill="#00E5DF" opacity=".5" r="32.14"/></g><g id="change4_2"><circle cx="135.229" cy="157.006" fill="#00E5DF" opacity=".5" r="16.07"/></g><g id="change4_3"><circle cx="155.013" cy="375.37" fill="#00E5DF" opacity=".5" r="35.854"/></g><g id="change4_4"><circle cx="272.061" cy="462.825" fill="#00E5DF" opacity=".5" r="22.159"/></g><g id="change4_5"><circle cx="113.249" cy="468.242" fill="#00E5DF" opacity=".5" r="26.923"/></g><g id="change4_6"><circle cx="275.571" cy="37.423" fill="#00E5DF" opacity=".5" r="37.423"/></g><g id="change4_7"><circle cx="113.249" cy="41.339" fill="#00E5DF" opacity=".5" r="37.423"/></g><g id="change4_8"><circle cx="452.98" cy="83.695" fill="#00E5DF" opacity=".5" r="37.423"/></g><g id="change4_9"><circle cx="376.951" cy="473.414" fill="#00E5DF" opacity=".5" r="13.806"/></g><g id="change4_10"><circle cx="183.964" cy="265.218" fill="#00E5DF" opacity=".5" r="6.903"/></g><g id="change4_11"><circle cx="201.976" cy="340.288" fill="#00E5DF" opacity=".5" r="6.903"/></g><g id="change5_1"><circle cx="163.448" cy="262.628" fill="#EDA018" opacity=".5" r="95.787"/></g><g id="change5_2"><circle cx="355.021" cy="76.426" fill="#EDA018" opacity=".5" r="28.503"/></g><g id="change5_3"><circle cx="257.193" cy="81.26" fill="#EDA018" opacity=".5" r="17.689"/></g><g id="change5_4"><circle cx="346.176" cy="304.703" fill="#EDA018" opacity=".5" r="37.348"/></g><g id="change5_5"><circle cx="265.071" cy="432.072" fill="#EDA018" opacity=".5" r="27.536"/></g><g id="change5_6"><circle cx="296.201" cy="393.751" fill="#EDA018" opacity=".5" r="4.776"/></g><g id="change5_7"><circle cx="406.226" cy="422.26" fill="#EDA018" opacity=".5" r="27.536"/></g><g id="change5_8"><circle cx="252.51" cy="355.177" fill="#EDA018" opacity=".5" r="43.349"/></g><g id="change5_9"><circle cx="71.707" cy="81.26" fill="#EDA018" opacity=".5" r="27.536"/></g><g id="change5_10"><circle cx="75.414" cy="440.934" fill="#EDA018" opacity=".5" r="18.674"/></g></g></svg>