<?xml version="1.0" encoding="UTF-8" standalone="no"?><svg xmlns="http://www.w3.org/2000/svg" xmlns:xlink="http://www.w3.org/1999/xlink" fill="#604696" height="329.9" preserveAspectRatio="xMidYMid meet" version="1" viewBox="25.5 642.1 1415.5 329.9" width="1415.5" zoomAndPan="magnify"><g id="change1_1"><path d="M13920 8414 c-1033 -345 -1768 -556 -2580 -739 -938 -212 -1605 -299 -2390 -312 -848 -13 -1513 56 -2545 267 -416 85 -899 194 -1926 435 -1019 239 -1649 366 -2039 409 -693 78 -1397 16 -2057 -181 l-123 -36 -2 -1488 -3 -1489 7078 0 7077 0 0 1650 c0 908 -1 1649 -2 1648 -2 -1 -221 -75 -488 -164z" transform="matrix(.1 0 0 -.1 0 1500)"/></g></svg>