<svg xmlns="http://www.w3.org/2000/svg" width="187" height="56" viewBox="0 0 187 56" fill="none"><path d="M27.464 13.779V11.923H22.056V23.123H24.024V18.387H27.16V16.579H24.024V13.779H27.464ZM30.8678 21.267V18.339H34.2278V16.547H30.8678V13.779H34.5318V11.923H28.8997V23.123H34.6918V21.267H30.8678ZM36.3372 11.923V23.123H38.3053V11.923H36.3372ZM46.1278 11.923H39.5998V13.795H41.8558V23.123H43.8718V13.795H46.1278V11.923ZM51.4136 23.123H53.4616L50.7096 11.923H48.5976L45.8456 23.123H47.8936L48.3416 21.091H50.9656L51.4136 23.123ZM48.7416 19.219L49.1896 17.139C49.3496 16.371 49.5256 15.139 49.6216 14.387H49.6696C49.7816 15.139 49.9576 16.371 50.1176 17.139L50.5656 19.219H48.7416ZM60.9398 23.315C63.0998 23.315 64.3638 22.067 64.4438 19.795H62.4758C62.3958 20.915 61.9158 21.411 60.9398 21.411C60.1078 21.411 59.6118 20.883 59.6118 19.763V15.283C59.6118 14.131 60.1078 13.603 60.9238 13.603C61.8838 13.603 62.3638 14.099 62.4278 15.251H64.3958C64.2998 12.963 63.0838 11.699 60.9398 11.699C58.8438 11.699 57.5798 12.963 57.5798 15.283V19.763C57.5798 22.067 58.8598 23.315 60.9398 23.315ZM69.0845 23.315C71.2925 23.315 72.6045 21.891 72.6045 19.523V15.523C72.6045 13.155 71.2925 11.731 69.0845 11.731C66.8605 11.731 65.5485 13.155 65.5485 15.523V19.523C65.5485 21.891 66.8605 23.315 69.0845 23.315ZM69.0845 21.411C68.0925 21.411 67.5805 20.739 67.5805 19.523V15.523C67.5805 14.307 68.0925 13.635 69.0845 13.635C70.0765 13.635 70.5725 14.307 70.5725 15.523V19.523C70.5725 20.739 70.0765 21.411 69.0845 21.411ZM81.6318 11.923L79.8238 16.307C79.5838 16.899 79.1838 17.923 79.0398 18.387H78.9758C78.8318 17.923 78.4478 16.899 78.2078 16.307L76.3838 11.923H74.3997V23.123H76.3198V19.619C76.2718 18.307 76.2238 17.027 76.1598 15.763L76.2398 15.731C76.5758 16.659 76.9278 17.667 77.2798 18.675L78.0318 20.659H79.9838L80.7358 18.675C81.0878 17.667 81.4558 16.659 81.7758 15.731L81.8558 15.763C81.7917 17.027 81.7438 18.307 81.6958 19.619V23.123H83.6318V11.923H81.6318ZM92.0804 23.315C94.2404 23.315 95.5044 22.067 95.5844 19.795H93.6164C93.5364 20.915 93.0564 21.411 92.0804 21.411C91.2484 21.411 90.7524 20.883 90.7524 19.763V15.283C90.7524 14.131 91.2484 13.603 92.0644 13.603C93.0244 13.603 93.5044 14.099 93.5684 15.251H95.5364C95.4404 12.963 94.2244 11.699 92.0804 11.699C89.9844 11.699 88.7204 12.963 88.7204 15.283V19.763C88.7204 22.067 90.0004 23.315 92.0804 23.315ZM100.225 23.315C102.433 23.315 103.745 21.891 103.745 19.523V15.523C103.745 13.155 102.433 11.731 100.225 11.731C98.0011 11.731 96.6891 13.155 96.6891 15.523V19.523C96.6891 21.891 98.0011 23.315 100.225 23.315ZM100.225 21.411C99.2331 21.411 98.7211 20.739 98.7211 19.523V15.523C98.7211 14.307 99.2331 13.635 100.225 13.635C101.217 13.635 101.713 14.307 101.713 15.523V19.523C101.713 20.739 101.217 21.411 100.225 21.411ZM110.5 11.923V15.331C110.5 16.355 110.612 18.163 110.772 19.427L110.724 19.475C110.452 18.787 110.116 17.907 109.828 17.187L107.492 11.923H105.54V23.123H107.476V19.907C107.476 18.739 107.38 16.835 107.236 15.571L107.284 15.523C107.588 16.355 107.988 17.379 108.324 18.259L110.484 23.123H112.436V11.923H110.5ZM119.964 13.779V11.923H114.556V23.123H116.524V18.387H119.66V16.579H116.524V13.779H119.964ZM121.4 11.923V23.123H123.368V11.923H121.4ZM130.054 23.123H132.102L129.35 11.923H127.238L124.486 23.123H126.534L126.982 21.091H129.606L130.054 23.123ZM127.382 19.219L127.83 17.139C127.99 16.371 128.166 15.139 128.262 14.387H128.31C128.422 15.139 128.598 16.371 128.758 17.139L129.206 19.219H127.382ZM138.188 11.923V15.331C138.188 16.355 138.3 18.163 138.46 19.427L138.412 19.475C138.14 18.787 137.804 17.907 137.516 17.187L135.18 11.923H133.228V23.123H135.164V19.907C135.164 18.739 135.068 16.835 134.924 15.571L134.972 15.523C135.276 16.355 135.676 17.379 136.012 18.259L138.172 23.123H140.124V11.923H138.188ZM148.788 19.795H146.82C146.74 20.915 146.26 21.411 145.284 21.411C144.452 21.411 143.956 20.883 143.956 19.763V15.283C143.956 14.131 144.452 13.603 145.268 13.603C146.228 13.603 146.708 14.099 146.772 15.251H148.74C148.644 12.963 147.428 11.699 145.284 11.699C143.188 11.699 141.924 12.963 141.924 15.283V19.763C141.924 21.939 143.06 23.171 144.932 23.299L144.628 24.355L144.932 24.659C145.092 24.563 145.316 24.531 145.476 24.531C145.86 24.531 146.036 24.723 146.036 25.011C146.036 25.315 145.844 25.555 145.46 25.555C145.14 25.555 144.932 25.395 144.82 25.123H143.764C143.844 25.955 144.58 26.515 145.444 26.515C146.452 26.515 147.14 25.939 147.14 25.059C147.14 24.355 146.644 23.875 145.972 23.875C145.891 23.875 145.844 23.875 145.812 23.891L145.988 23.267C147.716 23.027 148.724 21.811 148.788 19.795ZM154.507 23.123H156.555L153.803 11.923H151.691L148.939 23.123H150.987L151.435 21.091H154.059L154.507 23.123ZM151.835 19.219L152.283 17.139C152.443 16.371 152.619 15.139 152.715 14.387H152.763C152.875 15.139 153.051 16.371 153.211 17.139L153.659 19.219H151.835ZM157.329 21.363L157.009 25.363H158.129L159.137 21.363H157.329ZM27.464 33.779V31.923H22.056V43.123H24.024V38.387H27.16V36.579H24.024V33.779H27.464ZM30.8678 41.267V38.339H34.2278V36.547H30.8678V33.779H34.5318V31.923H28.8997V43.123H34.6918V41.267H30.8678ZM36.3372 31.923V43.123H38.3053V31.923H36.3372ZM46.1278 31.923H39.5998V33.795H41.8558V43.123H43.8718V33.795H46.1278V31.923ZM51.4136 43.123H53.4616L50.7096 31.923H48.5976L45.8456 43.123H47.8936L48.3416 41.091H50.9656L51.4136 43.123ZM48.7416 39.219L49.1896 37.139C49.3496 36.371 49.5256 35.139 49.6216 34.387H49.6696C49.7816 35.139 49.9576 36.371 50.1176 37.139L50.5656 39.219H48.7416ZM61.0038 31.923H57.8997V43.123H59.8678V39.363H61.0038C63.2598 39.363 64.5878 38.003 64.5878 35.651C64.5878 33.299 63.2598 31.923 61.0038 31.923ZM60.9878 37.507H59.8678V33.795H60.9878C62.0438 33.795 62.5718 34.419 62.5718 35.651C62.5718 36.883 62.0438 37.507 60.9878 37.507ZM69.9761 43.123H72.0241L69.2721 31.923H67.1601L64.4081 43.123H66.4561L66.9041 41.091H69.5281L69.9761 43.123ZM67.3041 39.219L67.7521 37.139C67.9121 36.371 68.0881 35.139 68.1841 34.387H68.2321C68.3441 35.139 68.5201 36.371 68.6801 37.139L69.1281 39.219H67.3041ZM78.0138 43.123H80.1737L77.9178 38.867C79.0538 38.323 79.6778 37.171 79.6778 35.539C79.6778 33.251 78.4138 31.923 76.2218 31.923H73.1497V43.123H75.1178V39.219H76.0138L78.0138 43.123ZM75.1178 33.795H76.2057C77.1498 33.795 77.6618 34.403 77.6618 35.555C77.6618 36.723 77.1498 37.347 76.2057 37.347H75.1178V33.795ZM85.9918 43.123H88.0398L85.2878 31.923H83.1758L80.4238 43.123H82.4718L82.9198 41.091H85.5438L85.9918 43.123ZM83.3198 39.219L83.7678 37.139C83.9278 36.371 84.1038 35.139 84.1998 34.387H84.2478C84.3598 35.139 84.5358 36.371 84.6958 37.139L85.1438 39.219H83.3198ZM92.4779 43.123H95.4379C97.6299 43.123 98.9259 41.763 98.9259 39.459V35.539C98.9259 33.251 97.6299 31.923 95.4059 31.923H92.4779V43.123ZM94.4459 41.251V33.795H95.4379C96.4139 33.795 96.9419 34.387 96.9419 35.539V39.443C96.9419 40.627 96.4139 41.251 95.4379 41.251H94.4459ZM102.68 41.267V38.339H106.04V36.547H102.68V33.779H106.344V31.923H100.712V43.123H106.504V41.267H102.68ZM110.838 43.347C112.998 43.347 114.23 41.955 114.23 40.195C114.23 36.675 109.67 36.611 109.67 34.659C109.67 34.019 110.102 33.603 110.838 33.603C111.59 33.603 112.038 34.035 112.054 34.931H114.07C114.054 32.931 112.838 31.699 110.838 31.699C108.854 31.699 107.67 32.947 107.67 34.611C107.67 37.987 112.182 38.147 112.182 40.179C112.182 40.899 111.75 41.427 110.854 41.427C110.006 41.427 109.478 40.963 109.462 39.955H107.446C107.462 42.115 108.774 43.347 110.838 43.347ZM120.242 43.123H122.29L119.538 31.923H117.426L114.674 43.123H116.722L117.17 41.091H119.794L120.242 43.123ZM117.57 39.219L118.018 37.139C118.178 36.371 118.354 35.139 118.45 34.387H118.498C118.61 35.139 118.786 36.371 118.946 37.139L119.394 39.219H117.57ZM128.823 33.779V31.923H123.415V43.123H125.383V38.387H128.519V36.579H125.383V33.779H128.823ZM130.259 31.923V43.123H132.227V31.923H130.259ZM138.914 43.123H140.962L138.21 31.923H136.098L133.346 43.123H135.394L135.842 41.091H138.466L138.914 43.123ZM136.242 39.219L136.69 37.139C136.85 36.371 137.026 35.139 137.122 34.387H137.17C137.282 35.139 137.458 36.371 137.618 37.139L138.066 39.219H136.242ZM146.951 43.123H149.111L146.855 38.867C147.991 38.323 148.615 37.171 148.615 35.539C148.615 33.251 147.351 31.923 145.159 31.923H142.087V43.123H144.055V39.219H144.951L146.951 43.123ZM144.055 33.795H145.143C146.087 33.795 146.599 34.403 146.599 35.555C146.599 36.723 146.087 37.347 145.143 37.347H144.055V33.795Z" fill="white"></path><line x1="1" y1="0.123047" x2="0.999998" y2="55.123" stroke="white" stroke-width="2"></line></svg>