<svg xmlns="http://www.w3.org/2000/svg" viewBox="0 0 1022 205.61"><defs><style>.cls-1{fill:#fff;}</style></defs><g id="Layer_2" data-name="Layer 2"><g id="logo-havan-slim-w"><path id="n" class="cls-1" d="M795.1,5.58c0,5.3.09,5.58,2.6,6,14.69,2.79,17.67,4.47,20.36,11.54,1.59,4,1.68,9.67,1.68,80.06v75.89l-2.33,4.46c-2.79,5.49-6.32,7.53-15.43,9.21l-6.42,1.2-.28,5.77-.28,5.77h82.86V193.8l-6.42-1c-9.11-1.4-13-3.63-15.9-9.21l-2.32-4.46L853,121.82l-.28-57.19,2.14,2.42c4.65,5.3,63.61,78.76,76.26,95,7.43,9.58,17.85,23.25,23.15,30.41l9.49,13h33.1l.19-89.56c.28-84.9.37-89.64,2-93.46,2.42-5.58,5.86-8.09,12.74-9.39,3.26-.65,6.89-1.3,8.09-1.58,1.86-.37,2-.93,2-5.95V0H939.24V5.58c0,5.3.09,5.58,2.6,6,10.88,2.05,14.69,3.44,17.11,6.05,4.84,5.3,4.84,5.11,5.11,73l.28,63.23-2.6-2.88c-1.39-1.49-28.83-36.17-60.91-76.9L842.43,0H795.1Z"/><path id="a-2" class="cls-1" d="M661.65,4.84C660.44,7.53,643.52,46.4,624,91.13c-36.83,84.72-40,91-47.43,96.25-3.81,2.61-15.72,6.05-21.11,6.05h-3.07v12.09h89.28V193.71l-5.12-.66c-6.42-.74-12.37-3.06-13.48-5.3-2.7-4.92-.28-15.34,6.88-29.47l3.35-6.7h69.46l4.28,9c7,15.06,8.65,22.88,5.67,27.06-1.76,2.6-4.46,3.72-12.46,5.21l-6,1.11-.28,5.77-.28,5.77H784l-.28-5.77-.28-5.77-7.35-1.11c-13.76-2.14-19.9-6-26-16.09-1.77-2.88-19-41.47-38.22-85.65S675.78,8.28,674.48,5.3C672.06,0,672.06,0,668,0S663.88.09,661.65,4.84ZM680.16,99.5l9.48,21.86-10.41.28c-5.77.09-15.53.09-21.67,0l-11.16-.28L655.7,100c5.11-11.81,9.95-22.88,10.79-24.65l1.39-3.25,1.3,2.79C669.93,76.35,674.85,87.51,680.16,99.5Z"/><path id="v" class="cls-1" d="M389.64,5.49c0,6.23-.28,6,8.84,7.06,12.64,1.49,19.9,6.7,26.69,19.07,1.76,3.35,19.71,43.8,39.89,90l36.55,84,4.09-.28,4.18-.28,36.55-84.16c20.09-46.31,37.76-86.39,39.15-89.18,6.14-11.9,14.32-17.67,26.78-19.16,9.12-1,8.84-.83,8.84-7.06V0H530.81l.65,5.3c.84,6.7.84,6.79,4.56,6.79a33.67,33.67,0,0,1,7.9,1.49c6.51,1.86,8.28,5.3,6.79,12.92-.56,2.79-7.91,20.93-16.37,40.27s-18.13,41.75-21.67,49.94-6.78,14.78-7.16,14.69-1.95-2.79-3.34-6S491,99.78,480.5,75.7s-19.72-45.94-20.27-48.55C458,17.67,461.43,13.76,473,12.28l5.48-.66.28-5.85L479,0H389.64Z"/><path id="a-1" class="cls-1" d="M343.24,2.05c-3,7.71-73.37,167.76-75.51,171.94-3.81,7.07-7.63,11.53-12.37,14.32-3.91,2.23-15.06,5.12-20.18,5.12h-2.7v12.09h89.28V193.8l-7.16-1.21c-5.68-.93-7.63-1.77-9.77-3.81-4.18-4.19-3.16-10.14,4.65-27.72l4.19-9.48,34.87.19,34.87.27,5.12,12c6,14.23,7.16,21.48,4.09,24.55-2.14,2.14-6.7,3.72-13.39,4.56l-4.28.56-.37,5.85-.28,6H464V193.71l-4.84-.56c-14-1.49-20.74-4.93-27-13.77-2.41-3.34-17.11-35.8-41.66-92.06L352.54.46,348.35.19C344.63-.09,344,.19,343.24,2.05Zm16.27,95.41,10.42,23.9-10.6.28c-5.77.09-15.53.09-21.58,0l-11.06-.28L337.38,96.9c5.86-13.39,11-24.18,11.25-23.81S353.84,84.35,359.51,97.46Z"/><path id="h" class="cls-1" d="M0,5.58c0,5,.19,5.58,2.14,5.95,1.11.19,4.74.84,8.09,1.49,8.09,1.39,11.07,3.35,14,8.83l2.32,4.56v76.35c0,76.16,0,76.25-1.95,80a22.3,22.3,0,0,1-3.81,5.3c-2.51,2.23-8.56,4.28-15.16,5L0,193.71v11.81H89.27V193.89l-6.88-1.11c-9.48-1.49-13-3.17-15.81-7.44-3.53-5.3-4.27-12.84-4.27-41.94V117.17H159v25.3c0,28.27-.84,36.54-4.19,42.12-2.69,4.65-6.6,6.6-16.27,8.28l-7,1.11-.28,5.77-.28,5.77h90.39l-.28-5.77-.28-5.77-7.35-1.2c-9.57-1.59-13.95-4.1-16.55-9.49L194.82,179V25.57l2.33-4.18c2.79-5,8-8,15.62-8.84,8.74-1,8.55-.83,8.55-7.06V0h-90.2V5.58c0,6.23-.46,5.86,8.84,7,6.32.84,11.9,3.44,14.13,6.61,4,5.76,4.28,8.09,4.74,38.68l.38,29.57H62.12l.46-29.57c.38-32.17.75-34.59,5.58-39.8,2.89-3.07,10.7-5.95,16.09-5.95,4.37,0,5-.84,5-6.6V0H0Z"/></g></g></svg>