<svg width="35" height="35" viewBox="0 0 35 35" fill="none" xmlns="http://www.w3.org/2000/svg">
<g id="factory">
<path d="M27.8893 21.9434C27.0413 21.9434 26.3512 22.6333 26.3512 23.4814C26.3512 24.3296 27.0413 25.0195 27.8893 25.0195C28.7374 25.0195 29.4274 24.3296 29.4274 23.4814C29.4274 22.6333 28.7375 21.9434 27.8893 21.9434ZM27.8893 23.9941C27.6066 23.9941 27.3766 23.7642 27.3766 23.4814C27.3766 23.1987 27.6066 22.9688 27.8893 22.9688C28.1721 22.9688 28.402 23.1987 28.402 23.4814C28.402 23.7642 28.1721 23.9941 27.8893 23.9941Z" fill="#58585D"/>
<path d="M11.9628 3.07617H12.0995C12.3827 3.07617 12.6122 2.84662 12.6122 2.56348C12.6122 2.28033 12.3827 2.05078 12.0995 2.05078H11.9628C11.6797 2.05078 11.4501 2.28033 11.4501 2.56348C11.4501 2.84662 11.6796 3.07617 11.9628 3.07617Z" fill="#58585D"/>
<path d="M8.43199 10.6666H8.29527C8.01213 10.6666 7.78258 10.8961 7.78258 11.1793C7.78258 11.4624 8.01213 11.692 8.29527 11.692H8.43199C8.71514 11.692 8.94469 11.4624 8.94469 11.1793C8.94469 10.8961 8.71514 10.6666 8.43199 10.6666Z" fill="#58585D"/>
<path d="M25.1949 9.72098C25.1949 9.43783 24.9655 9.20828 24.6822 9.20828H24.5455C24.2623 9.20828 24.0328 9.43783 24.0328 9.72098C24.0328 10.0041 24.2623 10.2337 24.5455 10.2337H24.6822C24.9655 10.2337 25.1949 10.0041 25.1949 9.72098Z" fill="#58585D"/>
<path d="M34.2139 31.377H33.8379V27.3466C33.8379 26.6288 33.254 26.0449 32.5362 26.0449H31.4782V23.4814C31.4782 21.6968 30.1686 20.2127 28.46 19.9384L26.6723 11.2407C26.9867 10.8151 27.173 10.2895 27.173 9.72091C27.173 8.30737 26.023 7.15743 24.6095 7.15743C24.1802 7.15743 23.7755 7.26407 23.4196 7.45138L22.0991 6.65034C21.857 6.50357 21.5417 6.58068 21.3949 6.82274C21.2481 7.06487 21.3252 7.38015 21.5673 7.52705L22.5886 8.14659C22.3782 8.41606 22.2201 8.72819 22.1305 9.06801L14.0362 4.15789C14.2492 3.89061 14.4099 3.58012 14.5029 3.24167L19.5221 6.2864C19.6053 6.33678 19.697 6.36077 19.7876 6.36077C19.9608 6.36077 20.13 6.27286 20.2264 6.11393C20.3732 5.8718 20.2961 5.55652 20.054 5.40969L14.5463 2.06862C14.315 0.891201 13.2754 0 12.0312 0C10.6176 0 9.4677 1.14994 9.4677 2.56348C9.4677 3.00501 9.57988 3.42077 9.7773 3.7839L7.81717 8.67405C7.06631 8.83641 6.43727 9.32846 6.08911 9.99065C6.05835 10.0052 6.02861 10.0231 6.00038 10.0443L3.57403 11.8686C3.18883 12.1583 2.95887 12.6193 2.95887 13.102V17.0153C2.95887 17.466 3.15465 17.8927 3.4959 18.186L4.89993 19.3924C5.07363 19.5417 5.29026 19.6217 5.51667 19.6217C5.54148 19.6217 5.5665 19.6207 5.59152 19.6188C5.84486 19.5992 6.07523 19.4818 6.24019 19.2884L7.00554 18.3912C7.34508 17.9932 7.29866 17.3921 6.9019 17.0512L6.03497 16.3062V13.8729L6.8572 13.2547C7.27966 13.5613 7.79851 13.7428 8.35919 13.7428C8.91987 13.7428 9.43872 13.5613 9.86118 13.2547L10.6834 13.8729V16.3062L9.81647 17.0512C9.41978 17.392 9.3733 17.9931 9.71277 18.3911L10.4781 19.2884C10.6432 19.4818 10.8736 19.5992 11.1269 19.6188C11.1519 19.6207 11.1768 19.6217 11.2016 19.6217C11.428 19.6217 11.6447 19.5416 11.8184 19.3924L13.2225 18.186C13.5638 17.8927 13.7595 17.466 13.7595 17.0153V13.102C13.7595 12.6193 13.5296 12.1583 13.1443 11.8686L10.6184 9.96946C10.6171 9.96707 10.6159 9.96461 10.6147 9.96222L12.5765 5.06789C12.794 5.02052 13.0012 4.94539 13.1944 4.84654L22.101 10.2495C22.2828 11.1133 22.9007 11.8181 23.713 12.1223L25.4982 20.808C24.7637 21.4657 24.3004 22.4203 24.3004 23.4814V26.0449H23.0399C22.3221 26.0449 21.7382 26.6288 21.7382 27.3466V31.377H9.12058C9.16522 31.2367 9.18962 31.0875 9.18962 30.9326V23.6865C9.18962 22.8761 8.53029 22.2168 7.71989 22.2168H3.48161C2.67121 22.2168 2.01188 22.8761 2.01188 23.6865V30.9326C2.01188 31.0875 2.03629 31.2367 2.08093 31.377H0.786133C0.352666 31.377 0 31.7296 0 32.1631V34.2139C0 34.6473 0.352666 35 0.786133 35H15.6543C15.9374 35 16.167 34.7705 16.167 34.4873C16.167 34.2042 15.9374 33.9746 15.6543 33.9746H1.02539V32.4023H33.9746V33.9746H20.7585C20.4753 33.9746 20.2458 34.2042 20.2458 34.4873C20.2458 34.7705 20.4753 35 20.7585 35H34.2139C34.6473 35 35 34.6473 35 34.2139V32.1631C35 31.7296 34.6473 31.377 34.2139 31.377ZM12.0312 1.02539C12.8793 1.02539 13.5693 1.71534 13.5693 2.56348C13.5693 3.41161 12.8792 4.10156 12.0312 4.10156C11.1831 4.10156 10.4931 3.41161 10.4931 2.56348C10.4931 1.71534 11.183 1.02539 12.0312 1.02539ZM8.92008 8.67836L10.537 4.64447C10.8132 4.84333 11.1302 4.98859 11.4731 5.06502L9.85578 9.09993C9.57975 8.90073 9.26283 8.7552 8.92008 8.67836ZM5.21418 13.2072C5.08539 13.304 5.00958 13.4558 5.00958 13.617V16.5417C5.00958 16.6911 5.07479 16.8332 5.18813 16.9305L6.17812 17.7812L5.50983 18.5646L4.16418 17.4082C4.04981 17.3099 3.98419 17.1667 3.98419 17.0153V13.102C3.98419 12.9398 4.06116 12.7851 4.19022 12.6881L5.81246 11.4684C5.85443 11.8405 5.97618 12.1888 6.16048 12.4955L5.21418 13.2072ZM6.82117 11.1793C6.82117 10.3312 7.51112 9.6412 8.35926 9.6412C9.20739 9.6412 9.89734 10.3312 9.89734 11.1793C9.89734 12.0274 9.20739 12.7174 8.35926 12.7174C7.51112 12.7174 6.82117 12.0274 6.82117 11.1793ZM12.7343 13.102V17.0153C12.7343 17.1667 12.6687 17.31 12.5543 17.4083L11.2086 18.5646L10.5403 17.7812L11.5303 16.9306C11.6437 16.8332 11.7089 16.6912 11.7089 16.5417V13.6171C11.7089 13.4559 11.6331 13.3041 11.5043 13.2072L10.5579 12.4958C10.7423 12.189 10.8639 11.8407 10.906 11.4686L12.5282 12.6883C12.6572 12.7852 12.7343 12.9399 12.7343 13.102ZM23.0714 9.72098C23.0714 8.87284 23.7614 8.18289 24.6095 8.18289C25.4576 8.18289 26.1476 8.87284 26.1476 9.72098C26.1476 10.5691 25.4576 11.2591 24.6095 11.2591C23.7614 11.2591 23.0714 10.569 23.0714 9.72098ZM24.7918 12.2772C25.1463 12.2522 25.481 12.1548 25.7815 11.9997L27.4105 19.9255C27.0627 19.9721 26.7308 20.0685 26.4217 20.2076L24.7918 12.2772ZM25.3258 23.4814C25.3258 22.0679 26.4758 20.918 27.8893 20.918C29.3029 20.918 30.4528 22.0679 30.4528 23.4814V26.0449H25.3258V23.4814ZM3.48161 31.377C3.23661 31.377 3.03728 31.1776 3.03728 30.9326V23.6865C3.03728 23.4415 3.23661 23.2422 3.48161 23.2422H7.71989C7.96489 23.2422 8.16423 23.4415 8.16423 23.6865V30.9326C8.16423 31.1776 7.96489 31.377 7.71989 31.377H3.48161ZM22.7637 31.377V27.3466C22.7637 27.1942 22.8876 27.0703 23.04 27.0703H32.5362C32.6886 27.0703 32.8125 27.1942 32.8125 27.3466V31.377H22.7637Z" fill="#58585D"/>
<path d="M16.9524 31.377C16.9971 31.2367 17.0215 31.0875 17.0215 30.9326V23.6865C17.0215 22.8761 16.3622 22.2168 15.5518 22.2168H11.3135C10.5031 22.2168 9.84375 22.8761 9.84375 23.6865V30.9326C9.84375 31.0875 9.86815 31.2367 9.91279 31.377H11.3135C11.0685 31.377 10.8691 31.1776 10.8691 30.9326V23.6865C10.8691 23.4415 11.0685 23.2422 11.3135 23.2422H15.5518C15.7968 23.2422 15.9961 23.4415 15.9961 23.6865V30.9326C15.9961 31.1776 15.7968 31.377 15.5518 31.377H16.9524Z" fill="#58585D"/>
<path d="M18.1494 33.9062H18.0127C17.7296 33.9062 17.5 34.1358 17.5 34.4189C17.5 34.7021 17.7296 34.9316 18.0127 34.9316H18.1494C18.4326 34.9316 18.6621 34.7021 18.6621 34.4189C18.6621 34.1358 18.4326 33.9062 18.1494 33.9062Z" fill="#58585D"/>
<path d="M26.1803 28.7109H24.8132C24.5299 28.7109 24.3005 28.9405 24.3005 29.2236C24.3005 29.5068 24.5299 29.7363 24.8132 29.7363H26.1803C26.4636 29.7363 26.693 29.5068 26.693 29.2236C26.693 28.9405 26.4636 28.7109 26.1803 28.7109Z" fill="#58585D"/>
<path d="M6.25488 24.6094H4.8877C4.60448 24.6094 4.375 24.8389 4.375 25.1221C4.375 25.4052 4.60448 25.6348 4.8877 25.6348H6.25488C6.5381 25.6348 6.76758 25.4052 6.76758 25.1221C6.76758 24.8389 6.5381 24.6094 6.25488 24.6094Z" fill="#58585D"/>
<path d="M14.1846 24.6094H12.8174C12.5342 24.6094 12.3047 24.8389 12.3047 25.1221C12.3047 25.4052 12.5342 25.6348 12.8174 25.6348H14.1846C14.4678 25.6348 14.6973 25.4052 14.6973 25.1221C14.6973 24.8389 14.4678 24.6094 14.1846 24.6094Z" fill="#58585D"/>
</g>
</svg>
