<svg xmlns="http://www.w3.org/2000/svg" fill="none" viewBox="0 0 14 14" height="14" width="14">
<path fill="white" d="M13.4674 3.23436L7.28528 0.101939L7.28271 0.100654C7.00744 -0.0363929 6.68035 -0.0333304 6.40765 0.108857L3.75616 1.51608C3.73461 1.52521 3.71391 1.53628 3.69409 1.54903L0.516687 3.23537C0.197969 3.40225 0 3.72922 0 4.0891V9.91006C0 10.2699 0.197969 10.5969 0.516687 10.7638L6.40503 13.8889L6.40768 13.8903C6.54675 13.9628 6.70001 13.9992 6.8533 13.9992C7.00055 13.9992 7.14785 13.9657 7.28271 13.8985L13.4674 10.7648C13.796 10.6005 14 10.2704 14 9.90295V4.09623C14 3.72876 13.796 3.39864 13.4674 3.23436ZM6.78773 0.835463C6.8279 0.814845 6.87586 0.814435 6.91638 0.834314L12.7031 3.76638L10.451 4.88761L4.79358 1.89383L6.78773 0.835463ZM6.43737 12.9778L0.899883 10.0388L0.89723 10.0374C0.849625 10.0125 0.820012 9.96376 0.820012 9.91006V4.45911L6.43737 7.38828V12.9778ZM6.85171 6.67953L1.26525 3.76647L3.91825 2.35845L9.54764 5.33737L6.85171 6.67953ZM13.1799 9.9029C13.18 9.95777 13.1494 10.007 13.1003 10.0315L7.25741 12.992V7.39356L9.94766 6.05421V7.45845C9.94766 7.68488 10.1312 7.86847 10.3577 7.86847C10.5841 7.86847 10.7677 7.68488 10.7677 7.45845V5.64594L13.1799 4.445V9.9029Z"></path>
</svg>
