<svg xmlns="http://www.w3.org/2000/svg" fill="none" viewBox="0 0 12 12" height="12" width="12">
<path fill="white" d="M6.28122 1.43183C6.28912 1.43183 6.29681 1.43178 6.30466 1.43178C7.447 1.43178 8.51745 1.87344 9.32074 2.67674C10.1307 3.48667 10.5737 4.56623 10.5682 5.71652C10.567 5.97539 10.7758 6.18626 11.0347 6.1875C11.0355 6.1875 11.0362 6.1875 11.037 6.1875C11.2948 6.1875 11.5044 5.9791 11.5057 5.72098C11.5124 4.31854 10.9718 3.00201 9.98365 2.01381C9.00317 1.0333 7.6976 0.494281 6.3048 0.494281C6.29624 0.494281 6.28762 0.494304 6.27904 0.494328C6.02015 0.49557 5.8113 0.706438 5.81252 0.965306C5.81376 1.22342 6.02338 1.43183 6.28122 1.43183Z"></path>
<path fill="white" d="M11.9988 9.66923C11.9821 9.20505 11.7887 8.77187 11.4544 8.44949C10.7998 7.81824 10.2513 7.45384 9.72833 7.30271C9.00762 7.09442 8.34021 7.28384 7.74455 7.86559C7.74366 7.86645 7.74274 7.86735 7.74185 7.86824L7.10749 8.49789C6.71348 8.27654 5.94754 7.78944 5.10981 6.95169L5.04812 6.89005C4.2159 6.05785 3.7257 5.28755 3.50267 4.89192L4.13171 4.25815C4.1326 4.25725 4.13347 4.25636 4.13436 4.25545C4.71611 3.65981 4.9055 2.99235 4.69724 2.27169C4.54611 1.74873 4.18173 1.20024 3.55046 0.545609C3.22808 0.211272 2.7949 0.0179122 2.33077 0.00117779C1.86673 -0.0155332 1.42064 0.146045 1.07496 0.456359L1.06151 0.468453C1.05525 0.474054 1.04916 0.479843 1.04323 0.485773C0.355098 1.17385 -0.00560602 2.13719 6.58733e-05 3.27159C0.00967528 5.19863 1.0688 7.40244 2.83318 9.1668C2.83465 9.16827 2.83611 9.1697 2.83758 9.17115C3.16927 9.50237 3.54587 9.83013 3.95701 10.1454C4.16244 10.3029 4.45667 10.264 4.61422 10.0586C4.77175 9.85316 4.73291 9.55893 4.52746 9.40141C4.14692 9.10965 3.79993 8.80766 3.49611 8.50384C3.49466 8.50239 3.4932 8.50093 3.49173 8.4995C1.90067 6.90664 0.94596 4.95091 0.937546 3.26688C0.933186 2.39322 1.19599 1.664 1.69765 1.15717L1.70124 1.15393C2.04197 0.848118 2.55783 0.866728 2.87565 1.19631C4.08927 2.45486 4.00138 3.04902 3.46512 3.59892L2.5962 4.47438C2.45993 4.61168 2.42199 4.81858 2.50069 4.9953C2.52275 5.04485 3.05637 6.22407 4.3854 7.55309L4.44709 7.61471C5.77595 8.9436 6.95517 9.4772 7.00471 9.49928C7.18143 9.57801 7.38834 9.54004 7.52564 9.40377L8.40094 8.53499C8.95092 7.99867 9.54511 7.91066 10.8037 9.12433C11.1333 9.44214 11.1519 9.958 10.8461 10.2987L10.8428 10.3023C10.3401 10.7999 9.61866 11.0625 8.75449 11.0625C8.74739 11.0625 8.74024 11.0625 8.73312 11.0624C8.04239 11.059 7.24254 10.8697 6.42009 10.5149C6.18238 10.4123 5.90655 10.5219 5.80401 10.7597C5.70147 10.9974 5.81106 11.2732 6.04877 11.3757C6.99944 11.7858 7.90101 11.9958 8.72843 12C8.73722 12 8.74596 12 8.75473 12C9.87772 12 10.8315 11.6396 11.5142 10.9568C11.5202 10.9508 11.5259 10.9448 11.5315 10.9385L11.5437 10.925C11.8539 10.5794 12.0156 10.1334 11.9988 9.66923Z"></path>
<path fill="white" d="M8.65917 3.34099C8.15637 2.83816 7.67379 2.70473 7.44185 2.64058C7.19226 2.57155 6.93412 2.7179 6.86512 2.96744C6.79612 3.21695 6.94244 3.47517 7.19198 3.54417C7.38164 3.59662 7.66823 3.67589 7.99626 4.00389C8.31204 4.31967 8.39592 4.60474 8.45145 4.79339L8.45822 4.81633C8.51855 5.02017 8.7052 5.15217 8.90749 5.15217C8.95156 5.1522 8.99637 5.14591 9.04076 5.13277C9.28899 5.05929 9.43067 4.79847 9.35717 4.55025L9.35082 4.52873C9.27851 4.28306 9.14393 3.82575 8.65917 3.34099Z"></path>
</svg>
