<svg xmlns="http://www.w3.org/2000/svg" fill="none" viewBox="0 0 12 10" height="10" width="12">
<path fill="white" d="M10.5938 0H1.40625C0.630844 0 0 0.630844 0 1.40625V2.56629L5.16073 6.40491C5.41172 6.59159 5.70586 6.68494 6 6.68494C6.29414 6.68494 6.58828 6.59161 6.83927 6.40491L12 2.56629V1.40625C12 0.630844 11.3692 0 10.5938 0ZM11.0625 2.09522L6.27977 5.65266C6.11243 5.77713 5.88757 5.77713 5.72025 5.65266L0.9375 2.09522V1.40625C0.9375 1.14778 1.14778 0.9375 1.40625 0.9375H10.5938C10.8522 0.9375 11.0625 1.14778 11.0625 1.40625V2.09522ZM11.0625 4.43201L12 3.7347V8.34375C12 9.11916 11.3692 9.75 10.5938 9.75H1.40625C0.630844 9.75 0 9.11916 0 8.34375V3.7347L0.9375 4.43201V8.34375C0.9375 8.60222 1.14778 8.8125 1.40625 8.8125H10.5938C10.8522 8.8125 11.0625 8.60222 11.0625 8.34375V4.43201Z"></path>
</svg>
