<svg xmlns="http://www.w3.org/2000/svg" fill="none" viewBox="0 0 11 12" height="12" width="11">
<path fill="white" d="M8.56788 1.47305C7.62264 0.523753 6.36336 0.00094489 5.02198 0.00094489H5.01619C2.31507 -0.0543404 -0.0546538 2.32445 0.000959598 5.02459C0.0716657 6.93122 1.90588 9.35259 3.33425 11.2129C3.75372 11.714 4.36493 12 5.02156 12C5.7012 12 6.33223 11.6937 6.75281 11.1598C7.81244 9.84301 10.1005 6.67591 10.0314 5.02454C10.0315 3.68221 9.51169 2.42093 8.56788 1.47305ZM6.01641 10.5797C5.53202 11.2187 4.51305 11.2198 4.02846 10.5808C2.09165 8.11459 0.938348 6.06074 0.938348 5.02457C0.938348 2.77144 2.76766 0.938404 5.01619 0.938404H5.02198C7.26733 0.938404 9.09404 2.77146 9.09404 5.02457C9.09404 6.07201 7.97228 8.09678 6.01641 10.5797ZM5.04253 7.0082C3.94412 7.0082 3.05048 6.11457 3.05048 5.01615C3.15991 2.37343 6.92556 2.3742 7.03458 5.01618C7.03458 6.11459 6.14095 7.0082 5.04253 7.0082ZM5.04253 3.96154C4.46102 3.96154 3.98792 4.43464 3.98792 5.01615C4.04585 6.41525 6.03943 6.41483 6.09715 5.01615C6.09715 4.43464 5.62407 3.96154 5.04253 3.96154Z"></path>
</svg>
