<svg width="31" height="20" viewBox="0 0 31 20" fill="none" xmlns="http://www.w3.org/2000/svg">
<g id="Mastercartd">
<path d="M27.5 0H3.5C1.567 0 0 1.49238 0 3.33333V16.6667C0 18.5076 1.567 20 3.5 20H27.5C29.433 20 31 18.5076 31 16.6667V3.33333C31 1.49238 29.433 0 27.5 0Z" fill="white"/>
<path d="M18.5626 4.75867H12.4376V15.2413H18.5626V4.75867Z" fill="#FF5F00"/>
<path d="M12.8265 10C12.8256 8.99038 13.0658 7.9939 13.529 7.08581C13.9922 6.17781 14.6662 5.382 15.5001 4.75867C14.4675 3.98564 13.2273 3.50491 11.9213 3.37141C10.6154 3.23791 9.29633 3.45704 8.11496 4.00375C6.93358 4.55048 5.93754 5.40267 5.2407 6.46305C4.54385 7.52343 4.17432 8.74905 4.17432 10C4.17432 11.251 4.54385 12.4766 5.2407 13.537C5.93754 14.5972 6.93358 15.4495 8.11496 15.9963C9.29633 16.543 10.6154 16.7621 11.9213 16.6286C13.2273 16.495 14.4675 16.0144 15.5001 15.2413C14.6663 14.6181 13.9922 13.8223 13.529 12.9142C13.0658 12.0061 12.8256 11.0096 12.8265 10Z" fill="#EB001B"/>
<path d="M26.8257 10C26.8257 11.251 26.4563 12.4766 25.7594 13.537C25.0626 14.5972 24.0666 15.4495 22.8853 15.9963C21.7039 16.543 20.3849 16.7621 19.0789 16.6286C17.773 16.495 16.5327 16.0144 15.5001 15.2413C16.3333 14.6174 17.0069 13.8214 17.47 12.9136C17.9332 12.0056 18.1738 11.0094 18.1738 10C18.1738 8.99057 17.9332 7.99438 17.47 7.08648C17.0069 6.17857 16.3333 5.38257 15.5001 4.75867C16.5327 3.98564 17.773 3.5049 19.0789 3.37141C20.3849 3.23791 21.7039 3.45705 22.8853 4.00377C24.0666 4.55048 25.0626 5.40276 25.7594 6.46305C26.4563 7.52343 26.8257 8.74914 26.8257 10Z" fill="#F79E1B"/>
<path d="M26.1576 14.131V13.9164H26.2485V13.8727H26.017V13.9164H26.108V14.131H26.1576ZM26.6069 14.131V13.8723H26.5359L26.4543 14.0503L26.3728 13.8723H26.3017V14.131H26.3518V13.9358L26.4284 14.1041H26.4803L26.5568 13.9354V14.131H26.6069Z" fill="#F79E1B"/>
</g>
</svg>
