<svg xmlns="http://www.w3.org/2000/svg" fill="none" viewBox="0 0 694 303" height="303" width="694">
<path stroke-linejoin="round" stroke-linecap="round" stroke-width="2" stroke="#95959A" fill="#BDBDC2" d="M565.258 56.0127H398.47C391.385 56.0127 385.641 61.7568 385.641 68.8425V235.63C385.641 242.716 391.385 248.46 398.47 248.46H565.258C572.344 248.46 578.088 242.716 578.088 235.63V68.8425C578.088 61.7568 572.344 56.0127 565.258 56.0127Z"></path>
<path stroke-linejoin="round" stroke-linecap="round" stroke-width="2" stroke="#95959A" fill="#D2D2D7" d="M398.47 248.46L565.258 248.46C572.34 248.46 578.088 242.712 578.088 235.63L578.088 68.8426C578.088 61.7605 572.34 56.0128 565.258 56.0128L526.768 56.0128C519.686 56.0128 513.938 61.7605 513.938 68.8426L513.938 137.625C513.938 144.707 508.191 150.455 501.109 150.455L398.47 150.455C391.388 150.455 385.64 156.202 385.64 163.284L385.64 235.63C385.64 242.712 391.388 248.46 398.47 248.46Z"></path>
<path stroke-linejoin="round" stroke-linecap="round" stroke-width="2" stroke="#95959A" fill="#BDBDC2" d="M372.81 56.0127H206.022C198.937 56.0127 193.193 61.7568 193.193 68.8425V235.63C193.193 242.716 198.937 248.46 206.022 248.46H372.81C379.896 248.46 385.64 242.716 385.64 235.63V68.8425C385.64 61.7568 379.896 56.0127 372.81 56.0127Z"></path>
<path stroke-linejoin="round" stroke-linecap="round" stroke-width="2" stroke="#95959A" fill="#D2D2D7" d="M372.81 150.455H206.022C198.937 150.455 193.193 156.199 193.193 163.285V235.631C193.193 242.717 198.937 248.461 206.022 248.461H372.81C379.896 248.461 385.64 242.717 385.64 235.631V163.285C385.64 156.199 379.896 150.455 372.81 150.455Z"></path>
<path stroke-linejoin="round" stroke-linecap="round" stroke-width="2" stroke="#95959A" fill="#D2D2D7" d="M180.896 150.455H14.108C7.02231 150.455 1.2782 156.199 1.2782 163.285V235.631C1.2782 242.717 7.0223 248.461 14.108 248.461H180.896C187.982 248.461 193.726 242.717 193.726 235.631V163.285C193.726 156.199 187.982 150.455 180.896 150.455Z"></path>
<path fill="#95959A" d="M286.544 300.96V299.56C286.553 299.551 286.674 299.495 286.908 299.392C287.141 299.28 287.435 299.131 287.79 298.944C288.144 298.758 288.518 298.534 288.91 298.272C289.302 298.011 289.666 297.726 290.002 297.418C290.338 297.101 290.594 296.765 290.772 296.41C290.968 296 291.028 295.64 290.954 295.332C290.888 295.024 290.73 294.791 290.478 294.632C290.235 294.464 289.955 294.38 289.638 294.38C289.152 294.38 288.77 294.553 288.49 294.898C288.219 295.234 288.14 295.757 288.252 296.466L286.684 296.242C286.59 295.552 286.67 294.964 286.922 294.478C287.183 293.984 287.566 293.61 288.07 293.358C288.574 293.097 289.152 292.966 289.806 292.966C290.31 292.966 290.767 293.06 291.178 293.246C291.598 293.433 291.934 293.694 292.186 294.03C292.447 294.357 292.596 294.735 292.634 295.164C292.68 295.594 292.587 296.051 292.354 296.536C292.158 296.919 291.906 297.264 291.598 297.572C291.299 297.871 290.972 298.137 290.618 298.37C290.272 298.604 289.932 298.804 289.596 298.972C289.269 299.131 288.98 299.257 288.728 299.35C288.485 299.434 288.317 299.49 288.224 299.518H292.774V300.96H286.544ZM297.116 301.1C296.444 301.1 295.884 300.984 295.436 300.75C294.998 300.517 294.657 300.223 294.414 299.868C294.181 299.504 294.036 299.14 293.98 298.776L295.66 298.524C295.67 298.627 295.726 298.772 295.828 298.958C295.931 299.136 296.09 299.304 296.304 299.462C296.519 299.612 296.804 299.686 297.158 299.686C297.606 299.686 297.952 299.551 298.194 299.28C298.437 299.01 298.577 298.711 298.614 298.384C298.633 298.132 298.591 297.89 298.488 297.656C298.395 297.423 298.236 297.232 298.012 297.082C297.798 296.933 297.522 296.858 297.186 296.858C296.878 296.858 296.636 296.919 296.458 297.04C296.281 297.152 296.155 297.269 296.08 297.39C296.006 297.502 295.964 297.563 295.954 297.572L294.19 297.292L294.624 293.078H299.916V294.52H295.8L295.548 296.844C295.548 296.844 295.586 296.788 295.66 296.676C295.735 296.564 295.856 296.438 296.024 296.298C296.192 296.149 296.412 296.018 296.682 295.906C296.962 295.794 297.298 295.738 297.69 295.738C298.316 295.738 298.824 295.869 299.216 296.13C299.608 296.382 299.893 296.714 300.07 297.124C300.248 297.535 300.322 297.96 300.294 298.398C300.257 298.846 300.103 299.28 299.832 299.7C299.571 300.111 299.212 300.447 298.754 300.708C298.297 300.97 297.751 301.1 297.116 301.1ZM304.834 301.114C304.18 301.114 303.597 301.026 303.084 300.848C302.57 300.662 302.164 300.396 301.866 300.05C301.567 299.705 301.418 299.285 301.418 298.79C301.418 298.277 301.595 297.834 301.95 297.46C302.304 297.087 302.799 296.863 303.434 296.788C302.986 296.714 302.65 296.569 302.426 296.354C302.202 296.13 302.052 295.897 301.978 295.654C301.903 295.412 301.866 295.211 301.866 295.052C301.866 294.632 301.987 294.264 302.23 293.946C302.482 293.629 302.832 293.382 303.28 293.204C303.728 293.027 304.246 292.938 304.834 292.938C305.748 292.938 306.472 293.139 307.004 293.54C307.545 293.932 307.816 294.436 307.816 295.052C307.816 295.211 307.778 295.412 307.704 295.654C307.638 295.897 307.494 296.13 307.27 296.354C307.046 296.569 306.705 296.714 306.248 296.788C306.892 296.872 307.391 297.096 307.746 297.46C308.1 297.815 308.278 298.258 308.278 298.79C308.278 299.294 308.124 299.719 307.816 300.064C307.517 300.41 307.106 300.671 306.584 300.848C306.061 301.026 305.478 301.114 304.834 301.114ZM304.834 296.396C305.291 296.396 305.65 296.308 305.912 296.13C306.182 295.953 306.318 295.701 306.318 295.374C306.318 294.982 306.178 294.693 305.898 294.506C305.627 294.32 305.272 294.226 304.834 294.226C304.386 294.226 304.026 294.32 303.756 294.506C303.494 294.693 303.364 294.982 303.364 295.374C303.364 295.71 303.499 295.967 303.77 296.144C304.04 296.312 304.395 296.396 304.834 296.396ZM304.834 299.812C305.384 299.812 305.818 299.696 306.136 299.462C306.462 299.22 306.626 298.902 306.626 298.51C306.626 298.053 306.462 297.717 306.136 297.502C305.818 297.288 305.384 297.18 304.834 297.18C304.292 297.18 303.858 297.288 303.532 297.502C303.214 297.717 303.056 298.053 303.056 298.51C303.056 298.902 303.214 299.22 303.532 299.462C303.858 299.696 304.292 299.812 304.834 299.812ZM315.141 301.1C314.6 301.1 314.101 300.993 313.643 300.778C313.195 300.554 312.836 300.228 312.565 299.798C312.304 299.36 312.173 298.818 312.173 298.174C312.183 297.549 312.318 297.012 312.579 296.564C312.85 296.107 313.205 295.762 313.643 295.528C314.091 295.286 314.595 295.164 315.155 295.164C315.771 295.164 316.289 295.281 316.709 295.514C317.129 295.748 317.447 296.046 317.661 296.41C317.885 296.774 318.007 297.148 318.025 297.53H316.485C316.364 296.914 315.944 296.606 315.225 296.606C314.759 296.606 314.404 296.742 314.161 297.012C313.928 297.274 313.811 297.614 313.811 298.034C313.811 298.529 313.928 298.921 314.161 299.21C314.395 299.5 314.754 299.644 315.239 299.644C315.538 299.644 315.804 299.565 316.037 299.406C316.271 299.238 316.42 298.986 316.485 298.65H318.025C318.007 299.052 317.885 299.444 317.661 299.826C317.447 300.2 317.125 300.508 316.695 300.75C316.275 300.984 315.757 301.1 315.141 301.1ZM318.971 300.96V295.192H320.455L320.469 296.34H320.497C320.497 296.322 320.525 296.256 320.581 296.144C320.646 296.023 320.74 295.888 320.861 295.738C320.992 295.589 321.16 295.463 321.365 295.36C321.58 295.248 321.846 295.192 322.163 295.192C322.592 295.192 322.919 295.304 323.143 295.528C323.376 295.752 323.544 296.023 323.647 296.34H323.675C323.675 296.322 323.708 296.256 323.773 296.144C323.848 296.023 323.955 295.888 324.095 295.738C324.235 295.589 324.417 295.463 324.641 295.36C324.865 295.248 325.136 295.192 325.453 295.192C325.808 295.192 326.097 295.267 326.321 295.416C326.545 295.566 326.718 295.762 326.839 296.004C326.96 296.247 327.044 296.508 327.091 296.788C327.138 297.059 327.166 297.32 327.175 297.572C327.184 297.815 327.189 298.016 327.189 298.174V300.96H325.775V298.16C325.775 297.983 325.761 297.778 325.733 297.544C325.705 297.311 325.626 297.11 325.495 296.942C325.364 296.765 325.14 296.676 324.823 296.676C324.524 296.676 324.305 296.756 324.165 296.914C324.025 297.064 323.932 297.255 323.885 297.488C323.848 297.722 323.829 297.955 323.829 298.188V300.96H322.415V298.16C322.415 297.983 322.401 297.778 322.373 297.544C322.345 297.311 322.266 297.11 322.135 296.942C322.004 296.765 321.78 296.676 321.463 296.676C321.164 296.676 320.945 296.756 320.805 296.914C320.665 297.064 320.572 297.255 320.525 297.488C320.488 297.722 320.469 297.955 320.469 298.188V300.96H318.971Z"></path>
<rect fill="#95959A" rx="1.237" height="2.47401" width="576.443" y="278.064" x="3.75193"></rect>
<path fill="#95959A" d="M638.882 157.186C638.126 157.186 637.496 157.009 636.992 156.654C636.488 156.29 636.11 155.805 635.858 155.198C635.616 154.591 635.494 153.915 635.494 153.168C635.494 152.627 635.569 152.109 635.718 151.614C635.877 151.119 636.106 150.676 636.404 150.284C636.712 149.892 637.086 149.584 637.524 149.36C637.972 149.136 638.481 149.024 639.05 149.024C639.545 149.024 639.96 149.089 640.296 149.22C640.642 149.341 640.922 149.495 641.136 149.682C641.351 149.869 641.514 150.055 641.626 150.242C641.738 150.419 641.813 150.573 641.85 150.704C641.897 150.825 641.92 150.886 641.92 150.886L640.254 151.18C640.254 151.18 640.217 151.124 640.142 151.012C640.077 150.9 639.951 150.788 639.764 150.676C639.578 150.555 639.312 150.494 638.966 150.494C638.78 150.494 638.57 150.541 638.336 150.634C638.112 150.727 637.898 150.891 637.692 151.124C637.496 151.348 637.342 151.661 637.23 152.062C637.118 152.454 637.09 152.953 637.146 153.56C637.146 153.504 637.188 153.397 637.272 153.238C637.356 153.07 637.487 152.893 637.664 152.706C637.842 152.51 638.075 152.347 638.364 152.216C638.663 152.076 639.027 152.011 639.456 152.02C640.082 152.02 640.59 152.146 640.982 152.398C641.384 152.65 641.673 152.972 641.85 153.364C642.028 153.756 642.098 154.171 642.06 154.61C642.023 155.049 641.878 155.464 641.626 155.856C641.384 156.248 641.029 156.57 640.562 156.822C640.105 157.065 639.545 157.186 638.882 157.186ZM638.994 155.786C639.386 155.786 639.699 155.697 639.932 155.52C640.175 155.333 640.338 155.105 640.422 154.834C640.506 154.563 640.511 154.293 640.436 154.022C640.371 153.751 640.226 153.523 640.002 153.336C639.778 153.14 639.47 153.037 639.078 153.028C638.742 153.019 638.444 153.093 638.182 153.252C637.921 153.401 637.716 153.602 637.566 153.854C637.426 154.106 637.356 154.377 637.356 154.666C637.45 155.058 637.655 155.343 637.972 155.52C638.299 155.697 638.64 155.786 638.994 155.786ZM646.396 157.186C645.724 157.186 645.164 157.069 644.716 156.836C644.277 156.603 643.936 156.309 643.694 155.954C643.46 155.59 643.316 155.226 643.26 154.862L644.94 154.61C644.949 154.713 645.005 154.857 645.108 155.044C645.21 155.221 645.369 155.389 645.584 155.548C645.798 155.697 646.083 155.772 646.438 155.772C646.886 155.772 647.231 155.637 647.474 155.366C647.716 155.095 647.856 154.797 647.894 154.47C647.912 154.218 647.87 153.975 647.768 153.742C647.674 153.509 647.516 153.317 647.292 153.168C647.077 153.019 646.802 152.944 646.466 152.944C646.158 152.944 645.915 153.005 645.738 153.126C645.56 153.238 645.434 153.355 645.36 153.476C645.285 153.588 645.243 153.649 645.234 153.658L643.47 153.378L643.904 149.164H649.196V150.606H645.08L644.828 152.93C644.828 152.93 644.865 152.874 644.94 152.762C645.014 152.65 645.136 152.524 645.304 152.384C645.472 152.235 645.691 152.104 645.962 151.992C646.242 151.88 646.578 151.824 646.97 151.824C647.595 151.824 648.104 151.955 648.496 152.216C648.888 152.468 649.172 152.799 649.35 153.21C649.527 153.621 649.602 154.045 649.574 154.484C649.536 154.932 649.382 155.366 649.112 155.786C648.85 156.197 648.491 156.533 648.034 156.794C647.576 157.055 647.03 157.186 646.396 157.186ZM656.423 157.186C655.881 157.186 655.382 157.079 654.925 156.864C654.477 156.64 654.117 156.313 653.847 155.884C653.585 155.445 653.455 154.904 653.455 154.26C653.464 153.635 653.599 153.098 653.861 152.65C654.131 152.193 654.486 151.847 654.925 151.614C655.373 151.371 655.877 151.25 656.437 151.25C657.053 151.25 657.571 151.367 657.991 151.6C658.411 151.833 658.728 152.132 658.943 152.496C659.167 152.86 659.288 153.233 659.307 153.616H657.767C657.645 153 657.225 152.692 656.507 152.692C656.04 152.692 655.685 152.827 655.443 153.098C655.209 153.359 655.093 153.7 655.093 154.12C655.093 154.615 655.209 155.007 655.443 155.296C655.676 155.585 656.035 155.73 656.521 155.73C656.819 155.73 657.085 155.651 657.319 155.492C657.552 155.324 657.701 155.072 657.767 154.736H659.307C659.288 155.137 659.167 155.529 658.943 155.912C658.728 156.285 658.406 156.593 657.977 156.836C657.557 157.069 657.039 157.186 656.423 157.186ZM660.252 157.046V151.278H661.736L661.75 152.426H661.778C661.778 152.407 661.806 152.342 661.862 152.23C661.928 152.109 662.021 151.973 662.142 151.824C662.273 151.675 662.441 151.549 662.646 151.446C662.861 151.334 663.127 151.278 663.444 151.278C663.874 151.278 664.2 151.39 664.424 151.614C664.658 151.838 664.826 152.109 664.928 152.426H664.956C664.956 152.407 664.989 152.342 665.054 152.23C665.129 152.109 665.236 151.973 665.376 151.824C665.516 151.675 665.698 151.549 665.922 151.446C666.146 151.334 666.417 151.278 666.734 151.278C667.089 151.278 667.378 151.353 667.602 151.502C667.826 151.651 667.999 151.847 668.12 152.09C668.242 152.333 668.326 152.594 668.372 152.874C668.419 153.145 668.447 153.406 668.456 153.658C668.466 153.901 668.47 154.101 668.47 154.26V157.046H667.056V154.246C667.056 154.069 667.042 153.863 667.014 153.63C666.986 153.397 666.907 153.196 666.776 153.028C666.646 152.851 666.422 152.762 666.104 152.762C665.806 152.762 665.586 152.841 665.446 153C665.306 153.149 665.213 153.341 665.166 153.574C665.129 153.807 665.11 154.041 665.11 154.274V157.046H663.696V154.246C663.696 154.069 663.682 153.863 663.654 153.63C663.626 153.397 663.547 153.196 663.416 153.028C663.286 152.851 663.062 152.762 662.744 152.762C662.446 152.762 662.226 152.841 662.086 153C661.946 153.149 661.853 153.341 661.806 153.574C661.769 153.807 661.75 154.041 661.75 154.274V157.046H660.252Z"></path>
<rect fill="#95959A" rx="1.237" height="192.447" width="2.47401" y="56.0127" x="607.41"></rect>
<path fill="#95959A" d="M84.4315 14.1296C83.7781 14.1296 83.1948 14.0409 82.6815 13.8636C82.1681 13.6769 81.7621 13.4109 81.4635 13.0656C81.1648 12.7203 81.0155 12.3003 81.0155 11.8056C81.0155 11.2923 81.1928 10.8489 81.5475 10.4756C81.9021 10.1023 82.3968 9.87825 83.0315 9.80359C82.5835 9.72892 82.2475 9.58425 82.0235 9.36959C81.7995 9.14559 81.6501 8.91225 81.5755 8.66959C81.5008 8.42692 81.4635 8.22625 81.4635 8.06759C81.4635 7.64759 81.5848 7.27892 81.8275 6.96159C82.0795 6.64425 82.4295 6.39692 82.8775 6.21959C83.3255 6.04225 83.8435 5.95359 84.4315 5.95359C85.3461 5.95359 86.0695 6.15425 86.6015 6.55559C87.1428 6.94759 87.4135 7.45159 87.4135 8.06759C87.4135 8.22625 87.3761 8.42692 87.3015 8.66959C87.2361 8.91225 87.0915 9.14559 86.8675 9.36959C86.6435 9.58425 86.3028 9.72892 85.8455 9.80359C86.4895 9.88759 86.9888 10.1116 87.3435 10.4756C87.6981 10.8303 87.8755 11.2736 87.8755 11.8056C87.8755 12.3096 87.7215 12.7343 87.4135 13.0796C87.1148 13.4249 86.7041 13.6863 86.1815 13.8636C85.6588 14.0409 85.0755 14.1296 84.4315 14.1296ZM84.4315 9.41159C84.8888 9.41159 85.2481 9.32292 85.5095 9.14559C85.7801 8.96825 85.9155 8.71625 85.9155 8.38959C85.9155 7.99759 85.7755 7.70825 85.4955 7.52159C85.2248 7.33492 84.8701 7.24159 84.4315 7.24159C83.9835 7.24159 83.6241 7.33492 83.3535 7.52159C83.0921 7.70825 82.9615 7.99759 82.9615 8.38959C82.9615 8.72559 83.0968 8.98225 83.3675 9.15959C83.6381 9.32759 83.9928 9.41159 84.4315 9.41159ZM84.4315 12.8276C84.9821 12.8276 85.4161 12.7109 85.7335 12.4776C86.0601 12.2349 86.2235 11.9176 86.2235 11.5256C86.2235 11.0683 86.0601 10.7323 85.7335 10.5176C85.4161 10.3029 84.9821 10.1956 84.4315 10.1956C83.8901 10.1956 83.4561 10.3029 83.1295 10.5176C82.8121 10.7323 82.6535 11.0683 82.6535 11.5256C82.6535 11.9176 82.8121 12.2349 83.1295 12.4776C83.4561 12.7109 83.8901 12.8276 84.4315 12.8276ZM92.4295 14.1156C91.6735 14.1156 91.0435 13.9383 90.5395 13.5836C90.0355 13.2196 89.6575 12.7343 89.4055 12.1276C89.1628 11.5209 89.0415 10.8443 89.0415 10.0976C89.0415 9.55625 89.1162 9.03825 89.2655 8.54359C89.4242 8.04892 89.6528 7.60559 89.9515 7.21359C90.2595 6.82159 90.6328 6.51359 91.0715 6.28959C91.5195 6.06559 92.0282 5.95359 92.5975 5.95359C93.0922 5.95359 93.5075 6.01892 93.8435 6.14959C94.1888 6.27092 94.4688 6.42492 94.6835 6.61159C94.8982 6.79825 95.0615 6.98492 95.1735 7.17159C95.2855 7.34892 95.3602 7.50292 95.3975 7.63359C95.4442 7.75492 95.4675 7.81559 95.4675 7.81559L93.8015 8.10959C93.8015 8.10959 93.7642 8.05359 93.6895 7.94159C93.6242 7.82959 93.4982 7.71759 93.3115 7.60559C93.1248 7.48425 92.8588 7.42359 92.5135 7.42359C92.3268 7.42359 92.1168 7.47025 91.8835 7.56359C91.6595 7.65692 91.4448 7.82025 91.2395 8.05359C91.0435 8.27759 90.8895 8.59025 90.7775 8.99159C90.6655 9.38359 90.6375 9.88292 90.6935 10.4896C90.6935 10.4336 90.7355 10.3263 90.8195 10.1676C90.9035 9.99959 91.0342 9.82225 91.2115 9.63559C91.3888 9.43959 91.6222 9.27625 91.9115 9.14559C92.2102 9.00559 92.5742 8.94025 93.0035 8.94959C93.6288 8.94959 94.1375 9.07559 94.5295 9.32759C94.9308 9.57959 95.2202 9.90159 95.3975 10.2936C95.5748 10.6856 95.6448 11.1009 95.6075 11.5396C95.5702 11.9783 95.4255 12.3936 95.1735 12.7856C94.9308 13.1776 94.5762 13.4996 94.1095 13.7516C93.6522 13.9943 93.0922 14.1156 92.4295 14.1156ZM92.5415 12.7156C92.9335 12.7156 93.2462 12.6269 93.4795 12.4496C93.7222 12.2629 93.8855 12.0343 93.9695 11.7636C94.0535 11.4929 94.0582 11.2223 93.9835 10.9516C93.9182 10.6809 93.7735 10.4523 93.5495 10.2656C93.3255 10.0696 93.0175 9.96692 92.6255 9.95759C92.2895 9.94825 91.9908 10.0229 91.7295 10.1816C91.4682 10.3309 91.2628 10.5316 91.1135 10.7836C90.9735 11.0356 90.9035 11.3063 90.9035 11.5956C90.9968 11.9876 91.2022 12.2723 91.5195 12.4496C91.8462 12.6269 92.1868 12.7156 92.5415 12.7156ZM102.519 14.1156C101.977 14.1156 101.478 14.0083 101.021 13.7936C100.573 13.5696 100.213 13.2429 99.9426 12.8136C99.6813 12.3749 99.5506 11.8336 99.5506 11.1896C99.5599 10.5643 99.6953 10.0276 99.9566 9.57959C100.227 9.12225 100.582 8.77692 101.021 8.54359C101.469 8.30092 101.973 8.17959 102.533 8.17959C103.149 8.17959 103.667 8.29625 104.087 8.52959C104.507 8.76292 104.824 9.06159 105.039 9.42559C105.263 9.78959 105.384 10.1629 105.403 10.5456H103.863C103.741 9.92959 103.321 9.62159 102.603 9.62159C102.136 9.62159 101.781 9.75692 101.539 10.0276C101.305 10.2889 101.189 10.6296 101.189 11.0496C101.189 11.5443 101.305 11.9363 101.539 12.2256C101.772 12.5149 102.131 12.6596 102.617 12.6596C102.915 12.6596 103.181 12.5803 103.415 12.4216C103.648 12.2536 103.797 12.0016 103.863 11.6656H105.403C105.384 12.0669 105.263 12.4589 105.039 12.8416C104.824 13.2149 104.502 13.5229 104.073 13.7656C103.653 13.9989 103.135 14.1156 102.519 14.1156ZM106.348 13.9756V8.20759H107.832L107.846 9.35559H107.874C107.874 9.33692 107.902 9.27159 107.958 9.15959C108.023 9.03825 108.117 8.90292 108.238 8.75359C108.369 8.60425 108.537 8.47825 108.742 8.37559C108.957 8.26359 109.223 8.20759 109.54 8.20759C109.969 8.20759 110.296 8.31959 110.52 8.54359C110.753 8.76759 110.921 9.03825 111.024 9.35559H111.052C111.052 9.33692 111.085 9.27159 111.15 9.15959C111.225 9.03825 111.332 8.90292 111.472 8.75359C111.612 8.60425 111.794 8.47825 112.018 8.37559C112.242 8.26359 112.513 8.20759 112.83 8.20759C113.185 8.20759 113.474 8.28225 113.698 8.43159C113.922 8.58092 114.095 8.77692 114.216 9.01959C114.337 9.26225 114.421 9.52359 114.468 9.80359C114.515 10.0743 114.543 10.3356 114.552 10.5876C114.561 10.8303 114.566 11.0309 114.566 11.1896V13.9756H113.152V11.1756C113.152 10.9983 113.138 10.7929 113.11 10.5596C113.082 10.3263 113.003 10.1256 112.872 9.95759C112.741 9.78025 112.517 9.69159 112.2 9.69159C111.901 9.69159 111.682 9.77092 111.542 9.92959C111.402 10.0789 111.309 10.2703 111.262 10.5036C111.225 10.7369 111.206 10.9703 111.206 11.2036V13.9756H109.792V11.1756C109.792 10.9983 109.778 10.7929 109.75 10.5596C109.722 10.3263 109.643 10.1256 109.512 9.95759C109.381 9.78025 109.157 9.69159 108.84 9.69159C108.541 9.69159 108.322 9.77092 108.182 9.92959C108.042 10.0789 107.949 10.2703 107.902 10.5036C107.865 10.7369 107.846 10.9703 107.846 11.2036V13.9756H106.348Z"></path>
<rect fill="#95959A" transform="rotate(90 193.727 24.3357)" rx="1.237" height="192.447" width="2.47401" y="24.3357" x="193.727"></rect>
<path fill="#95959A" d="M529.011 13.9756V12.5756C529.02 12.5663 529.141 12.5103 529.375 12.4076C529.608 12.2956 529.902 12.1463 530.257 11.9596C530.611 11.7729 530.985 11.5489 531.377 11.2876C531.769 11.0263 532.133 10.7416 532.469 10.4336C532.805 10.1163 533.061 9.78025 533.239 9.42559C533.435 9.01492 533.495 8.65559 533.421 8.34759C533.355 8.03959 533.197 7.80625 532.945 7.64759C532.702 7.47959 532.422 7.39559 532.105 7.39559C531.619 7.39559 531.237 7.56825 530.957 7.91359C530.686 8.24959 530.607 8.77225 530.719 9.48159L529.151 9.25759C529.057 8.56692 529.137 7.97892 529.389 7.49359C529.65 6.99892 530.033 6.62559 530.537 6.37359C531.041 6.11225 531.619 5.98159 532.273 5.98159C532.777 5.98159 533.234 6.07492 533.645 6.26159C534.065 6.44825 534.401 6.70959 534.653 7.04559C534.914 7.37225 535.063 7.75025 535.101 8.17959C535.147 8.60892 535.054 9.06625 534.821 9.55159C534.625 9.93425 534.373 10.2796 534.065 10.5876C533.766 10.8863 533.439 11.1523 533.085 11.3856C532.739 11.6189 532.399 11.8196 532.063 11.9876C531.736 12.1463 531.447 12.2723 531.195 12.3656C530.952 12.4496 530.784 12.5056 530.691 12.5336H535.241V13.9756H529.011ZM539.849 14.1296C539.196 14.1296 538.613 14.0409 538.099 13.8636C537.586 13.6769 537.18 13.4109 536.881 13.0656C536.583 12.7203 536.433 12.3003 536.433 11.8056C536.433 11.2923 536.611 10.8489 536.965 10.4756C537.32 10.1023 537.815 9.87825 538.449 9.80359C538.001 9.72892 537.665 9.58425 537.441 9.36959C537.217 9.14559 537.068 8.91225 536.993 8.66959C536.919 8.42692 536.881 8.22625 536.881 8.06759C536.881 7.64759 537.003 7.27892 537.245 6.96159C537.497 6.64425 537.847 6.39692 538.295 6.21959C538.743 6.04225 539.261 5.95359 539.849 5.95359C540.764 5.95359 541.487 6.15425 542.019 6.55559C542.561 6.94759 542.831 7.45159 542.831 8.06759C542.831 8.22625 542.794 8.42692 542.719 8.66959C542.654 8.91225 542.509 9.14559 542.285 9.36959C542.061 9.58425 541.721 9.72892 541.263 9.80359C541.907 9.88759 542.407 10.1116 542.761 10.4756C543.116 10.8303 543.293 11.2736 543.293 11.8056C543.293 12.3096 543.139 12.7343 542.831 13.0796C542.533 13.4249 542.122 13.6863 541.599 13.8636C541.077 14.0409 540.493 14.1296 539.849 14.1296ZM539.849 9.41159C540.307 9.41159 540.666 9.32292 540.927 9.14559C541.198 8.96825 541.333 8.71625 541.333 8.38959C541.333 7.99759 541.193 7.70825 540.913 7.52159C540.643 7.33492 540.288 7.24159 539.849 7.24159C539.401 7.24159 539.042 7.33492 538.771 7.52159C538.51 7.70825 538.379 7.99759 538.379 8.38959C538.379 8.72559 538.515 8.98225 538.785 9.15959C539.056 9.32759 539.411 9.41159 539.849 9.41159ZM539.849 12.8276C540.4 12.8276 540.834 12.7109 541.151 12.4776C541.478 12.2349 541.641 11.9176 541.641 11.5256C541.641 11.0683 541.478 10.7323 541.151 10.5176C540.834 10.3029 540.4 10.1956 539.849 10.1956C539.308 10.1956 538.874 10.3029 538.547 10.5176C538.23 10.7323 538.071 11.0683 538.071 11.5256C538.071 11.9176 538.23 12.2349 538.547 12.4776C538.874 12.7109 539.308 12.8276 539.849 12.8276ZM550.157 14.1156C549.616 14.1156 549.117 14.0083 548.659 13.7936C548.211 13.5696 547.852 13.2429 547.581 12.8136C547.32 12.3749 547.189 11.8336 547.189 11.1896C547.199 10.5643 547.334 10.0276 547.595 9.57959C547.866 9.12225 548.221 8.77692 548.659 8.54359C549.107 8.30092 549.611 8.17959 550.171 8.17959C550.787 8.17959 551.305 8.29625 551.725 8.52959C552.145 8.76292 552.463 9.06159 552.677 9.42559C552.901 9.78959 553.023 10.1629 553.041 10.5456H551.501C551.38 9.92959 550.96 9.62159 550.241 9.62159C549.775 9.62159 549.42 9.75692 549.177 10.0276C548.944 10.2889 548.827 10.6296 548.827 11.0496C548.827 11.5443 548.944 11.9363 549.177 12.2256C549.411 12.5149 549.77 12.6596 550.255 12.6596C550.554 12.6596 550.82 12.5803 551.053 12.4216C551.287 12.2536 551.436 12.0016 551.501 11.6656H553.041C553.023 12.0669 552.901 12.4589 552.677 12.8416C552.463 13.2149 552.141 13.5229 551.711 13.7656C551.291 13.9989 550.773 14.1156 550.157 14.1156ZM553.987 13.9756V8.20759H555.471L555.485 9.35559H555.513C555.513 9.33692 555.541 9.27159 555.597 9.15959C555.662 9.03825 555.755 8.90292 555.877 8.75359C556.007 8.60425 556.175 8.47825 556.381 8.37559C556.595 8.26359 556.861 8.20759 557.179 8.20759C557.608 8.20759 557.935 8.31959 558.159 8.54359C558.392 8.76759 558.56 9.03825 558.663 9.35559H558.691C558.691 9.33692 558.723 9.27159 558.789 9.15959C558.863 9.03825 558.971 8.90292 559.111 8.75359C559.251 8.60425 559.433 8.47825 559.657 8.37559C559.881 8.26359 560.151 8.20759 560.469 8.20759C560.823 8.20759 561.113 8.28225 561.337 8.43159C561.561 8.58092 561.733 8.77692 561.855 9.01959C561.976 9.26225 562.06 9.52359 562.107 9.80359C562.153 10.0743 562.181 10.3356 562.191 10.5876C562.2 10.8303 562.205 11.0309 562.205 11.1896V13.9756H560.791V11.1756C560.791 10.9983 560.777 10.7929 560.749 10.5596C560.721 10.3263 560.641 10.1256 560.511 9.95759C560.38 9.78025 560.156 9.69159 559.839 9.69159C559.54 9.69159 559.321 9.77092 559.181 9.92959C559.041 10.0789 558.947 10.2703 558.901 10.5036C558.863 10.7369 558.845 10.9703 558.845 11.2036V13.9756H557.431V11.1756C557.431 10.9983 557.417 10.7929 557.389 10.5596C557.361 10.3263 557.281 10.1256 557.151 9.95759C557.02 9.78025 556.796 9.69159 556.479 9.69159C556.18 9.69159 555.961 9.77092 555.821 9.92959C555.681 10.0789 555.587 10.2703 555.541 10.5036C555.503 10.7369 555.485 10.9703 555.485 11.2036V13.9756H553.987Z"></path>
<rect fill="#95959A" transform="rotate(90 578.239 24.3357)" rx="1.237" height="62.3672" width="2.47401" y="24.3357" x="578.239"></rect>
</svg>
