<svg width="35" height="35" viewBox="0 0 35 35" fill="none" xmlns="http://www.w3.org/2000/svg">
<path d="M15.6579 12.8285C16.6997 12.8285 17.5473 13.5697 17.5473 14.4806C17.5473 14.8581 17.8533 15.1642 18.2307 15.1642C18.6081 15.1642 18.9141 14.8581 18.9141 14.4806C18.9141 13.0331 17.8097 11.8208 16.3412 11.5288V11.04C16.3412 10.6626 16.0353 10.3564 15.6579 10.3564C15.2804 10.3564 14.9745 10.6626 14.9745 11.04V11.5288C13.5061 11.8208 12.4017 13.0331 12.4017 14.4806C12.4017 16.1455 13.8624 17.5 15.6579 17.5C16.6997 17.5 17.5473 18.2412 17.5473 19.1522C17.5473 20.0631 16.6997 20.8043 15.6579 20.8043C14.616 20.8043 13.7684 20.0631 13.7684 19.1522C13.7684 18.7747 13.4625 18.4686 13.085 18.4686C12.7076 18.4686 12.4017 18.7747 12.4017 19.1522C12.4017 20.5997 13.5061 21.812 14.9745 22.104V22.5928C14.9745 22.9703 15.2804 23.2764 15.6579 23.2764C16.0353 23.2764 16.3412 22.9703 16.3412 22.5928V22.104C17.8097 21.812 18.9141 20.5997 18.9141 19.1522C18.9141 17.4874 17.4534 16.1328 15.6579 16.1328C14.616 16.1328 13.7684 15.3917 13.7684 14.4806C13.7684 13.5697 14.616 12.8285 15.6579 12.8285Z" fill="#58585D"/>
<path d="M35 7.31445C35 3.28125 31.7198 0 27.6879 0C25.6177 0 23.7458 0.865293 22.4142 2.25306L15.9037 0.0365039C15.7611 -0.0120312 15.6067 -0.0120996 15.4642 0.0362305L0.464077 5.11998C0.186629 5.21397 0 5.47436 0 5.76734V13.6991C0 17.5196 0.985694 21.2985 2.85048 24.6276C2.97574 24.8512 3.20795 24.9771 3.44726 24.9771C3.56036 24.9771 3.67503 24.949 3.78068 24.8898C4.10993 24.7053 4.22726 24.2886 4.04275 23.9593C2.29209 20.834 1.36674 17.286 1.36674 13.6992V6.25748L15.683 1.40547L21.5185 3.39233C21.0675 4.09972 20.735 4.88947 20.5483 5.73351L15.9262 3.96088C15.7691 3.90052 15.5953 3.90045 15.438 3.9604L4.26669 8.22281C4.00189 8.32392 3.82688 8.57808 3.82688 8.86156V13.6992C3.82688 17.4241 4.92287 21.0156 6.99642 24.0853C9.06129 27.1422 11.9648 29.4912 15.393 30.8782C15.4752 30.9114 15.5622 30.928 15.6493 30.928C15.7363 30.928 15.8233 30.9114 15.9055 30.8782C22.6275 28.1585 27.0946 21.8306 27.4487 14.6246C27.5282 14.6272 27.6079 14.6289 27.688 14.6289C28.4672 14.6289 29.2181 14.5059 29.9229 14.279C29.6838 23.0835 24.0181 30.774 15.6493 33.5962C12.6588 32.5865 9.89678 30.8904 7.64993 28.6818C7.38075 28.4173 6.94804 28.421 6.6835 28.6903C6.41897 28.9596 6.4228 29.3924 6.69198 29.657C9.14173 32.0651 12.166 33.9011 15.4377 34.9664C15.5064 34.9888 15.5778 35 15.6493 35C15.7207 35 15.792 34.9888 15.8608 34.9664C20.3779 33.4955 24.2408 30.6856 27.032 26.8404C29.8231 22.9952 31.2984 18.451 31.2984 13.6992V13.6732C33.5073 12.4132 35 10.035 35 7.31445ZM15.6492 29.5047C9.28804 26.8131 5.19362 20.6395 5.19362 13.6992V9.33249L15.6809 5.33107L20.3781 7.13241C20.3766 7.19291 20.3758 7.25361 20.3758 7.31445C20.3758 10.798 22.8231 13.7203 26.088 14.4521C25.8024 21.0778 21.7642 26.9167 15.6492 29.5047ZM27.6879 13.2617C24.4097 13.2617 21.7426 10.5938 21.7426 7.31445C21.7426 4.03512 24.4097 1.36719 27.6879 1.36719C30.9662 1.36719 33.6333 4.03512 33.6333 7.31445C33.6333 10.5938 30.9662 13.2617 27.6879 13.2617Z" fill="#58585D"/>
<path d="M29.1523 5.66897L27.312 7.50982L26.7247 6.9222C26.4577 6.6554 26.0251 6.65533 25.7582 6.9222C25.4914 7.18915 25.4913 7.622 25.7582 7.88901L26.8289 8.96C26.957 9.08817 27.1308 9.16022 27.3121 9.16022C27.4933 9.16022 27.6672 9.08817 27.7953 8.96L30.1187 6.63578C30.3856 6.36883 30.3856 5.93598 30.1187 5.66897C29.8519 5.4021 29.4191 5.4021 29.1523 5.66897Z" fill="#58585D"/>
<path d="M5.1369 26.1796C4.95717 26.1796 4.78086 26.2527 4.65376 26.3799C4.52665 26.5077 4.45353 26.6834 4.45353 26.8632C4.45353 27.0436 4.52665 27.2193 4.65376 27.3465C4.78086 27.4743 4.95717 27.5474 5.1369 27.5474C5.31663 27.5474 5.49293 27.4743 5.62004 27.3465C5.74715 27.2193 5.82027 27.0436 5.82027 26.8632C5.82027 26.6834 5.74715 26.5077 5.62004 26.3799C5.49293 26.2527 5.31663 26.1796 5.1369 26.1796Z" fill="#58585D"/>
</svg>
