<svg width="33" height="35" viewBox="0 0 33 35" fill="none" xmlns="http://www.w3.org/2000/svg">
<g id="not_installation">
<path d="M25.0024 27.32C25.6322 27.3516 26.2376 27.1359 26.7072 26.7133C27.1768 26.2902 27.4541 25.7105 27.4888 25.0804C27.523 24.4494 27.31 23.8443 26.8881 23.3755C26.0178 22.4084 24.5209 22.3327 23.5511 23.2065C23.0815 23.6296 22.8042 24.2093 22.7695 24.8393C22.7353 25.4704 22.9483 26.0755 23.3702 26.5443C23.7911 27.0115 24.3685 27.2868 24.9972 27.32H25.0024ZM23.8046 24.8953C23.8237 24.5412 23.9803 24.215 24.2446 23.9765C24.5183 23.7302 24.8661 23.6177 25.2066 23.6358C25.5446 23.6534 25.8747 23.7991 26.1173 24.0693C26.3532 24.3317 26.4724 24.6703 26.4532 25.0239C26.434 25.3781 26.2775 25.7042 26.0131 25.9428C25.7488 26.1808 25.4083 26.3021 25.0537 26.2845H25.0506C24.6987 26.2658 24.3752 26.1118 24.1399 25.8505C23.9041 25.5881 23.7844 25.2495 23.8041 24.8958L23.8046 24.8953Z" fill="#58585D"/>
<path d="M5.44821 9.77694C5.02992 9.53427 4.65207 9.22729 4.32552 8.86432C3.30495 7.7308 2.90947 6.19179 3.24586 4.70827L5.28442 6.97323C5.40882 7.11116 5.59697 7.17234 5.77838 7.13345L8.25803 6.60144C8.43841 6.56255 8.58457 6.43084 8.64211 6.25557L9.43047 3.84387C9.48801 3.66757 9.44706 3.47364 9.32318 3.33571L7.28462 1.07075C8.79501 0.891337 10.2831 1.44565 11.3032 2.57969C12.4487 3.85217 12.8027 5.65044 12.2273 7.27242C12.1636 7.45183 12.2035 7.65147 12.3305 7.79303L13.2749 8.84202C13.4666 9.05514 13.7942 9.07225 14.0067 8.88039C14.2192 8.68854 14.2369 8.36082 14.0451 8.14822L13.3008 7.32116C13.8611 5.42073 13.4034 3.36371 12.0734 1.88589C10.7641 0.430361 8.82559 -0.244252 6.88811 0.0798314C6.7181 0.108351 6.55949 0.185094 6.42939 0.302283C6.24798 0.465621 6.14069 0.689628 6.12773 0.933339C6.11425 1.17757 6.19718 1.41246 6.36045 1.59395L8.35133 3.80602L7.74904 5.64889L5.85405 6.05542L3.86318 3.84335C3.69991 3.66187 3.47651 3.55557 3.2329 3.5426C3.23238 3.5426 3.23135 3.5426 3.23083 3.5426C2.98722 3.53016 2.75345 3.61364 2.57204 3.77698C2.44194 3.89417 2.34864 4.04351 2.30303 4.20996C1.77797 6.10364 2.24654 8.10311 3.55582 9.5576C3.95492 10.0009 4.41675 10.3764 4.92833 10.6735C5.00193 10.716 5.08124 10.7388 5.16106 10.743C5.34921 10.7528 5.5358 10.6595 5.63688 10.4853C5.78045 10.2374 5.69648 9.92005 5.44873 9.77642L5.44821 9.77694Z" fill="#58585D"/>
<path d="M20.2069 33.6482C20.4932 33.6482 20.7252 33.416 20.7252 33.1296C20.7252 32.8433 20.4932 32.6111 20.2069 32.6111C19.9206 32.6111 19.6886 32.8433 19.6886 33.1296C19.6886 33.416 19.9206 33.6482 20.2069 33.6482Z" fill="#58585D"/>
<path d="M22.6969 28.7491L21.6603 27.8842V30.0096C21.5198 29.9858 21.3752 29.9728 21.228 29.9728H13.2661C13.1448 29.9728 13.025 29.9816 12.9079 29.9982V26.9959C12.9079 26.2461 12.6689 25.53 12.2165 24.9259L11.6992 24.2357L10.9585 24.9767L11.3866 25.5482C11.7038 25.9713 11.8713 26.4722 11.8713 26.9959V30.3825C11.1523 30.8439 10.6744 31.6497 10.6744 32.566V34.4815C10.6744 34.7677 10.9067 35 11.1928 35C11.4789 35 11.7111 34.7677 11.7111 34.4815V32.566C11.7111 31.7083 12.4088 31.0104 13.2661 31.0104H21.228C22.0853 31.0104 22.783 31.7083 22.783 32.566V34.4815C22.783 34.7677 23.0152 35 23.3013 35C23.5874 35 23.8196 34.7677 23.8196 34.4815V32.566C23.8196 31.6814 23.3744 30.8994 22.6969 30.4317V28.7491Z" fill="#58585D"/>
<path d="M15.642 16.6579C15.6089 16.6418 14.029 15.8759 13.9979 15.8635C13.2163 15.5513 12.3191 15.7608 11.7655 16.3846L11.1472 17.081C10.9569 17.2952 10.9766 17.6229 11.1902 17.8132C11.4037 18.0035 11.7318 17.9838 11.922 17.7701L12.5409 17.0732C12.9468 16.6143 13.5366 16.7237 14.0166 17.0229C14.0166 17.0229 14.9672 17.5052 15.3388 17.6613L16.2376 16.7621C16.0386 16.7823 15.8323 16.7502 15.642 16.6579Z" fill="#58585D"/>
<path d="M9.82284 23.2651C9.98352 23.5046 10.3059 23.5653 10.5423 23.4066C10.7802 23.2469 10.8434 22.9249 10.6838 22.6874L7.60235 18.7797C7.03842 17.9387 7.06796 16.8311 7.67595 16.0232L10.1582 12.7243C10.604 12.1316 11.4452 11.9444 12.1138 12.2882L16.6507 14.6444C17.0705 14.8622 17.295 15.303 17.2535 15.7468L20.4754 12.5236C20.4308 11.9921 20.1882 11.4938 19.7855 11.1251C19.2988 10.6787 18.6571 10.4936 18.0414 10.5625C18.0699 9.92991 17.8169 9.32063 17.3452 8.88869C16.4667 8.08393 15.0828 8.12748 14.2612 8.98618L13.0012 10.3027C13.0012 10.3027 12.316 11.0541 12.2273 11.2128C11.5768 10.9924 10.8797 11.0396 10.2826 11.3227L10.2359 11.358L9.40145 10.4308C9.27446 10.2893 9.07957 10.2291 8.89505 10.2737C8.43167 10.3852 7.95429 10.4256 7.47588 10.3935C7.47329 10.3935 7.4707 10.3935 7.46811 10.3935C7.18562 10.3784 6.94305 10.5931 6.92387 10.8762C6.90469 11.1619 7.12083 11.4093 7.40643 11.4285C7.88484 11.4611 8.36273 11.4337 8.83129 11.3476L9.41596 11.9973C9.09149 12.409 6.95497 15.2584 6.84871 15.3999C5.97534 16.5599 5.93284 18.1508 6.74246 19.3579L9.82388 23.2656L9.82284 23.2651ZM17.4489 11.9392C17.8843 11.4845 18.6177 11.4622 19.0842 11.89C19.5346 12.3032 19.5657 13.0178 19.1402 13.458L18.0351 14.6128C17.8356 14.2457 17.5277 13.932 17.1281 13.7245L16.2018 13.2433L17.4494 11.9397L17.4489 11.9392ZM15.0092 9.70383C15.444 9.24907 16.178 9.22677 16.6445 9.65405C17.0944 10.0663 17.126 10.7819 16.7005 11.2221L15.2429 12.745L13.1629 11.6649C13.2023 11.6027 15.0092 9.70383 15.0092 9.70383Z" fill="#58585D"/>
<path d="M24.5639 19.8349L24.0668 19.2827L25.0252 18.3229C25.5845 17.4627 25.4207 16.2887 24.665 15.5965C24.1783 15.1505 23.5361 14.9649 22.9208 15.0344C22.9457 14.4832 22.757 13.9496 22.3958 13.5353L21.6582 14.2732C21.9754 14.6932 21.9583 15.3024 21.5805 15.6934L19.871 17.4798C19.4631 17.906 18.794 17.9522 18.328 17.6047L17.5914 18.3416C18.0693 18.7522 18.6779 18.9239 19.2807 18.856C19.2522 19.4891 19.5041 20.0968 19.9762 20.5293C20.308 20.8331 20.7133 21.0177 21.1352 21.081C21.1352 21.081 21.4472 21.1484 21.8593 21.0955C22.2506 21.0452 22.4974 20.8549 22.4974 20.8549L23.3334 20.0175L23.9782 20.7341C24.0969 20.8663 24.2752 20.928 24.4504 20.8985C25.8525 20.6589 27.254 21.1432 28.1994 22.1943C29.716 23.8795 29.573 26.4914 27.8796 28.0164C27.0591 28.7553 26.0017 29.1323 24.9019 29.0768C24.8987 29.0768 24.8956 29.0768 24.8925 29.0768C23.7973 29.0192 22.7913 28.5401 22.0589 27.7265C21.1129 26.676 20.7781 25.2308 21.1627 23.8608C21.2109 23.6897 21.1679 23.5057 21.0487 23.3734L20.435 22.5339C20.2432 22.3213 19.9156 22.3042 19.7031 22.4955C19.4906 22.6874 19.473 23.0151 19.6647 23.2277L20.0934 23.8624C19.7311 25.4906 20.168 27.1758 21.2881 28.4203C22.2061 29.4398 23.4661 30.0407 24.8381 30.1123C24.8423 30.1123 24.8459 30.1123 24.85 30.1128C26.2257 30.1818 27.5479 29.711 28.5736 28.7874C30.6915 26.8798 30.8693 23.6109 28.9702 21.501C27.8501 20.2565 26.2205 19.6457 24.5639 19.836V19.8349ZM22.3118 19.7152C21.8769 20.1699 21.143 20.1922 20.6765 19.7644C20.225 19.3506 20.195 18.6371 20.6205 18.1964L22.3299 16.41C22.7679 15.9522 23.5019 15.9361 23.9652 16.3608C24.4146 16.7725 24.4473 17.4881 24.0212 17.9288L22.3118 19.7152Z" fill="#58585D"/>
<path d="M0.518451 33.7472C0.385761 33.7472 0.253071 33.6964 0.151998 33.5953C-0.0506659 33.3925 -0.0506659 33.0643 0.151998 32.8621L31.1984 1.80292C31.4011 1.60017 31.7292 1.60017 31.9313 1.80292C32.134 2.00515 32.134 2.3339 31.9313 2.53613L0.884905 33.5953C0.783832 33.6964 0.651142 33.7472 0.518451 33.7472Z" fill="#58585D"/>
<path d="M18.6302 21.9599C18.9141 21.9599 19.1443 21.7296 19.1443 21.4455C19.1443 21.1614 18.9141 20.9311 18.6302 20.9311C18.3462 20.9311 18.116 21.1614 18.116 21.4455C18.116 21.7296 18.3462 21.9599 18.6302 21.9599Z" fill="#58585D"/>
</g>
</svg>
