<svg width="57" height="19" viewBox="0 0 57 19" fill="none" xmlns="http://www.w3.org/2000/svg">
<g id="pix">
<path d="M38.325 1.95204L37.662 1.31909C37.4975 1.16212 37.4975 0.907475 37.662 0.750426L38.3246 0.117975C38.4894 -0.0393251 38.7565 -0.0393251 38.9212 0.117975L39.5839 0.750426C39.7484 0.907475 39.7484 1.16212 39.5839 1.31909L38.9209 1.95204C38.7563 2.10909 38.4896 2.10909 38.325 1.95204Z" fill="white"/>
<path d="M49.6155 6.99195C49.3134 7.28032 48.8238 7.28032 48.5218 6.99195L45.1304 3.75483C44.5372 3.18842 43.7324 2.87029 42.8933 2.87029H41.4434C41.2493 2.87029 41.0918 3.02051 41.0918 3.20583C41.0918 3.39115 41.2493 3.54138 41.4434 3.54138H42.8933C43.5459 3.54138 44.1718 3.78882 44.6333 4.22932L48.0246 7.46644C48.6012 8.01691 49.536 8.01694 50.1126 7.46646L53.4916 4.24117C53.953 3.80073 54.5789 3.55328 55.2316 3.55328H56.4104C56.6045 3.55328 56.7619 3.40305 56.7619 3.21774C56.7619 3.03242 56.6045 2.88219 56.4104 2.88219H55.2316C54.3925 2.88219 53.5878 3.20032 52.9944 3.76664L49.6155 6.99195Z" fill="white"/>
<path d="M38.99 12.8425C38.99 13.0279 38.8326 13.1781 38.6385 13.1781C38.4443 13.1781 38.2869 13.0279 38.2869 12.8425V4.70288C38.2869 4.06536 37.7456 3.5486 37.0778 3.5486H35.6158C35.4216 3.5486 35.2643 3.39837 35.2643 3.21306C35.2643 3.02775 35.4216 2.87752 35.6158 2.87752H37.0778C38.1339 2.87752 38.99 3.69478 38.99 4.70288V12.8425Z" fill="white"/>
<path d="M24.062 17.7411C24.062 17.9264 23.9047 18.0766 23.7105 18.0766C23.5164 18.0766 23.359 17.9264 23.359 17.7411V6.8447C23.359 4.65452 25.2191 2.87908 27.5137 2.87908L30.8845 2.88383C33.1727 2.8882 35.0254 4.66003 35.0254 6.8442V9.16361C35.0254 11.3537 33.1653 13.1293 30.8708 13.1293H26.1082C25.9141 13.1293 25.7567 12.9792 25.7567 12.7938C25.7567 12.6085 25.9141 12.4583 26.1082 12.4583H30.8708C32.777 12.4583 34.3223 10.9831 34.3223 9.16361V6.8442C34.3223 5.03015 32.7838 3.55854 30.8833 3.55492L27.5137 3.55017C25.6077 3.55044 24.062 5.02534 24.062 6.8447V17.7411Z" fill="white"/>
<path d="M41.4434 13.1068C41.2493 13.1068 41.0918 12.9566 41.0918 12.7713C41.0918 12.5859 41.2493 12.4358 41.4434 12.4358H42.8933C43.5459 12.4358 44.1718 12.1882 44.6333 11.7478L48.0247 8.51056C48.6013 7.96016 49.536 7.96016 50.1126 8.51056L53.4916 11.7359C53.953 12.1763 54.5789 12.4238 55.2316 12.4238H56.4104C56.6045 12.4238 56.7619 12.574 56.7619 12.7594C56.7619 12.9447 56.6045 13.0949 56.4104 13.0949H55.2316C54.3925 13.0949 53.5878 12.7768 52.9944 12.2104L49.6155 8.9851C49.3135 8.69673 48.8238 8.69673 48.5217 8.9851L45.1304 12.2223C44.5372 12.7886 43.7324 13.1068 42.8933 13.1068H41.4434Z" fill="white"/>
<path d="M15.0664 14.8393C14.3387 14.8393 13.6543 14.5689 13.1398 14.0779L10.3577 11.4225C10.1625 11.2355 9.822 11.2361 9.62675 11.4225L6.83467 14.0876C6.32006 14.5785 5.63568 14.849 4.90794 14.849H4.35975L7.88308 18.2123C8.9835 19.2625 10.7676 19.2625 11.868 18.2123L15.4016 14.8393H15.0664Z" fill="white"/>
<path d="M4.90797 5.44636C5.6357 5.44636 6.32008 5.71691 6.83461 6.20788L9.62675 8.87352C9.82779 9.06542 10.1561 9.06628 10.3578 8.87326L13.1397 6.21754C13.6543 5.72657 14.3387 5.4561 15.0664 5.4561H15.4015L11.868 2.08326C10.7676 1.03287 8.98351 1.03287 7.88311 2.08326L4.35986 5.44636H4.90797Z" fill="white"/>
<path d="M18.324 8.24589L16.1888 6.20765C16.1418 6.22563 16.0909 6.23687 16.0372 6.23687H15.0664C14.5644 6.23687 14.0731 6.43115 13.7185 6.7699L10.9365 9.42547C10.6763 9.67394 10.3342 9.7983 9.99237 9.7983C9.65037 9.7983 9.30855 9.67394 9.04825 9.42573L6.25585 6.76023C5.90115 6.42148 5.40991 6.22722 4.90794 6.22722H3.71419C3.66333 6.22722 3.6157 6.21572 3.57078 6.19957L1.42701 8.24589C0.326598 9.29618 0.326598 10.9992 1.42701 12.0496L3.57069 14.0959C3.61562 14.0798 3.66333 14.0683 3.71419 14.0683H4.90794C5.40991 14.0683 5.90115 13.874 6.25585 13.5353L9.04798 10.8701C9.55266 10.3888 10.4324 10.3885 10.9365 10.8702L13.7185 13.5255C14.0731 13.8643 14.5644 14.0586 15.0664 14.0586H16.0372C16.091 14.0586 16.1418 14.0698 16.1888 14.0877L18.324 12.0496C19.4245 10.9992 19.4245 9.29618 18.324 8.24589Z" fill="white"/>
<path d="M26.609 16.8149C26.4514 16.8149 26.268 16.8511 26.0865 16.891V17.555C26.2123 17.5988 26.3557 17.6198 26.4933 17.6198C26.8421 17.6198 27.0076 17.5076 27.0076 17.2143C27.0076 16.9385 26.8721 16.8149 26.609 16.8149ZM25.9689 18.048V16.7349H26.0646L26.0746 16.7921C26.2361 16.7559 26.4593 16.7083 26.6188 16.7083C26.7486 16.7083 26.8721 16.7272 26.9757 16.8072C27.0954 16.9005 27.1333 17.0508 27.1333 17.2143C27.1333 17.3858 27.0734 17.5475 26.91 17.6369C26.7962 17.6978 26.6428 17.7225 26.5052 17.7225C26.3637 17.7225 26.2281 17.7014 26.0865 17.6616V18.048H25.9689Z" fill="white"/>
<path d="M28.0091 16.8109C27.6601 16.8109 27.5047 16.9157 27.5047 17.2087C27.5047 17.4923 27.6582 17.6198 28.0091 17.6198C28.3559 17.6198 28.5115 17.5171 28.5115 17.2239C28.5115 16.9404 28.358 16.8109 28.0091 16.8109ZM28.4576 17.6198C28.3419 17.6996 28.1865 17.7225 28.0091 17.7225C27.8277 17.7225 27.6721 17.6977 27.5584 17.6198C27.4308 17.5342 27.379 17.3933 27.379 17.2164C27.379 17.0413 27.4308 16.8987 27.5584 16.8109C27.6721 16.733 27.8277 16.7083 28.0091 16.7083C28.1885 16.7083 28.3419 16.733 28.4576 16.8109C28.5872 16.8987 28.637 17.0413 28.637 17.2144C28.637 17.3914 28.5851 17.5342 28.4576 17.6198Z" fill="white"/>
<path d="M30.109 17.696L29.7203 16.8987H29.7122L29.3294 17.696H29.2239L28.8092 16.7349H28.9387L29.2836 17.5417H29.2917L29.6664 16.7349H29.7741L30.1588 17.5417H30.1669L30.5038 16.7349H30.6294L30.2146 17.696H30.109Z" fill="white"/>
<path d="M31.3813 16.809C31.0583 16.809 30.9486 16.9461 30.9286 17.144H31.8338C31.8239 16.9253 31.7062 16.809 31.3813 16.809ZM31.3773 17.7226C31.1839 17.7226 31.0583 17.6959 30.9586 17.6159C30.841 17.5188 30.8012 17.3782 30.8012 17.2164C30.8012 17.0623 30.855 16.8987 30.9886 16.8053C31.1002 16.7311 31.2378 16.7083 31.3813 16.7083C31.511 16.7083 31.6604 16.7216 31.7839 16.8016C31.9295 16.8947 31.9575 17.0585 31.9575 17.2448H30.9248C30.9286 17.4428 30.9966 17.618 31.3872 17.618C31.5727 17.618 31.7461 17.5892 31.9077 17.5626V17.6635C31.7401 17.6922 31.5547 17.7226 31.3773 17.7226Z" fill="white"/>
<path d="M32.2951 17.696V16.7349H32.3907L32.4008 16.7921C32.614 16.7406 32.7138 16.7083 32.9011 16.7083H32.9151V16.8149H32.8873C32.7297 16.8149 32.6341 16.8356 32.4127 16.891V17.696H32.2951Z" fill="white"/>
<path d="M33.5982 16.809C33.2753 16.809 33.1657 16.9461 33.1457 17.144H34.0508C34.0409 16.9253 33.9232 16.809 33.5982 16.809ZM33.5944 17.7226C33.4008 17.7226 33.2753 17.6959 33.1756 17.6159C33.0579 17.5188 33.0181 17.3782 33.0181 17.2164C33.0181 17.0623 33.0719 16.8987 33.2057 16.8053C33.3172 16.7311 33.4547 16.7083 33.5982 16.7083C33.7279 16.7083 33.8775 16.7216 34.001 16.8016C34.1464 16.8947 34.1745 17.0585 34.1745 17.2448H33.1418C33.1457 17.4428 33.2135 17.618 33.6042 17.618C33.7897 17.618 33.9631 17.5892 34.1246 17.5626V17.6635C33.9571 17.6922 33.7717 17.7226 33.5944 17.7226Z" fill="white"/>
<path d="M35.463 16.8758C35.3375 16.8319 35.1939 16.8109 35.0564 16.8109C34.7075 16.8109 34.542 16.9234 34.542 17.2164C34.542 17.4942 34.6775 17.6159 34.9406 17.6159C35.0982 17.6159 35.2816 17.5797 35.463 17.5417V16.8758ZM35.485 17.696L35.475 17.6387C35.3136 17.6749 35.0903 17.7225 34.9308 17.7225C34.8012 17.7225 34.6775 17.7055 34.5738 17.6235C34.4543 17.5302 34.4163 17.3801 34.4163 17.2164C34.4163 17.0452 34.4762 16.8832 34.6396 16.7957C34.7534 16.733 34.9068 16.7083 35.0464 16.7083C35.1859 16.7083 35.3214 16.7312 35.463 16.7691V16.3295H35.5807V17.696H35.485Z" fill="white"/>
<path d="M37.3054 16.8149C37.1478 16.8149 36.9644 16.8511 36.783 16.8909V17.5532C36.9107 17.5988 37.0522 17.6198 37.1898 17.6198C37.5386 17.6198 37.7041 17.5076 37.7041 17.2143C37.7041 16.9385 37.5685 16.8149 37.3054 16.8149ZM37.6063 17.6369C37.4927 17.6978 37.3393 17.7225 37.2016 17.7225C37.0522 17.7225 36.9027 17.6978 36.7511 17.6501L36.7452 17.6959H36.6653V16.3296H36.783V16.7881C36.9445 16.754 37.1618 16.7083 37.3153 16.7083C37.445 16.7083 37.5685 16.7272 37.6721 16.8071C37.7918 16.9005 37.8297 17.0508 37.8297 17.2143C37.8297 17.3858 37.7697 17.5475 37.6063 17.6369Z" fill="white"/>
<path d="M37.9858 18.065V17.9605C38.0436 17.9661 38.0975 17.97 38.1354 17.97C38.2808 17.97 38.3685 17.93 38.4503 17.772L38.4881 17.6959L37.9619 16.7349H38.0975L38.5481 17.5646H38.556L38.9847 16.7349H39.1182L38.552 17.814C38.4484 18.0099 38.3367 18.0745 38.1313 18.0745C38.0855 18.0745 38.0357 18.0708 37.9858 18.065Z" fill="white"/>
<path d="M40.7393 17.1478H40.3487V17.4848H40.7413C41.0104 17.4848 41.112 17.4561 41.112 17.3154C41.112 17.1649 40.9727 17.1478 40.7393 17.1478ZM40.6676 16.6016H40.3487V16.9442H40.6696C40.9348 16.9442 41.0404 16.9138 41.0404 16.771C41.0404 16.6189 40.9068 16.6016 40.6676 16.6016ZM41.2737 17.6047C41.1301 17.6922 40.9567 17.6959 40.6395 17.6959H40.0436V16.3924H40.6257C40.8989 16.3924 41.0662 16.3961 41.2058 16.4762C41.3055 16.5333 41.3454 16.6209 41.3454 16.7349C41.3454 16.8719 41.2856 16.9632 41.1301 17.0242V17.0316C41.3055 17.0699 41.4192 17.1556 41.4192 17.3401C41.4192 17.4656 41.3713 17.5475 41.2737 17.6047Z" fill="white"/>
<path d="M42.6118 17.2925C42.4941 17.2829 42.3746 17.2773 42.2489 17.2773C42.0437 17.2773 41.9718 17.3173 41.9718 17.4066C41.9718 17.4904 42.0317 17.536 42.189 17.536C42.3207 17.536 42.4782 17.5076 42.6118 17.4789V17.2925ZM42.6716 17.696L42.6636 17.6387C42.4922 17.6789 42.2928 17.7225 42.1173 17.7225C42.0097 17.7225 41.894 17.7092 41.8123 17.652C41.7367 17.6007 41.7007 17.517 41.7007 17.4198C41.7007 17.3114 41.7506 17.2106 41.8701 17.1592C41.9758 17.1117 42.1173 17.1079 42.247 17.1079C42.3526 17.1079 42.4941 17.1136 42.6118 17.1212V17.104C42.6118 16.9538 42.5081 16.9043 42.225 16.9043C42.1154 16.9043 41.9818 16.9098 41.8542 16.9213V16.7272C41.9957 16.7159 42.1552 16.7083 42.2868 16.7083C42.4623 16.7083 42.6437 16.7216 42.7553 16.7976C42.8709 16.8758 42.8929 16.9844 42.8929 17.1269V17.696H42.6716Z" fill="white"/>
<path d="M44.2073 17.696V17.1649C44.2073 16.9899 44.1137 16.9272 43.9461 16.9272C43.8226 16.9272 43.6672 16.9575 43.5355 16.9881V17.696H43.2544V16.7349H43.4837L43.4935 16.7957C43.671 16.7521 43.8684 16.7083 44.032 16.7083C44.1555 16.7083 44.2811 16.7254 44.3768 16.8072C44.4565 16.8758 44.4864 16.9707 44.4864 17.1079V17.696H44.2073Z" fill="white"/>
<path d="M45.2806 17.7225C45.1511 17.7225 45.0094 17.7055 44.9058 17.6217C44.7823 17.5266 44.7463 17.3763 44.7463 17.2143C44.7463 17.0622 44.7981 16.8966 44.9516 16.8035C45.0772 16.7253 45.2328 16.7083 45.3943 16.7083C45.5099 16.7083 45.6235 16.7159 45.7491 16.7272V16.9328C45.6474 16.9234 45.5258 16.9157 45.4282 16.9157C45.1609 16.9157 45.0353 16.9957 45.0353 17.2164C45.0353 17.4239 45.1291 17.5132 45.3483 17.5132C45.4759 17.5132 45.6255 17.4904 45.7711 17.4639V17.6617C45.6135 17.6922 45.4421 17.7225 45.2806 17.7225Z" fill="white"/>
<path d="M46.6013 16.9098C46.3341 16.9098 46.2164 16.99 46.2164 17.2087C46.2164 17.4276 46.3321 17.5209 46.6013 17.5209C46.8665 17.5209 46.982 17.4428 46.982 17.2238C46.982 17.0051 46.8686 16.9098 46.6013 16.9098ZM47.0837 17.6217C46.9601 17.7015 46.7987 17.7226 46.6013 17.7226C46.3999 17.7226 46.2385 17.6995 46.1169 17.6217C45.9774 17.5342 45.9274 17.3896 45.9274 17.2164C45.9274 17.0432 45.9774 16.8966 46.1169 16.809C46.2385 16.7311 46.3999 16.7083 46.6013 16.7083C46.8007 16.7083 46.9601 16.7311 47.0837 16.809C47.2232 16.8966 47.2713 17.0432 47.2713 17.2143C47.2713 17.3877 47.2213 17.5342 47.0837 17.6217Z" fill="white"/>
<path d="M48.8941 17.7225C48.7247 17.7225 48.5413 17.696 48.4036 17.5874C48.2402 17.4579 48.1904 17.2582 48.1904 17.0432C48.1904 16.851 48.2542 16.6227 48.4674 16.4894C48.6329 16.3868 48.8382 16.3658 49.0456 16.3658C49.1972 16.3658 49.3526 16.3753 49.5221 16.3886V16.6227C49.3766 16.6112 49.1972 16.6016 49.0576 16.6016C48.6688 16.6016 48.5033 16.7425 48.5033 17.0432C48.5033 17.3497 48.6568 17.4867 48.944 17.4867C49.1313 17.4867 49.3406 17.4504 49.552 17.4085V17.6407C49.3406 17.6807 49.1193 17.7225 48.8941 17.7225Z" fill="white"/>
<path d="M50.378 16.8795C50.1448 16.8795 50.055 16.9596 50.037 17.106H50.715C50.7069 16.9501 50.6112 16.8795 50.378 16.8795ZM50.3362 17.7225C50.1707 17.7225 50.0211 17.7036 49.9095 17.6159C49.79 17.5209 49.748 17.3782 49.748 17.2143C49.748 17.0679 49.7979 16.9043 49.9375 16.809C50.061 16.7253 50.2185 16.7083 50.378 16.7083C50.5215 16.7083 50.691 16.7235 50.8146 16.8053C50.9761 16.9138 50.9901 17.0813 50.9921 17.2792H50.0351C50.0411 17.4258 50.1229 17.5209 50.4058 17.5209C50.5813 17.5209 50.7767 17.4962 50.9422 17.4714V17.6597C50.7488 17.6903 50.5375 17.7225 50.3362 17.7225Z" fill="white"/>
<path d="M52.2426 17.696V17.1649C52.2426 16.9899 52.149 16.9272 51.9814 16.9272C51.8579 16.9272 51.7024 16.9575 51.5708 16.9881V17.696H51.2897V16.7349H51.519L51.5289 16.7957C51.7063 16.7521 51.9037 16.7083 52.0672 16.7083C52.1908 16.7083 52.3164 16.7254 52.4121 16.8072C52.4918 16.8758 52.5218 16.9707 52.5218 17.1079V17.696H52.2426Z" fill="white"/>
<path d="M53.322 17.7225C53.1863 17.7225 53.0627 17.6863 52.995 17.5854C52.9451 17.517 52.9212 17.4239 52.9212 17.2944V16.9346H52.7179V16.7349H52.9212L52.9512 16.4437H53.2004V16.7349H53.597V16.9346H53.2004V17.2431C53.2004 17.3173 53.2062 17.3801 53.2281 17.4258C53.2582 17.4904 53.3239 17.5152 53.4116 17.5152C53.4774 17.5152 53.5572 17.5056 53.6128 17.4962V17.6882C53.5213 17.7055 53.4155 17.7225 53.322 17.7225Z" fill="white"/>
<path d="M53.8712 17.696V16.7349H54.1005L54.1106 16.7957C54.296 16.7463 54.4334 16.7083 54.6089 16.7083C54.6169 16.7083 54.6289 16.7083 54.6447 16.7101V16.9385C54.6129 16.9367 54.575 16.9367 54.5471 16.9367C54.4095 16.9367 54.3059 16.9519 54.1524 16.9863V17.696H53.8712Z" fill="white"/>
<path d="M55.6667 17.2925C55.549 17.2829 55.4295 17.2773 55.3038 17.2773C55.0986 17.2773 55.0267 17.3173 55.0267 17.4066C55.0267 17.4904 55.0866 17.536 55.2439 17.536C55.3756 17.536 55.5332 17.5076 55.6667 17.4789V17.2925ZM55.7265 17.696L55.7186 17.6387C55.547 17.6789 55.3477 17.7225 55.1723 17.7225C55.0646 17.7225 54.9489 17.7092 54.8672 17.652C54.7916 17.6007 54.7556 17.517 54.7556 17.4198C54.7556 17.3114 54.8054 17.2106 54.925 17.1592C55.0307 17.1117 55.1723 17.1079 55.3019 17.1079C55.4074 17.1079 55.549 17.1136 55.6667 17.1212V17.104C55.6667 16.9538 55.563 16.9043 55.28 16.9043C55.1703 16.9043 55.0367 16.9098 54.9091 16.9213V16.7272C55.0507 16.7159 55.2101 16.7083 55.3418 16.7083C55.5171 16.7083 55.6987 16.7216 55.8102 16.7976C55.9259 16.8758 55.9479 16.9844 55.9479 17.1269V17.696H55.7265Z" fill="white"/>
<path d="M56.3093 16.3296H56.5904V17.6959H56.3093V16.3296Z" fill="white"/>
</g>
</svg>
