<svg width="53" height="32" viewBox="0 0 53 32" fill="none" xmlns="http://www.w3.org/2000/svg">
<rect width="53" height="32" fill="#F5F5F5"/>
<g clip-path="url(#clip0_0_1)">
<rect width="1440" height="4691" transform="translate(-1179 -4577)" fill="#F2F2F5"/>
<rect x="-1179" y="-425" width="1440" height="539" fill="#EF7B1C"/>
<path fill-rule="evenodd" clip-rule="evenodd" d="M6.67944 2.39196H7.19101C7.32303 2.39196 7.45504 2.39196 7.53756 2.32606C7.82635 2.1201 7.79334 1.61756 7.19101 1.61756H6.67944V2.39196ZM7.43854 0.727818C8.17289 0.727818 8.87424 1.07383 8.87424 1.94709C8.87424 2.79564 8.33792 3.27347 7.60356 3.25699C7.24877 3.25699 6.95172 3.25699 6.68769 3.25699V4.43507H5.46652V0.727818H7.43854Z" fill="black"/>
<path fill-rule="evenodd" clip-rule="evenodd" d="M10.3842 2.31782H11.0113C11.1185 2.31782 11.2341 2.30958 11.3083 2.26839C11.6136 2.08714 11.5971 1.60108 11.0443 1.60108H10.3842V2.32606V2.31782ZM9.21254 0.752533H11.4156C11.7951 0.752533 12.1004 0.843154 12.3315 1.03264C12.5625 1.22212 12.6285 1.46927 12.6285 1.77409C12.6285 2.12834 12.513 2.39196 12.249 2.55673C12.1829 2.59792 12.1004 2.63911 12.0179 2.66383C12.0674 2.6803 12.1087 2.70502 12.1499 2.7215C12.381 2.84507 12.6203 3.05927 12.6285 3.35585L12.645 3.95725C12.645 4.08082 12.6203 4.16321 12.645 4.21264C12.6698 4.26207 12.711 4.30326 12.777 4.33621V4.43507H11.5559C11.5311 4.39388 11.5146 4.3115 11.4981 4.18792C11.4816 4.06435 11.4733 3.92429 11.4733 3.776V3.57005C11.4651 3.40528 11.4073 3.28994 11.3083 3.2158C11.2093 3.14165 11.1103 3.1087 10.871 3.1087H10.3759V4.42683H9.20428V0.744294L9.21254 0.752533Z" fill="black"/>
<path fill-rule="evenodd" clip-rule="evenodd" d="M24.8567 3.05927C24.8567 4.24559 23.8335 4.4845 23.0497 4.50098C22.3813 4.51745 21.2509 4.19616 21.2509 3.05927V0.727818H22.4639V3.08398C22.4639 3.72657 23.6603 3.79248 23.6603 3.08398V0.727818H24.8567V3.05927Z" fill="black"/>
<path fill-rule="evenodd" clip-rule="evenodd" d="M25.3518 3.51238L27.0432 1.63404H25.426V0.719579H28.6275V1.53518L26.903 3.42999H28.71V4.36093H25.3518V3.51238Z" fill="black"/>
<path fill-rule="evenodd" clip-rule="evenodd" d="M29.0483 0.711341H30.2612V4.38564H29.0483V0.711341Z" fill="black"/>
<path fill-rule="evenodd" clip-rule="evenodd" d="M41.2517 4.35269H40.0965V0.719579H41.2434L42.5306 2.69678V0.719579H43.694V4.35269H42.5471L41.2434 2.40844L41.2517 4.35269Z" fill="black"/>
<path fill-rule="evenodd" clip-rule="evenodd" d="M9.64159 9.32865V5.6873H10.8463V8.43891H12.5542V9.32865H9.64159Z" fill="black"/>
<path fill-rule="evenodd" clip-rule="evenodd" d="M33.8422 6.69238C33.8257 6.51937 33.7432 6.42875 33.5534 6.37932C33.2893 6.29694 33.0006 6.42875 32.9758 6.52761C32.9593 6.60176 32.9593 6.6759 33.0006 6.73357C33.0418 6.79124 33.1078 6.82419 33.1986 6.84891C33.3389 6.88186 33.4049 6.93129 33.8174 7.01367C34.4528 7.14549 34.7003 7.36792 34.8901 7.53269C35.0633 7.68098 35.1128 8.05994 35.1128 8.29062C35.1128 8.5872 34.8901 8.93321 34.6095 9.1474C34.3125 9.36984 33.8834 9.41927 33.4131 9.41927C32.8933 9.41927 32.4972 9.31217 32.2084 9.09797C31.9114 8.88378 31.7381 8.57072 31.7134 8.17528H32.8933C32.9015 8.373 33.0583 8.50481 33.2481 8.53777C33.7927 8.61191 33.9494 8.42243 33.9412 8.29062C33.9412 8.0929 33.6854 7.99404 33.3389 7.92813C32.6788 7.80455 32.3322 7.63979 32.1177 7.46678C31.9114 7.30201 31.7711 7.01367 31.7711 6.69238C31.7711 6.32989 31.9197 6.04979 32.2084 5.83559C32.4972 5.62139 32.8933 5.52253 33.3884 5.52253C33.8504 5.52253 34.23 5.62963 34.5188 5.85207C34.8076 6.06626 34.9726 6.32165 35.0056 6.69238H33.8339H33.8422Z" fill="black"/>
<path fill-rule="evenodd" clip-rule="evenodd" d="M36.3835 6.5688H35.2696V5.62139H38.7021V6.5688H37.5799V9.33689H36.3835V6.5688Z" fill="black"/>
<path fill-rule="evenodd" clip-rule="evenodd" d="M46.2436 8.07642H47.0522L46.6232 6.69238L46.2436 8.07642ZM46.0291 5.59668H47.2503L48.62 9.32041H47.407L47.275 8.81787H46.0208L45.8641 9.32865H45.072L44.6842 9.31217L46.0291 5.58844V5.59668Z" fill="black"/>
<path fill-rule="evenodd" clip-rule="evenodd" d="M14.9223 3.59476C15.1616 3.59476 15.3514 3.50414 15.4834 3.3229C15.6154 3.14165 15.6897 2.88626 15.6897 2.55673C15.6897 2.2272 15.6237 1.96357 15.4834 1.77409C15.3514 1.58461 15.1616 1.49398 14.9223 1.49398C14.683 1.49398 14.4933 1.58461 14.3612 1.77409C14.2292 1.96357 14.155 2.21896 14.155 2.55673C14.155 2.8945 14.221 3.13341 14.353 3.3229C14.485 3.50414 14.6748 3.59476 14.9141 3.59476M14.9141 4.50922C14.32 4.50922 13.8414 4.33621 13.4866 3.9902C13.1318 3.64419 12.9586 3.17461 12.9586 2.58144C12.9586 1.98828 13.1318 1.50222 13.4866 1.14797C13.8414 0.793724 14.3117 0.620719 14.9141 0.620719C15.5164 0.620719 15.995 0.801963 16.3415 1.14797C16.6963 1.50222 16.8696 1.98005 16.8696 2.58144C16.8696 3.18284 16.6963 3.64419 16.3415 3.9902C15.9867 4.33621 15.5164 4.50922 14.9141 4.50922Z" fill="black"/>
<path fill-rule="evenodd" clip-rule="evenodd" d="M18.5363 3.48766H19.0314C19.2707 3.48766 19.4439 3.40528 19.5677 3.24051C19.6832 3.07574 19.7492 2.83683 19.7492 2.5073C19.7492 2.21072 19.6915 1.98828 19.5842 1.84823C19.4769 1.69994 19.3037 1.6258 19.0809 1.6258H18.5363V3.48766ZM17.3564 0.719579H19.0809C19.6337 0.719579 20.1783 0.867869 20.4671 1.17269C20.7559 1.46927 20.9209 1.91414 20.9209 2.49082C20.9209 3.12517 20.7476 3.61124 20.4506 3.94901C20.1535 4.27854 19.5925 4.44331 19.0149 4.44331H17.3647V0.719579H17.3564Z" fill="black"/>
<path fill-rule="evenodd" clip-rule="evenodd" d="M36.5568 3.56181C36.7961 3.56181 36.9859 3.47119 37.1179 3.28994C37.2499 3.1087 37.3241 2.86155 37.3241 2.53201C37.3241 2.20248 37.2581 1.94709 37.1179 1.75761C36.9859 1.56813 36.7961 1.47751 36.5568 1.47751C36.3175 1.47751 36.1277 1.56813 35.9957 1.75761C35.8637 1.94709 35.7894 2.20248 35.7894 2.53201C35.7894 2.86155 35.8554 3.1087 35.9875 3.28994C36.1195 3.47119 36.3093 3.56181 36.5485 3.56181M36.5485 4.46802C35.9545 4.46802 35.4759 4.29502 35.1211 3.95725C34.7663 3.61124 34.593 3.14989 34.593 2.56497C34.593 1.98005 34.7663 1.49398 35.1211 1.14797C35.4759 0.801963 35.9462 0.620719 36.5485 0.620719C37.1509 0.620719 37.6212 0.793724 37.976 1.14797C38.3308 1.50222 38.5041 1.97181 38.5041 2.56497C38.5041 3.15813 38.3308 3.61124 37.976 3.95725C37.6212 4.30326 37.1509 4.46802 36.5485 4.46802Z" fill="black"/>
<path fill-rule="evenodd" clip-rule="evenodd" d="M31.9114 3.48766H32.4065C32.6458 3.48766 32.819 3.40528 32.9428 3.24051C33.0583 3.07574 33.1243 2.83683 33.1243 2.5073C33.1243 2.21072 33.0666 1.98828 32.9593 1.84823C32.852 1.69994 32.6788 1.6258 32.456 1.6258H31.9114V3.48766ZM30.7315 0.719579H32.456C33.0088 0.719579 33.5534 0.867869 33.8422 1.17269C34.131 1.46927 34.296 1.91414 34.296 2.49082C34.296 3.12517 34.1227 3.61124 33.8257 3.94901C33.5286 4.27854 32.9676 4.44331 32.39 4.44331H30.7397V0.719579H30.7315Z" fill="black"/>
<path fill-rule="evenodd" clip-rule="evenodd" d="M45.8723 3.54533C46.1116 3.54533 46.3014 3.45471 46.4334 3.27347C46.5654 3.09222 46.6397 2.83683 46.6397 2.5073C46.6397 2.17777 46.5737 1.91414 46.4334 1.72466C46.3014 1.53518 46.1116 1.44455 45.8723 1.44455C45.633 1.44455 45.4433 1.53518 45.3112 1.72466C45.1792 1.91414 45.105 2.16953 45.105 2.5073C45.105 2.84507 45.171 3.08398 45.303 3.27347C45.435 3.45471 45.6248 3.54533 45.8641 3.54533M45.8641 4.45979C45.27 4.45979 44.7914 4.28678 44.4366 3.94077C44.0818 3.59476 43.9086 3.12518 43.9086 2.53201C43.9086 1.93885 44.0818 1.45279 44.4366 1.09854C44.7914 0.744294 45.2617 0.571289 45.8641 0.571289C46.4664 0.571289 46.945 0.752533 47.2915 1.09854C47.6463 1.45279 47.8196 1.93062 47.8196 2.53201C47.8196 3.13341 47.6463 3.59476 47.2915 3.94077C46.9367 4.28678 46.4664 4.45979 45.8641 4.45979Z" fill="black"/>
<path fill-rule="evenodd" clip-rule="evenodd" d="M2.90867 7.37616H3.42024C3.55226 7.37616 3.68428 7.37616 3.76679 7.31025C4.05558 7.10429 4.02257 6.60176 3.42024 6.60176H2.90867V7.37616ZM3.66777 5.71201C4.40212 5.71201 5.10347 6.05802 5.10347 6.93129C5.10347 7.77984 4.56715 8.25766 3.8328 8.24119C3.478 8.24119 3.18096 8.24119 2.91692 8.24119V9.41927H1.69575V5.71201H3.66777Z" fill="black"/>
<path fill-rule="evenodd" clip-rule="evenodd" d="M7.32303 8.55424C7.56231 8.55424 7.75208 8.46362 7.8841 8.28238C8.01612 8.10113 8.09038 7.84575 8.09038 7.51621C8.09038 7.18668 8.02437 6.92305 7.8841 6.73357C7.75208 6.54409 7.56231 6.45347 7.32303 6.45347C7.08374 6.45347 6.89397 6.54409 6.76195 6.73357C6.62993 6.92305 6.55567 7.17844 6.55567 7.51621C6.55567 7.85398 6.62168 8.09289 6.7537 8.28238C6.88572 8.46362 7.07549 8.55424 7.31477 8.55424M7.31477 9.4687C6.72069 9.4687 6.24213 9.29569 5.88733 8.94968C5.53253 8.60367 5.35926 8.13409 5.35926 7.54093C5.35926 6.94777 5.53253 6.4617 5.88733 6.10745C6.24213 5.75321 6.71244 5.5802 7.31477 5.5802C7.91711 5.5802 8.39567 5.76144 8.74222 6.10745C9.09702 6.4617 9.27029 6.93953 9.27029 7.54093C9.27029 8.14233 9.09702 8.60367 8.74222 8.94968C8.38742 9.29569 7.91711 9.4687 7.31477 9.4687Z" fill="black"/>
<path fill-rule="evenodd" clip-rule="evenodd" d="M14.5593 8.546C14.7986 8.546 14.9883 8.45538 15.1203 8.27414C15.2524 8.0929 15.3266 7.83751 15.3266 7.50797C15.3266 7.17844 15.2606 6.91481 15.1203 6.72533C14.9883 6.53585 14.7986 6.44523 14.5593 6.44523C14.32 6.44523 14.1302 6.53585 13.9982 6.72533C13.8662 6.91481 13.7919 7.1702 13.7919 7.50797C13.7919 7.84574 13.8579 8.08466 13.9899 8.27414C14.122 8.45538 14.3117 8.546 14.551 8.546M14.551 9.46046C13.9569 9.46046 13.4784 9.28745 13.1236 8.94144C12.7688 8.59543 12.5955 8.12585 12.5955 7.53269C12.5955 6.93953 12.7688 6.45347 13.1236 6.09922C13.4784 5.74497 13.9487 5.57196 14.551 5.57196C15.1534 5.57196 15.6319 5.75321 15.9785 6.09922C16.3333 6.45347 16.5065 6.93129 16.5065 7.53269C16.5065 8.13409 16.3333 8.59543 15.9785 8.94144C15.6237 9.28745 15.1534 9.46046 14.551 9.46046Z" fill="black"/>
<path fill-rule="evenodd" clip-rule="evenodd" d="M18.132 5.62963H19.3532V9.30393H18.132V5.62963Z" fill="black"/>
<path fill-rule="evenodd" clip-rule="evenodd" d="M20.9374 9.32865H19.7905V5.70378H20.9291L22.2246 7.67274L22.2163 5.70378H23.3797V9.32865H22.2328L20.9291 7.39264L20.9374 9.32865Z" fill="black"/>
<path fill-rule="evenodd" clip-rule="evenodd" d="M25.0465 8.40595H25.5415C25.7808 8.40595 25.9541 8.32357 26.0779 8.1588C26.1934 7.99404 26.2594 7.75512 26.2594 7.42559C26.2594 7.12901 26.2016 6.90657 26.0944 6.76652C25.9871 6.61823 25.8138 6.54409 25.591 6.54409H25.0465V8.40595ZM23.8665 5.63787H25.591C26.1439 5.63787 26.6884 5.78616 26.9772 6.09098C27.266 6.38756 27.431 6.83243 27.431 7.40911C27.431 8.04347 27.2578 8.52953 26.9607 8.85906C26.6637 9.18859 26.1026 9.35336 25.525 9.35336H23.8748V5.62963L23.8665 5.63787Z" fill="black"/>
<path fill-rule="evenodd" clip-rule="evenodd" d="M31.3338 7.97756C31.3338 9.16388 30.3107 9.40279 29.5268 9.41927C28.8585 9.43574 27.7281 9.11445 27.7281 7.97756V5.64611H28.941V8.00227C28.941 8.64486 30.1374 8.71077 30.1374 8.00227V5.64611H31.3338V7.97756Z" fill="black"/>
<path fill-rule="evenodd" clip-rule="evenodd" d="M40.2698 7.20315H40.8969C41.0042 7.20315 41.1197 7.19492 41.1939 7.15372C41.4992 6.97248 41.4827 6.48642 40.9299 6.48642H40.2698V7.21139V7.20315ZM39.0981 5.63787H41.3012C41.6807 5.63787 41.986 5.72849 42.2171 5.91797C42.4481 6.10745 42.5141 6.3546 42.5141 6.65942C42.5141 7.01367 42.3986 7.2773 42.1346 7.44207C42.0686 7.48326 41.986 7.52445 41.9035 7.54916C41.953 7.56564 41.9943 7.59036 42.0355 7.60683C42.2666 7.73041 42.5059 7.94461 42.5141 8.24119L42.5306 8.84258C42.5306 8.96616 42.5059 9.04854 42.5306 9.09797C42.5554 9.1474 42.5966 9.18859 42.6626 9.22155V9.32041H41.4415C41.4167 9.27922 41.4002 9.19683 41.3837 9.07326C41.3672 8.94968 41.359 8.80963 41.359 8.66958V8.46362C41.3507 8.29885 41.3012 8.18352 41.1939 8.10937C41.0949 8.03523 40.9959 8.00227 40.7566 8.00227H40.2616V9.32041H39.0899V5.62963L39.0981 5.63787Z" fill="black"/>
<path fill-rule="evenodd" clip-rule="evenodd" d="M43.1247 5.60492H44.3376V9.27098H43.1247V5.60492Z" fill="black"/>
<path fill-rule="evenodd" clip-rule="evenodd" d="M11.7291 13.3819H12.2242C12.4635 13.3819 12.6368 13.2995 12.7605 13.1348C12.876 12.97 12.942 12.7311 12.942 12.4015C12.942 12.105 12.8843 11.8825 12.777 11.7425C12.6698 11.5942 12.4965 11.52 12.2737 11.52H11.7291V13.3819ZM10.5492 10.6138H12.2737C12.8265 10.6138 13.3711 10.7621 13.6599 11.0669C13.9487 11.3635 14.1137 11.8084 14.1137 12.3851C14.1137 13.0194 13.9404 13.5055 13.6434 13.8433C13.3464 14.1728 12.7853 14.3376 12.2077 14.3376H10.5575V10.6138H10.5492Z" fill="black"/>
<path fill-rule="evenodd" clip-rule="evenodd" d="M29.0235 14.2799H27.8766V10.6221H29.0153L30.3107 12.6075L30.3024 10.6221H31.4658V14.2799H30.3272L29.0153 12.3274L29.0235 14.2799Z" fill="black"/>
<path fill-rule="evenodd" clip-rule="evenodd" d="M48.7602 9.32865V5.6873H49.9649V8.43891H51.6729V9.32865H48.7602Z" fill="black"/>
<path fill-rule="evenodd" clip-rule="evenodd" d="M25.261 13.0606H26.0696L25.6405 11.6766L25.261 13.0606ZM25.0465 10.5809H26.2676L27.6373 14.3046H26.4244L26.2924 13.8021H25.0382L24.8814 14.3128H24.0893L23.7015 14.2964L25.0465 10.5726V10.5809Z" fill="black"/>
<path fill-rule="evenodd" clip-rule="evenodd" d="M33.1986 13.0689H34.0072L33.5781 11.6848L33.1986 13.0689ZM32.9841 10.5891H34.2052L35.5749 14.3128H34.362L34.23 13.8103H32.9758L32.819 14.3211H32.0269L31.6391 14.3046L32.9841 10.5809V10.5891Z" fill="black"/>
<path fill-rule="evenodd" clip-rule="evenodd" d="M41.689 11.6271C41.6725 11.4459 41.59 11.3635 41.4002 11.3058C41.1362 11.2235 40.8474 11.3553 40.8226 11.4541C40.8061 11.5283 40.8061 11.6024 40.8474 11.6601C40.8886 11.7178 40.9546 11.759 41.0454 11.7754C41.1857 11.8084 41.2517 11.8578 41.6642 11.9402C42.2996 12.072 42.5471 12.2944 42.7369 12.4675C42.9102 12.624 42.9597 12.9947 42.9597 13.2336C42.9597 13.5302 42.7369 13.8844 42.4564 14.0986C42.1593 14.3211 41.7303 14.3788 41.2599 14.3788C40.7401 14.3788 40.3441 14.2717 40.0553 14.0492C39.7582 13.835 39.585 13.522 39.5602 13.1183H40.7401C40.7484 13.316 40.9051 13.4561 41.0949 13.4808C41.6395 13.5632 41.7963 13.3654 41.788 13.2336C41.788 13.0359 41.5322 12.937 41.1857 12.8711C40.5256 12.7476 40.179 12.5746 39.9645 12.4098C39.7582 12.245 39.618 11.9484 39.618 11.6271C39.618 11.2647 39.7665 10.9763 40.0553 10.7704C40.3441 10.5562 40.7401 10.4491 41.2352 10.4491C41.6973 10.4491 42.0768 10.5562 42.3656 10.7786C42.6544 11.001 42.8194 11.2564 42.8524 11.6271H41.6807H41.689Z" fill="black"/>
<path fill-rule="evenodd" clip-rule="evenodd" d="M39.1724 12.9206C39.1724 14.1069 38.1493 14.3458 37.3654 14.3623C36.6971 14.3787 35.5832 14.0575 35.5832 12.9206V10.5891H36.8208V12.9453C36.8208 13.5879 37.976 13.6538 37.976 12.9453V10.5891H39.1724V12.9206Z" fill="black"/>
<path fill-rule="evenodd" clip-rule="evenodd" d="M20.2608 14.3128H19.1717V10.5891H20.6074L21.3004 12.9041L21.9688 10.5891H23.4375V14.3128H23.0084L22.3483 14.3046L22.3236 12.2862L21.7295 14.3128H20.8631L20.2608 12.2862V14.3128Z" fill="black"/>
<path fill-rule="evenodd" clip-rule="evenodd" d="M14.4603 14.3128V10.5974H17.4884V11.4624H15.6237V12.0143H17.2326V12.8217H15.6237V13.4313H17.5874V14.3128H14.4603Z" fill="black"/>
<path fill-rule="evenodd" clip-rule="evenodd" d="M50.7157 29.7515H51.6811L51.2108 28.3922L50.7157 29.7515ZM51.4583 27.9473L52.5557 31.0037H52.1102L51.7966 30.1222H50.5755L50.2537 31.0037H49.8246L50.9798 27.9473H51.4583ZM48.9005 27.9473H49.313V31.0037H48.9005V27.9473ZM45.5175 31.0037V27.9473H46.0126L47.5473 30.427V27.9473H47.9516V31.0037H47.4978L45.9218 28.5075V31.0037H45.5175ZM43.529 27.0493L43.9498 27.6507H43.6115L43.331 27.247L43.0504 27.6507H42.7121L43.1329 27.0493H43.529ZM43.331 30.7236C43.6528 30.7236 43.9086 30.6083 44.1066 30.3776C44.3046 30.1469 44.4036 29.8504 44.4036 29.4796C44.4036 29.1089 44.3046 28.8041 44.1066 28.5734C43.9086 28.3427 43.6528 28.2274 43.331 28.2274C43.0092 28.2274 42.7534 28.3427 42.5636 28.5734C42.3656 28.8041 42.2666 29.1007 42.2666 29.4796C42.2666 29.8586 42.3656 30.1552 42.5636 30.3776C42.7616 30.6083 43.0174 30.7236 43.331 30.7236ZM43.331 31.0861C42.8854 31.0861 42.5306 30.9378 42.2501 30.6412C41.9778 30.3447 41.8375 29.9575 41.8375 29.4714C41.8375 28.9853 41.9778 28.5981 42.2501 28.3015C42.5224 28.005 42.8854 27.8567 43.331 27.8567C43.7765 27.8567 44.1396 28.005 44.4119 28.3015C44.6842 28.5981 44.8244 28.9853 44.8244 29.4714C44.8244 29.9575 44.6842 30.3447 44.4119 30.6412C44.1396 30.9378 43.7765 31.0861 43.331 31.0861ZM38.9661 30.6412L40.8556 28.3098H39.1146V27.9473H41.3755V28.3098L39.4859 30.6412H41.3755V31.0037H38.9744V30.6412H38.9661ZM36.7631 29.7515H37.7285L37.2581 28.3922L36.7631 29.7515ZM37.5057 27.9473L38.6031 31.0037H38.1575L37.844 30.1222H36.6228L36.301 31.0037H35.872L37.0271 27.9473H37.5057ZM32.8273 31.0037H32.423V27.9473H33.0171L33.8917 30.5506L34.758 27.9473H35.3521V31.0037H34.9478V28.4169L34.0815 31.0037H33.6854L32.819 28.4251V31.0037H32.8273ZM30.0549 29.7515H31.0203L30.55 28.3922L30.0549 29.7515ZM30.7975 27.9473L31.8949 31.0037H31.4493L31.1358 30.1222H29.9146L29.5928 31.0037H29.1638L30.3189 27.9473H30.7975ZM25.6075 29.7515H26.5729L26.1026 28.3922L25.6075 29.7515ZM26.3501 27.9473L27.4475 31.0037H27.002L26.6884 30.1222H25.4673L25.1455 31.0037H24.7164L25.8716 27.9473H26.3501ZM21.2509 29.7515H22.2163L21.746 28.3922L21.2509 29.7515ZM21.9935 27.9473L23.0909 31.0037H22.6454L22.3318 30.1222H21.1107L20.7889 31.0037H20.3598L21.515 27.9473H21.9935ZM18.7096 30.9955L18.5198 31.2591L18.6436 31.2426C18.7591 31.2426 18.8416 31.2674 18.9076 31.325C18.9736 31.3827 19.0066 31.4568 19.0066 31.5639C19.0066 31.6793 18.9571 31.7781 18.8664 31.844C18.7756 31.9182 18.6518 31.9511 18.5033 31.9511C18.4538 31.9511 18.3878 31.9429 18.3135 31.9264C18.2393 31.9099 18.165 31.8852 18.0908 31.8605L18.165 31.6875C18.2145 31.704 18.264 31.7205 18.3135 31.7287C18.363 31.7369 18.4043 31.7452 18.4373 31.7452C18.5198 31.7452 18.5776 31.7287 18.6188 31.704C18.6601 31.671 18.6766 31.6298 18.6766 31.5722C18.6766 31.5227 18.6601 31.4815 18.6188 31.4568C18.5776 31.4239 18.5281 31.4074 18.4703 31.4074C18.4538 31.4074 18.4291 31.4074 18.4043 31.4156C18.3713 31.4156 18.3383 31.4321 18.3053 31.4404L18.231 31.358L18.5033 30.9872H18.7013L18.7096 30.9955ZM19.9803 29.8751C19.9308 30.254 19.7822 30.5506 19.543 30.7648C19.3037 30.979 19.0066 31.0861 18.6436 31.0861C18.2228 31.0861 17.8845 30.9378 17.6369 30.6495C17.3894 30.3611 17.2574 29.9657 17.2574 29.4796C17.2574 28.9936 17.3894 28.5981 17.6452 28.3015C17.9092 28.0132 18.2558 27.8649 18.6931 27.8649C19.0396 27.8649 19.3202 27.9555 19.543 28.1285C19.7657 28.3098 19.8978 28.5487 19.939 28.8618H19.543C19.5017 28.6558 19.4109 28.4993 19.2624 28.3922C19.1139 28.2851 18.9241 28.2274 18.6848 28.2274C18.3795 28.2274 18.132 28.3427 17.9505 28.5652C17.769 28.7876 17.6782 29.0924 17.6782 29.4714C17.6782 29.8751 17.7607 30.1881 17.934 30.3941C18.099 30.6083 18.3465 30.7154 18.6683 30.7154C18.9076 30.7154 19.1056 30.6412 19.2624 30.4929C19.4192 30.3447 19.5265 30.1387 19.576 29.8668H19.972L19.9803 29.8751ZM14.3942 31.0037V27.9473H16.6303V28.3098H14.8068V29.2407H16.4735V29.6032H14.8068V30.6248H16.6551V30.9872H14.3942V31.0037ZM11.0773 27.9473H11.4898V29.1995H13.0906V27.9473H13.5031V31.0037H13.0906V29.5703H11.4898V31.0037H11.0773V27.9473ZM8.2389 31.0037H7.8346V27.9473H8.32966L9.86438 30.427V27.9473H10.2687V31.0037H9.81487L8.2389 28.5075V31.0037ZM5.6563 30.7236C5.97809 30.7236 6.23388 30.6083 6.4319 30.3776C6.62993 30.1469 6.72894 29.8504 6.72894 29.4796C6.72894 29.1089 6.62993 28.8041 6.4319 28.5734C6.23388 28.3427 5.97809 28.2274 5.6563 28.2274C5.3345 28.2274 5.07872 28.3427 4.88894 28.5734C4.69091 28.8041 4.5919 29.1007 4.5919 29.4796C4.5919 29.8586 4.69091 30.1552 4.88894 30.3776C5.08697 30.6083 5.34275 30.7236 5.6563 30.7236ZM5.6563 31.0861C5.21074 31.0861 4.85594 30.9378 4.5754 30.6412C4.30311 30.3447 4.16284 29.9575 4.16284 29.4714C4.16284 28.9853 4.30311 28.5981 4.5754 28.3015C4.84769 28.005 5.21074 27.8567 5.6563 27.8567C6.10186 27.8567 6.46491 28.005 6.7372 28.3015C7.00948 28.5981 7.14975 28.9853 7.14975 29.4714C7.14975 29.9575 7.00948 30.3447 6.7372 30.6412C6.46491 30.9378 6.10186 31.0861 5.6563 31.0861ZM3.62652 29.8751C3.57701 30.254 3.42849 30.5506 3.18921 30.7648C2.94992 30.979 2.65288 31.0861 2.28983 31.0861C1.86903 31.0861 1.53073 30.9378 1.2832 30.6495C1.03566 30.3611 0.903643 29.9657 0.903643 29.4796C0.903643 28.9936 1.03566 28.5981 1.29145 28.3015C1.55548 28.0132 1.90203 27.8649 2.33934 27.8649C2.68589 27.8649 2.96643 27.9555 3.18921 28.1285C3.41199 28.3098 3.54401 28.5487 3.58526 28.8618H3.18921C3.14795 28.6558 3.05719 28.4993 2.90867 28.3922C2.76015 28.2851 2.57037 28.2274 2.33109 28.2274C2.0258 28.2274 1.77826 28.3427 1.59674 28.5652C1.41521 28.7876 1.32445 29.0924 1.32445 29.4714C1.32445 29.8751 1.40696 30.1881 1.58024 30.3941C1.74526 30.6083 1.99279 30.7154 2.31459 30.7154C2.55387 30.7154 2.7519 30.6412 2.90867 30.4929C3.06544 30.3447 3.17271 30.1387 3.22221 29.8668H3.61827L3.62652 29.8751Z" fill="black"/>
<path fill-rule="evenodd" clip-rule="evenodd" d="M0.713867 15.9276L52.5887 15.8452L52.63 26.5715L0.746872 26.6292L0.713867 15.9276Z" fill="black"/>
<path fill-rule="evenodd" clip-rule="evenodd" d="M1.59674 20.4834C6.44841 20.7799 8.08213 17.88 13.8662 16.9491C17.8102 16.6608 21.68 17.88 25.492 20.3515C27.068 21.4884 27.5301 21.4637 29.271 20.2856C31.3008 19.0911 33.7844 17.2127 36.9116 16.9821C38.7433 16.8503 40.5256 17.8553 43.562 18.6792C46.7717 19.5936 49.3626 19.2806 51.7471 17.6988C50.3032 20.7964 46.9697 22.6253 42.7616 21.8509C41.3425 21.5873 40.1708 20.6069 38.2813 20.2197C35.3439 19.6431 30.8965 20.6234 29.8074 22.5924C29.4856 23.1691 29.9311 23.3915 30.418 22.9549C31.5896 21.7438 32.39 20.92 34.0072 22.2628C35.2036 23.3256 36.103 23.7705 37.0684 23.7869C35.5502 24.5119 33.8917 23.2762 32.3652 23.3091C32.3405 23.3091 32.3157 23.3091 32.291 23.3091C30.7727 23.1773 31.5071 25.5088 28.4954 25.5829C26.5069 25.6323 25.1372 23.202 23.3797 21.9498C22.6701 21.4967 21.878 21.2742 20.9374 21.5461V20.8623C21.6717 20.8294 22.3071 20.887 22.8847 21.0189C18.4951 18.7204 12.6203 22.7489 8.92374 23.1114C6.22562 23.1279 3.75854 22.2381 1.58849 20.4834" fill="white"/>
</g>
<defs>
<clipPath id="clip0_0_1">
<rect width="1440" height="4691" fill="white" transform="translate(-1179 -4577)"/>
</clipPath>
</defs>
</svg>
