<svg width="37" height="20" viewBox="0 0 37 20" fill="none" xmlns="http://www.w3.org/2000/svg">
<path id="sofa_modular" d="M34.8333 1.00001H19.6667M34.8333 1.00001C35.4777 1.00001 36 1.52235 36 2.16668V17.3333C36 17.9777 35.4777 18.5 34.8333 18.5H19.6667C19.0223 18.5 18.5 17.9777 18.5 17.3333M34.8333 1.00001C35.4777 1.00001 36 1.78351 36 2.75001V8.00001C36 8.96651 35.4777 9.75001 34.8333 9.75001H19.6667C19.0223 9.75001 18.5 8.96651 18.5 8.00001V2.75001C18.5 1.78351 19.0223 1.00001 19.6667 1.00001M19.6667 1.00001C19.0223 1.00001 18.5 1.52235 18.5 2.16668M18.5 2.16668V17.3333M18.5 2.16668C18.5 1.52235 17.9777 1.00007 17.3333 1.00007H2.16667M18.5 17.3333C18.5 17.9777 17.9777 18.5001 17.3333 18.5001H2.16667C1.52234 18.5001 1 17.9777 1 17.3334V2.16674C1 1.52241 1.52234 1.00007 2.16667 1.00007M18.5 17.3333L18.5 10.5521C18.5 9.90808 17.9773 9.38542 17.3333 9.38542L8.00001 9.38542C7.35601 9.38542 6.83334 8.86275 6.83334 8.21875L6.83334 2.16667C6.83334 1.52267 6.31068 1 5.66668 1L2.16667 1.00007" stroke="#58585D" stroke-width="1.2" stroke-linecap="round" stroke-linejoin="round"/>
</svg>
