<svg width="31" height="20" viewBox="0 0 31 20" fill="none" xmlns="http://www.w3.org/2000/svg">
<g id="Visa">
<path d="M27.5 0H3.5C1.567 0 0 1.49238 0 3.33333V16.6667C0 18.5076 1.567 20 3.5 20H27.5C29.433 20 31 18.5076 31 16.6667V3.33333C31 1.49238 29.433 0 27.5 0Z" fill="white"/>
<path d="M12.4919 6.29105L9.21889 13.7283H7.08348L5.47279 7.79305C5.375 7.42743 5.28997 7.29352 4.99258 7.13952C4.50729 6.88867 3.70547 6.65343 3 6.50733L3.04792 6.29105H6.48528C6.92343 6.29105 7.31732 6.56886 7.41678 7.04933L8.26743 11.353L10.3698 6.29105H12.4919ZM20.859 11.3001C20.8675 9.33714 18.009 9.22905 18.0286 8.35219C18.0347 8.08533 18.3015 7.80162 18.8855 7.72914C19.175 7.69305 19.9725 7.66552 20.8771 8.062L21.2319 6.48486C20.7458 6.31686 20.1204 6.15514 19.3423 6.15514C17.3456 6.15514 15.9404 7.166 15.9285 8.61362C15.9156 9.68429 16.9315 10.2817 17.6968 10.6375C18.4842 11.0018 18.7484 11.236 18.7454 11.5619C18.7398 12.0608 18.1174 12.281 17.5358 12.2897C16.5204 12.3046 15.9313 12.028 15.4616 11.8201L15.0954 13.4494C15.5674 13.6556 16.4387 13.8355 17.3419 13.8446C19.4642 13.8446 20.8525 12.8462 20.859 11.3001ZM26.1316 13.7285H28L26.3691 6.29105H24.6446C24.2569 6.29105 23.9298 6.5061 23.785 6.83667L20.7536 13.7283H22.8748L23.2961 12.6173H25.8879L26.1316 13.7285ZM23.8776 11.0931L24.9409 8.30076L25.5529 11.0931H23.8776ZM15.3784 6.29105L13.7079 13.7283H11.6879L13.359 6.29105H15.3784Z" fill="#1434CB"/>
</g>
</svg>
